SplineFontDB: 3.0
FontName: Corben
FullName: Corben
FamilyName: Corben
Weight: Bold
Copyright: Copyright (c) 2010 by vernon adams. All rights reserved.
Version: 1.000
ItalicAngle: 0
UnderlinePosition: -103
UnderlineWidth: 102
Ascent: 1638
Descent: 410
LayerCount: 2
Layer: 0 1 "Back"  1
Layer: 1 1 "Fore"  0
XUID: [1021 423 1553708084 8353624]
FSType: 0
OS2Version: 2
OS2_WeightWidthSlopeOnly: 0
OS2_UseTypoMetrics: 1
CreationTime: 1292423813
ModificationTime: 1296003334
PfmFamily: 17
TTFWeight: 700
TTFWidth: 5
LineGap: 0
VLineGap: 0
Panose: 2 0 5 5 2 0 0 2 0 4
OS2TypoAscent: 2300
OS2TypoAOffset: 0
OS2TypoDescent: -940
OS2TypoDOffset: 0
OS2TypoLinegap: 0
OS2WinAscent: 2300
OS2WinAOffset: 0
OS2WinDescent: 940
OS2WinDOffset: 0
HheadAscent: 2300
HheadAOffset: 0
HheadDescent: -940
HheadDOffset: 0
OS2SubXSize: 1434
OS2SubYSize: 1331
OS2SubXOff: 0
OS2SubYOff: 287
OS2SupXSize: 1434
OS2SupYSize: 1331
OS2SupXOff: 0
OS2SupYOff: 977
OS2StrikeYSize: 102
OS2StrikeYPos: 512
OS2Vendor: '    '
OS2CodePages: 00000093.00000000
OS2UnicodeRanges: a00002af.4000004a.00000000.00000000
Lookup: 1 0 0 "'aalt' Access All Alternates in Latin lookup 0"  {"'aalt' Access All Alternates in Latin lookup 0 subtable"  } ['aalt' ('latn' <'dflt' > ) ]
Lookup: 1 0 0 "'smcp' Lowercase to Small Capitals in Latin lookup 1"  {"'smcp' Lowercase to Small Capitals in Latin lookup 1 subtable"  } ['smcp' ('latn' <'dflt' > ) ]
Lookup: 1 0 0 "'onum' Oldstyle Figures in Latin lookup 2"  {"'onum' Oldstyle Figures in Latin lookup 2 subtable" ("oldstyle" ) } ['onum' ('latn' <'dflt' > ) ]
Lookup: 4 0 1 "'liga' Standard Ligatures in Latin lookup 3"  {"'liga' Standard Ligatures in Latin lookup 3 subtable"  } ['liga' ('latn' <'dflt' > ) ]
Lookup: 258 0 0 "'kern' Horizontal Kerning in Latin lookup 0"  {"'kern' Horizontal Kerning in Latin lookup 0 per glyph data 0"  "'kern' Horizontal Kerning in Latin lookup 0 kerning class 1"  } ['kern' ('latn' <'dflt' > ) ]
DEI: 91125

StartChar: exclam
Encoding: 33 33 4
Width: 820
Flags: W
HStem: -20 495<212.391 597.234> 567 1096<284.618 540.868>
VStem: 78 651<94.8623 359.412 1205.48 1543.95>
LayerCount: 2
Fore
SplineSet
78 227 m 256,0,1
 78 277 78 277 95.5 314.5 c 128,-1,2
 113 352 113 352 140.5 379.5 c 128,-1,3
 168 407 168 407 203.5 425.5 c 128,-1,4
 239 444 239 444 275.5 455 c 128,-1,5
 312 466 312 466 345.5 470.5 c 128,-1,6
 379 475 379 475 404 475 c 0,7,8
 430 475 430 475 464.5 470.5 c 128,-1,9
 499 466 499 466 535 455 c 128,-1,10
 571 444 571 444 606 425.5 c 128,-1,11
 641 407 641 407 668.5 379.5 c 128,-1,12
 696 352 696 352 712.5 314.5 c 128,-1,13
 729 277 729 277 729 227 c 0,14,15
 729 178 729 178 712.5 140 c 128,-1,16
 696 102 696 102 668.5 75 c 128,-1,17
 641 48 641 48 606 29.5 c 128,-1,18
 571 11 571 11 535 0 c 128,-1,19
 499 -11 499 -11 464.5 -15.5 c 128,-1,20
 430 -20 430 -20 404 -20 c 0,21,22
 379 -20 379 -20 345.5 -15.5 c 128,-1,23
 312 -11 312 -11 275.5 0 c 128,-1,24
 239 11 239 11 203.5 29.5 c 128,-1,25
 168 48 168 48 140.5 75 c 128,-1,26
 113 102 113 102 95.5 139.5 c 128,-1,27
 78 177 78 177 78 227 c 256,0,1
717 1278 m 0,28,29
 691 1145 691 1145 673 1041 c 128,-1,30
 655 937 655 937 639 858 c 128,-1,31
 623 779 623 779 605.5 723.5 c 128,-1,32
 588 668 588 668 562 633.5 c 128,-1,33
 536 599 536 599 498.5 583 c 128,-1,34
 461 567 461 567 406 567 c 0,35,36
 356 567 356 567 323 583 c 128,-1,37
 290 599 290 599 266.5 634 c 128,-1,38
 243 669 243 669 226.5 724.5 c 128,-1,39
 210 780 210 780 193 859.5 c 128,-1,40
 176 939 176 939 156 1043.5 c 128,-1,41
 136 1148 136 1148 106 1282 c 0,42,43
 98 1314 98 1314 94 1345 c 128,-1,44
 90 1376 90 1376 90 1405 c 0,45,46
 90 1460 90 1460 106 1507.5 c 128,-1,47
 122 1555 122 1555 159 1589.5 c 128,-1,48
 196 1624 196 1624 256.5 1643.5 c 128,-1,49
 317 1663 317 1663 406 1663 c 0,50,51
 499 1663 499 1663 561 1643 c 128,-1,52
 623 1623 623 1623 660.5 1588 c 128,-1,53
 698 1553 698 1553 714 1504.5 c 128,-1,54
 730 1456 730 1456 730 1399 c 0,55,56
 730 1370 730 1370 726.5 1340 c 128,-1,57
 723 1310 723 1310 717 1278 c 0,28,29
EndSplineSet
Validated: 1
EndChar

StartChar: numbersign
Encoding: 35 35 6
Width: 2037
Flags: W
HStem: 414 270<82.4141 313 821 1081 1589 1848.37> 1024 270<183.719 424 933 1192 1701 1943.87> 1039 234<1816.04 1967.85>
LayerCount: 2
Fore
SplineSet
141 1159 m 1,0,1
 139 1164 139 1164 139 1169.5 c 128,-1,2
 139 1175 139 1175 139 1180 c 0,3,4
 139 1220 139 1220 158.5 1242.5 c 128,-1,5
 178 1265 178 1265 209.5 1276.5 c 128,-1,6
 241 1288 241 1288 282 1291 c 128,-1,7
 323 1294 323 1294 366 1294 c 2,8,-1
 473 1294 l 1,9,-1
 550 1726 l 2,10,11
 555 1755 555 1755 568 1785 c 128,-1,12
 581 1815 581 1815 603.5 1839 c 128,-1,13
 626 1863 626 1863 659.5 1878.5 c 128,-1,14
 693 1894 693 1894 741 1894 c 0,15,16
 816 1894 816 1894 866 1872 c 128,-1,17
 916 1850 916 1850 945.5 1817.5 c 128,-1,18
 975 1785 975 1785 987 1748.5 c 128,-1,19
 999 1712 999 1712 999 1683 c 0,20,21
 999 1669 999 1669 996.5 1650 c 128,-1,22
 994 1631 994 1631 987 1591 c 128,-1,23
 980 1551 980 1551 967 1481 c 128,-1,24
 954 1411 954 1411 933 1294 c 1,25,-1
 1241 1294 l 1,26,-1
 1318 1726 l 2,27,28
 1323 1755 1323 1755 1336 1785 c 128,-1,29
 1349 1815 1349 1815 1371.5 1839 c 128,-1,30
 1394 1863 1394 1863 1427.5 1878.5 c 128,-1,31
 1461 1894 1461 1894 1509 1894 c 0,32,33
 1584 1894 1584 1894 1634 1872 c 128,-1,34
 1684 1850 1684 1850 1713.5 1817.5 c 128,-1,35
 1743 1785 1743 1785 1755 1748.5 c 128,-1,36
 1767 1712 1767 1712 1767 1683 c 0,37,38
 1767 1669 1767 1669 1764.5 1650 c 128,-1,39
 1762 1631 1762 1631 1755 1591 c 128,-1,40
 1748 1551 1748 1551 1735 1481 c 128,-1,41
 1722 1411 1722 1411 1701 1294 c 1,42,43
 1749 1294 1749 1294 1801.5 1291 c 128,-1,44
 1854 1288 1854 1288 1897.5 1273 c 128,-1,45
 1941 1258 1941 1258 1969.5 1227 c 128,-1,46
 1998 1196 1998 1196 1998 1141 c 0,47,48
 1998 1097 1998 1097 1972 1073.5 c 128,-1,49
 1946 1050 1946 1050 1905 1039 c 128,-1,50
 1864 1028 1864 1028 1814.5 1026 c 128,-1,51
 1765 1024 1765 1024 1718 1024 c 2,52,-1
 1652 1024 l 1,53,-1
 1589 684 l 1,54,55
 1640 684 1640 684 1695 681.5 c 128,-1,56
 1750 679 1750 679 1796 664.5 c 128,-1,57
 1842 650 1842 650 1872 619 c 128,-1,58
 1902 588 1902 588 1902 532 c 0,59,60
 1902 488 1902 488 1875.5 464 c 128,-1,61
 1849 440 1849 440 1807.5 429 c 128,-1,62
 1766 418 1766 418 1715.5 416 c 128,-1,63
 1665 414 1665 414 1617 414 c 2,64,-1
 1542 414 l 1,65,-1
 1474 45 l 2,66,67
 1469 18 1469 18 1456.5 -11.5 c 128,-1,68
 1444 -41 1444 -41 1421.5 -66 c 128,-1,69
 1399 -91 1399 -91 1365.5 -107 c 128,-1,70
 1332 -123 1332 -123 1284 -123 c 0,71,72
 1208 -123 1208 -123 1158.5 -100 c 128,-1,73
 1109 -77 1109 -77 1080 -43 c 128,-1,74
 1051 -9 1051 -9 1039.5 29 c 128,-1,75
 1028 67 1028 67 1028 96 c 0,76,77
 1028 122 1028 122 1034 143 c 1,78,-1
 1081 414 l 1,79,-1
 774 414 l 1,80,-1
 706 45 l 2,81,82
 701 18 701 18 688.5 -11.5 c 128,-1,83
 676 -41 676 -41 653.5 -66 c 128,-1,84
 631 -91 631 -91 597.5 -107 c 128,-1,85
 564 -123 564 -123 516 -123 c 0,86,87
 440 -123 440 -123 390.5 -100 c 128,-1,88
 341 -77 341 -77 312 -43 c 128,-1,89
 283 -9 283 -9 271.5 29 c 128,-1,90
 260 67 260 67 260 96 c 0,91,92
 260 122 260 122 266 143 c 1,93,-1
 313 414 l 1,94,-1
 299 414 l 2,95,96
 252 414 252 414 206 416.5 c 128,-1,97
 160 419 160 419 123 433.5 c 128,-1,98
 86 448 86 448 63.5 480 c 128,-1,99
 41 512 41 512 41 571 c 0,100,101
 41 610 41 610 60.5 633 c 128,-1,102
 80 656 80 656 112 667 c 128,-1,103
 144 678 144 678 185 681 c 128,-1,104
 226 684 226 684 268 684 c 2,105,-1
 362 684 l 1,106,107
 372 737 372 737 379 775.5 c 128,-1,108
 386 814 386 814 393 850.5 c 128,-1,109
 400 887 400 887 407 927.5 c 128,-1,110
 414 968 414 968 424 1024 c 1,111,-1
 399 1024 l 2,112,113
 354 1024 354 1024 310 1026 c 128,-1,114
 266 1028 266 1028 230.5 1041 c 128,-1,115
 195 1054 195 1054 171 1081 c 128,-1,116
 147 1108 147 1108 141 1159 c 1,0,1
1192 1024 m 1,117,-1
 884 1024 l 1,118,-1
 821 684 l 1,119,-1
 1130 684 l 1,120,-1
 1192 1024 l 1,117,-1
EndSplineSet
Validated: 1
EndChar

StartChar: dollar
Encoding: 36 36 7
Width: 1562
Flags: W
HStem: -18 278<769 895.042> 1367 250<588.453 668 880 970.605>
VStem: 49 442<298.497 505.129> 79 488<1065 1322.6> 542 195<-221.661 -18.7139> 704 189<1623.79 1864.27> 933 580<296.745 514.5> 983 460<1205.5 1346.24>
LayerCount: 2
Fore
SplineSet
630 -231 m 0,0,1
 604 -230 604 -230 587 -222 c 128,-1,2
 570 -214 570 -214 560 -201.5 c 128,-1,3
 550 -189 550 -189 546 -174 c 128,-1,4
 542 -159 542 -159 542 -145 c 0,5,6
 542 -136 542 -136 543 -131 c 0,7,8
 544 -125 544 -125 547 -89 c 128,-1,9
 550 -53 550 -53 555 4 c 1,10,11
 451 24 451 24 359 61 c 128,-1,12
 267 98 267 98 198 150.5 c 128,-1,13
 129 203 129 203 89 269 c 128,-1,14
 49 335 49 335 49 414 c 0,15,16
 49 465 49 465 65 503 c 128,-1,17
 81 541 81 541 107.5 565.5 c 128,-1,18
 134 590 134 590 168 602 c 128,-1,19
 202 614 202 614 239 614 c 0,20,21
 284 614 284 614 329 597 c 128,-1,22
 374 580 374 580 410 547 c 128,-1,23
 446 514 446 514 468.5 466 c 128,-1,24
 491 418 491 418 491 356 c 0,25,26
 491 337 491 337 513 315.5 c 128,-1,27
 535 294 535 294 578 278 c 1,28,-1
 601 549 l 1,29,30
 541 568 541 568 479 592.5 c 128,-1,31
 417 617 417 617 359 649.5 c 128,-1,32
 301 682 301 682 250 724.5 c 128,-1,33
 199 767 199 767 161 822.5 c 128,-1,34
 123 878 123 878 101 949 c 128,-1,35
 79 1020 79 1020 79 1110 c 0,36,37
 79 1237 79 1237 127 1328.5 c 128,-1,38
 175 1420 175 1420 257.5 1481 c 128,-1,39
 340 1542 340 1542 451 1574.5 c 128,-1,40
 562 1607 562 1607 689 1616 c 1,41,-1
 704 1792 l 1,42,43
 704 1806 704 1806 708.5 1820.5 c 128,-1,44
 713 1835 713 1835 723 1847 c 128,-1,45
 733 1859 733 1859 749 1867 c 128,-1,46
 765 1875 765 1875 788 1875 c 0,47,48
 820 1875 820 1875 840.5 1867.5 c 128,-1,49
 861 1860 861 1860 872.5 1848 c 128,-1,50
 884 1836 884 1836 888.5 1820 c 128,-1,51
 893 1804 893 1804 893 1787 c 2,52,-1
 893 1776 l 1,53,54
 892 1770 892 1770 889 1728 c 128,-1,55
 886 1686 886 1686 880 1617 c 1,56,57
 1032 1608 1032 1608 1139 1569.5 c 128,-1,58
 1246 1531 1246 1531 1313.5 1477 c 128,-1,59
 1381 1423 1381 1423 1412 1359.5 c 128,-1,60
 1443 1296 1443 1296 1443 1235 c 0,61,62
 1443 1176 1443 1176 1418 1133 c 128,-1,63
 1393 1090 1393 1090 1353 1062 c 128,-1,64
 1313 1034 1313 1034 1262 1021 c 128,-1,65
 1211 1008 1211 1008 1159 1008 c 0,66,67
 1109 1008 1109 1008 1061.5 1019 c 128,-1,68
 1014 1030 1014 1030 977.5 1052 c 128,-1,69
 941 1074 941 1074 918.5 1105.5 c 128,-1,70
 896 1137 896 1137 896 1178 c 0,71,72
 896 1208 896 1208 909.5 1223 c 128,-1,73
 923 1238 923 1238 939.5 1248 c 128,-1,74
 956 1258 956 1258 969.5 1268 c 128,-1,75
 983 1278 983 1278 983 1298 c 0,76,77
 983 1320 983 1320 953 1339 c 128,-1,78
 923 1358 923 1358 860 1367 c 1,79,-1
 834 1057 l 1,80,-1
 901 1034 l 2,81,82
 969 1010 969 1010 1041 983.5 c 128,-1,83
 1113 957 1113 957 1181 923.5 c 128,-1,84
 1249 890 1249 890 1309 848 c 128,-1,85
 1369 806 1369 806 1414.5 751.5 c 128,-1,86
 1460 697 1460 697 1486.5 627.5 c 128,-1,87
 1513 558 1513 558 1513 471 c 0,88,89
 1513 331 1513 331 1459 237 c 128,-1,90
 1405 143 1405 143 1308.5 86.5 c 128,-1,91
 1212 30 1212 30 1079.5 6 c 128,-1,92
 947 -18 947 -18 790 -18 c 0,93,94
 779 -18 779 -18 768.5 -17.5 c 128,-1,95
 758 -17 758 -17 747 -17 c 1,96,97
 742 -72 742 -72 739.5 -107 c 128,-1,98
 737 -142 737 -142 737 -147 c 0,99,100
 735 -161 735 -161 730 -176 c 128,-1,101
 725 -191 725 -191 714.5 -203.5 c 128,-1,102
 704 -216 704 -216 688 -224 c 128,-1,103
 672 -232 672 -232 649 -232 c 0,104,105
 644 -232 644 -232 639.5 -232 c 128,-1,106
 635 -232 635 -232 630 -231 c 0,0,1
933 385 m 0,107,108
 933 420 933 420 893 444.5 c 128,-1,109
 853 469 853 469 788 491 c 1,110,-1
 769 260 l 1,111,112
 823 265 823 265 855 278.5 c 128,-1,113
 887 292 887 292 904.5 310 c 128,-1,114
 922 328 922 328 927.5 347.5 c 128,-1,115
 933 367 933 367 933 385 c 0,107,108
567 1257 m 0,116,117
 567 1221 567 1221 589.5 1192.5 c 128,-1,118
 612 1164 612 1164 650 1139 c 1,119,120
 655 1197 655 1197 659.5 1254 c 128,-1,121
 664 1311 664 1311 668 1363 c 1,122,123
 634 1356 634 1356 614 1344.5 c 128,-1,124
 594 1333 594 1333 583.5 1319 c 128,-1,125
 573 1305 573 1305 570 1289 c 128,-1,126
 567 1273 567 1273 567 1257 c 0,116,117
EndSplineSet
Validated: 1
EndChar

StartChar: percent
Encoding: 37 37 8
Width: 3340
Flags: W
HStem: -123 209<2574.83 2696.23> 579 209<694.828 816.226> 1020 207<2518.48 2644.1> 1722 207<638.482 764.103>
VStem: 45 539<978.378 1500.72> 874 541<1016.76 1538.78> 1925 539<276.378 798.72> 2754 541<314.761 836.779>
LayerCount: 2
Fore
SplineSet
1167 -27 m 0,0,1
 1095 8 1095 8 1066.5 53.5 c 128,-1,2
 1038 99 1038 99 1038 145 c 0,3,4
 1038 176 1038 176 1047 204.5 c 128,-1,5
 1056 233 1056 233 1070 258 c 0,6,7
 1078 273 1078 273 1106 323.5 c 128,-1,8
 1134 374 1134 374 1175 449.5 c 128,-1,9
 1216 525 1216 525 1268.5 620.5 c 128,-1,10
 1321 716 1321 716 1378.5 821 c 128,-1,11
 1436 926 1436 926 1496 1036 c 128,-1,12
 1556 1146 1556 1146 1613.5 1250.5 c 128,-1,13
 1671 1355 1671 1355 1722.5 1449.5 c 128,-1,14
 1774 1544 1774 1544 1814.5 1618 c 128,-1,15
 1855 1692 1855 1692 1881 1740.5 c 128,-1,16
 1907 1789 1907 1789 1914 1802 c 0,17,18
 1926 1825 1926 1825 1944 1848 c 128,-1,19
 1962 1871 1962 1871 1986 1889 c 128,-1,20
 2010 1907 2010 1907 2039.5 1918 c 128,-1,21
 2069 1929 2069 1929 2105 1929 c 0,22,23
 2175 1929 2175 1929 2222 1906.5 c 128,-1,24
 2269 1884 2269 1884 2297.5 1852 c 128,-1,25
 2326 1820 2326 1820 2337.5 1785.5 c 128,-1,26
 2349 1751 2349 1751 2349 1726 c 0,27,28
 2349 1696 2349 1696 2339.5 1668.5 c 128,-1,29
 2330 1641 2330 1641 2316 1616 c 0,30,31
 2309 1603 2309 1603 2282.5 1554.5 c 128,-1,32
 2256 1506 2256 1506 2215.5 1432 c 128,-1,33
 2175 1358 2175 1358 2123 1263.5 c 128,-1,34
 2071 1169 2071 1169 2013.5 1064.5 c 128,-1,35
 1956 960 1956 960 1896 850 c 128,-1,36
 1836 740 1836 740 1778 635 c 128,-1,37
 1720 530 1720 530 1668 434.5 c 128,-1,38
 1616 339 1616 339 1574.5 263.5 c 128,-1,39
 1533 188 1533 188 1505.5 137.5 c 128,-1,40
 1478 87 1478 87 1470 72 c 0,41,42
 1458 50 1458 50 1440 28 c 128,-1,43
 1422 6 1422 6 1398 -12 c 128,-1,44
 1374 -30 1374 -30 1343.5 -41.5 c 128,-1,45
 1313 -53 1313 -53 1277 -53 c 0,46,47
 1253 -53 1253 -53 1224 -47 c 128,-1,48
 1195 -41 1195 -41 1167 -27 c 0,0,1
1415 1298 m 0,49,50
 1415 1117 1415 1117 1356.5 982 c 128,-1,51
 1298 847 1298 847 1200 757.5 c 128,-1,52
 1102 668 1102 668 974.5 623.5 c 128,-1,53
 847 579 847 579 709 579 c 0,54,55
 575 579 575 579 454.5 619.5 c 128,-1,56
 334 660 334 660 243 741 c 128,-1,57
 152 822 152 822 98.5 943 c 128,-1,58
 45 1064 45 1064 45 1225 c 0,59,60
 45 1402 45 1402 103 1534.5 c 128,-1,61
 161 1667 161 1667 258.5 1754.5 c 128,-1,62
 356 1842 356 1842 483.5 1885.5 c 128,-1,63
 611 1929 611 1929 750 1929 c 0,64,65
 883 1929 883 1929 1003.5 1889 c 128,-1,66
 1124 1849 1124 1849 1215.5 1769.5 c 128,-1,67
 1307 1690 1307 1690 1361 1572 c 128,-1,68
 1415 1454 1415 1454 1415 1298 c 0,49,50
584 1349 m 0,69,70
 584 1218 584 1218 600 1114.5 c 128,-1,71
 616 1011 616 1011 641.5 938 c 128,-1,72
 667 865 667 865 698 826.5 c 128,-1,73
 729 788 729 788 760 788 c 0,74,75
 782 788 782 788 802.5 811.5 c 128,-1,76
 823 835 823 835 839 883.5 c 128,-1,77
 855 932 855 932 864.5 1007.5 c 128,-1,78
 874 1083 874 1083 874 1188 c 0,79,80
 874 1311 874 1311 858 1410 c 128,-1,81
 842 1509 842 1509 816.5 1578.5 c 128,-1,82
 791 1648 791 1648 760 1685 c 128,-1,83
 729 1722 729 1722 698 1722 c 0,84,85
 675 1722 675 1722 654.5 1700 c 128,-1,86
 634 1678 634 1678 618 1632.5 c 128,-1,87
 602 1587 602 1587 593 1516.5 c 128,-1,88
 584 1446 584 1446 584 1349 c 0,69,70
3295 596 m 0,89,90
 3295 415 3295 415 3236.5 280 c 128,-1,91
 3178 145 3178 145 3080 55.5 c 128,-1,92
 2982 -34 2982 -34 2854.5 -78.5 c 128,-1,93
 2727 -123 2727 -123 2589 -123 c 0,94,95
 2455 -123 2455 -123 2334.5 -82.5 c 128,-1,96
 2214 -42 2214 -42 2123 39 c 128,-1,97
 2032 120 2032 120 1978.5 241 c 128,-1,98
 1925 362 1925 362 1925 523 c 0,99,100
 1925 700 1925 700 1983 832.5 c 128,-1,101
 2041 965 2041 965 2138.5 1052.5 c 128,-1,102
 2236 1140 2236 1140 2363.5 1183.5 c 128,-1,103
 2491 1227 2491 1227 2630 1227 c 0,104,105
 2763 1227 2763 1227 2883.5 1187 c 128,-1,106
 3004 1147 3004 1147 3095.5 1067.5 c 128,-1,107
 3187 988 3187 988 3241 870 c 128,-1,108
 3295 752 3295 752 3295 596 c 0,89,90
2464 647 m 0,109,110
 2464 516 2464 516 2480 412.5 c 128,-1,111
 2496 309 2496 309 2521.5 236 c 128,-1,112
 2547 163 2547 163 2578 124.5 c 128,-1,113
 2609 86 2609 86 2640 86 c 0,114,115
 2662 86 2662 86 2682.5 109.5 c 128,-1,116
 2703 133 2703 133 2719 181.5 c 128,-1,117
 2735 230 2735 230 2744.5 305.5 c 128,-1,118
 2754 381 2754 381 2754 486 c 0,119,120
 2754 609 2754 609 2738 708 c 128,-1,121
 2722 807 2722 807 2696.5 876.5 c 128,-1,122
 2671 946 2671 946 2640 983 c 128,-1,123
 2609 1020 2609 1020 2578 1020 c 0,124,125
 2555 1020 2555 1020 2534.5 998 c 128,-1,126
 2514 976 2514 976 2498 930.5 c 128,-1,127
 2482 885 2482 885 2473 814.5 c 128,-1,128
 2464 744 2464 744 2464 647 c 0,109,110
EndSplineSet
Validated: 1
EndChar

StartChar: ampersand
Encoding: 38 38 9
Width: 2149
Flags: W
HStem: -49 246<909.193 1233.8> 1413 252<666.5 955.71>
VStem: 46 665<429.874 745.525> 120 653<1092.24 1342.02> 1342 512<305.846 725.02>
LayerCount: 2
Fore
SplineSet
2153 1354 m 1,0,1
 2133 1255 2133 1255 2093.5 1173.5 c 128,-1,2
 2054 1092 2054 1092 2001.5 1028 c 128,-1,3
 1949 964 1949 964 1887.5 918.5 c 128,-1,4
 1826 873 1826 873 1762 846 c 1,5,6
 1854 643 1854 643 1854 483 c 0,7,8
 1854 392 1854 392 1818.5 317 c 128,-1,9
 1783 242 1783 242 1721 183 c 128,-1,10
 1659 124 1659 124 1573.5 80.5 c 128,-1,11
 1488 37 1488 37 1388.5 8 c 128,-1,12
 1289 -21 1289 -21 1178.5 -35 c 128,-1,13
 1068 -49 1068 -49 955 -49 c 256,14,15
 842 -49 842 -49 730.5 -34.5 c 128,-1,16
 619 -20 619 -20 518 10 c 128,-1,17
 417 40 417 40 331 86.5 c 128,-1,18
 245 133 245 133 181.5 196.5 c 128,-1,19
 118 260 118 260 82 341.5 c 128,-1,20
 46 423 46 423 46 524 c 0,21,22
 46 588 46 588 61 652.5 c 128,-1,23
 76 717 76 717 104.5 777 c 128,-1,24
 133 837 133 837 174 892 c 128,-1,25
 215 947 215 947 267 993 c 1,26,27
 192 1041 192 1041 156 1107 c 128,-1,28
 120 1173 120 1173 120 1245 c 0,29,30
 120 1321 120 1321 159.5 1396 c 128,-1,31
 199 1471 199 1471 277 1531 c 128,-1,32
 355 1591 355 1591 472 1628 c 128,-1,33
 589 1665 589 1665 744 1665 c 0,34,35
 779 1665 779 1665 825 1659 c 128,-1,36
 871 1653 871 1653 919.5 1641 c 128,-1,37
 968 1629 968 1629 1014.5 1609.5 c 128,-1,38
 1061 1590 1061 1590 1097 1563.5 c 128,-1,39
 1133 1537 1133 1537 1155.5 1502.5 c 128,-1,40
 1178 1468 1178 1468 1178 1425 c 0,41,42
 1178 1415 1178 1415 1175 1403.5 c 128,-1,43
 1172 1392 1172 1392 1164.5 1382 c 128,-1,44
 1157 1372 1157 1372 1145.5 1365 c 128,-1,45
 1134 1358 1134 1358 1117 1358 c 0,46,47
 1109 1358 1109 1358 1103 1358.5 c 128,-1,48
 1097 1359 1097 1359 1090 1364 c 1,49,50
 1047 1386 1047 1386 1004.5 1399.5 c 128,-1,51
 962 1413 962 1413 924 1413 c 0,52,53
 890 1413 890 1413 862.5 1392 c 128,-1,54
 835 1371 835 1371 815 1338 c 128,-1,55
 795 1305 795 1305 784 1263.5 c 128,-1,56
 773 1222 773 1222 773 1182 c 0,57,58
 773 1154 773 1154 779 1128.5 c 128,-1,59
 785 1103 785 1103 797 1082.5 c 128,-1,60
 809 1062 809 1062 828 1048 c 128,-1,61
 847 1034 847 1034 873 1030 c 1,62,63
 896 1015 896 1015 907 1000.5 c 128,-1,64
 918 986 918 986 918 965 c 0,65,66
 918 915 918 915 890 884.5 c 128,-1,67
 862 854 862 854 816 854 c 0,68,69
 790 854 790 854 770.5 836 c 128,-1,70
 751 818 751 818 738 787.5 c 128,-1,71
 725 757 725 757 718 715.5 c 128,-1,72
 711 674 711 674 711 627 c 0,73,74
 711 579 711 579 722.5 528.5 c 128,-1,75
 734 478 734 478 755 430.5 c 128,-1,76
 776 383 776 383 806.5 340.5 c 128,-1,77
 837 298 837 298 875.5 266 c 128,-1,78
 914 234 914 234 959.5 215.5 c 128,-1,79
 1005 197 1005 197 1056 197 c 0,80,81
 1140 197 1140 197 1195 220.5 c 128,-1,82
 1250 244 1250 244 1282.5 285 c 128,-1,83
 1315 326 1315 326 1328.5 380 c 128,-1,84
 1342 434 1342 434 1342 496 c 0,85,86
 1342 544 1342 544 1335 594.5 c 128,-1,87
 1328 645 1328 645 1317.5 694.5 c 128,-1,88
 1307 744 1307 744 1294.5 791 c 128,-1,89
 1282 838 1282 838 1271 879 c 1,90,91
 1217 879 1217 879 1176 866 c 128,-1,92
 1135 853 1135 853 1113 819 c 0,93,94
 1094 789 1094 789 1082 769 c 128,-1,95
 1070 749 1070 749 1063 737 c 128,-1,96
 1056 725 1056 725 1053.5 719.5 c 128,-1,97
 1051 714 1051 714 1051 713 c 2,98,-1
 929 807 l 1,99,100
 956 941 956 941 1019 1043 c 128,-1,101
 1082 1145 1082 1145 1161.5 1213.5 c 128,-1,102
 1241 1282 1241 1282 1328.5 1317 c 128,-1,103
 1416 1352 1416 1352 1494 1352 c 0,104,105
 1542 1352 1542 1352 1585.5 1341.5 c 128,-1,106
 1629 1331 1629 1331 1670.5 1318 c 128,-1,107
 1712 1305 1712 1305 1751.5 1294.5 c 128,-1,108
 1791 1284 1791 1284 1832 1284 c 0,109,110
 1851 1284 1851 1284 1871 1286.5 c 128,-1,111
 1891 1289 1891 1289 1909 1295.5 c 128,-1,112
 1927 1302 1927 1302 1942.5 1313 c 128,-1,113
 1958 1324 1958 1324 1969 1341 c 0,114,115
 1992 1377 1992 1377 2004.5 1397 c 128,-1,116
 2017 1417 2017 1417 2023 1427.5 c 128,-1,117
 2029 1438 2029 1438 2030.5 1442 c 128,-1,118
 2032 1446 2032 1446 2034 1448 c 1,119,-1
 2153 1354 l 1,0,1
EndSplineSet
Validated: 1
EndChar

StartChar: quotesingle
Encoding: 39 39 10
Width: 657
Flags: W
HStem: 743 920<197.596 463.229>
VStem: 41 572<1176.34 1576.55>
LayerCount: 2
Fore
SplineSet
602 1319 m 0,0,1
 579 1200 579 1200 563 1111.5 c 128,-1,2
 547 1023 547 1023 532.5 959 c 128,-1,3
 518 895 518 895 502 853 c 128,-1,4
 486 811 486 811 463 786.5 c 128,-1,5
 440 762 440 762 406.5 752.5 c 128,-1,6
 373 743 373 743 323 743 c 0,7,8
 279 743 279 743 249 752.5 c 128,-1,9
 219 762 219 762 198 786.5 c 128,-1,10
 177 811 177 811 162 853 c 128,-1,11
 147 895 147 895 132 959.5 c 128,-1,12
 117 1024 117 1024 99 1113.5 c 128,-1,13
 81 1203 81 1203 55 1323 c 1,14,15
 41 1382 41 1382 41 1433 c 0,16,17
 41 1482 41 1482 55 1524 c 128,-1,18
 69 1566 69 1566 102 1597 c 128,-1,19
 135 1628 135 1628 189 1645.5 c 128,-1,20
 243 1663 243 1663 323 1663 c 0,21,22
 406 1663 406 1663 461.5 1645 c 128,-1,23
 517 1627 517 1627 551 1595.5 c 128,-1,24
 585 1564 585 1564 599 1520.5 c 128,-1,25
 613 1477 613 1477 613 1426 c 0,26,27
 613 1377 613 1377 602 1319 c 0,0,1
EndSplineSet
Validated: 1
EndChar

StartChar: parenleft
Encoding: 40 40 11
Width: 1034
Flags: W
VStem: 45 563<511.773 1087.46>
LayerCount: 2
Fore
SplineSet
45 797 m 0,0,1
 45 893 45 893 64 993.5 c 128,-1,2
 83 1094 83 1094 123 1190.5 c 128,-1,3
 163 1287 163 1287 226 1374.5 c 128,-1,4
 289 1462 289 1462 376.5 1532 c 128,-1,5
 464 1602 464 1602 578 1650 c 128,-1,6
 692 1698 692 1698 835 1716 c 0,7,8
 845 1718 845 1718 854.5 1718 c 128,-1,9
 864 1718 864 1718 872 1718 c 0,10,11
 914 1718 914 1718 943 1706 c 128,-1,12
 972 1694 972 1694 990 1674.5 c 128,-1,13
 1008 1655 1008 1655 1016 1630 c 128,-1,14
 1024 1605 1024 1605 1024 1579 c 0,15,16
 1024 1558 1024 1558 1019 1536.5 c 128,-1,17
 1014 1515 1014 1515 1005 1497 c 128,-1,18
 996 1479 996 1479 983.5 1465.5 c 128,-1,19
 971 1452 971 1452 956 1446 c 0,20,21
 869 1409 869 1409 803.5 1342.5 c 128,-1,22
 738 1276 738 1276 694.5 1189.5 c 128,-1,23
 651 1103 651 1103 629.5 1003.5 c 128,-1,24
 608 904 608 904 608 801 c 256,25,26
 608 698 608 698 629.5 597.5 c 128,-1,27
 651 497 651 497 694.5 411 c 128,-1,28
 738 325 738 325 803.5 258 c 128,-1,29
 869 191 869 191 956 155 c 0,30,31
 971 149 971 149 983.5 135.5 c 128,-1,32
 996 122 996 122 1005 104 c 128,-1,33
 1014 86 1014 86 1019 65 c 128,-1,34
 1024 44 1024 44 1024 23 c 0,35,36
 1024 -3 1024 -3 1016 -28.5 c 128,-1,37
 1008 -54 1008 -54 990 -73.5 c 128,-1,38
 972 -93 972 -93 943 -105 c 128,-1,39
 914 -117 914 -117 872 -117 c 0,40,41
 864 -117 864 -117 854.5 -117 c 128,-1,42
 845 -117 845 -117 835 -115 c 0,43,44
 692 -97 692 -97 578 -48.5 c 128,-1,45
 464 0 464 0 376.5 70 c 128,-1,46
 289 140 289 140 226 227 c 128,-1,47
 163 314 163 314 123 409 c 128,-1,48
 83 504 83 504 64 603.5 c 128,-1,49
 45 703 45 703 45 797 c 0,0,1
EndSplineSet
Validated: 1
EndChar

StartChar: parenright
Encoding: 41 41 12
Width: 1033
Flags: W
VStem: 426 563<511.773 1087.46>
LayerCount: 2
Fore
SplineSet
989 797 m 0,0,1
 989 703 989 703 970 603.5 c 128,-1,2
 951 504 951 504 911 409 c 128,-1,3
 871 314 871 314 808 227 c 128,-1,4
 745 140 745 140 657 70 c 128,-1,5
 569 0 569 0 455 -48.5 c 128,-1,6
 341 -97 341 -97 198 -115 c 0,7,8
 189 -117 189 -117 179.5 -117 c 128,-1,9
 170 -117 170 -117 162 -117 c 0,10,11
 120 -117 120 -117 91 -105 c 128,-1,12
 62 -93 62 -93 44 -73.5 c 128,-1,13
 26 -54 26 -54 18 -28.5 c 128,-1,14
 10 -3 10 -3 10 23 c 0,15,16
 10 44 10 44 15 65 c 128,-1,17
 20 86 20 86 29 104 c 128,-1,18
 38 122 38 122 50.5 135.5 c 128,-1,19
 63 149 63 149 78 155 c 0,20,21
 165 191 165 191 230.5 258 c 128,-1,22
 296 325 296 325 339.5 411 c 128,-1,23
 383 497 383 497 404.5 597.5 c 128,-1,24
 426 698 426 698 426 801 c 256,25,26
 426 904 426 904 404.5 1003.5 c 128,-1,27
 383 1103 383 1103 339.5 1189.5 c 128,-1,28
 296 1276 296 1276 230.5 1342.5 c 128,-1,29
 165 1409 165 1409 78 1446 c 0,30,31
 63 1452 63 1452 50.5 1465.5 c 128,-1,32
 38 1479 38 1479 29 1497 c 128,-1,33
 20 1515 20 1515 15 1536.5 c 128,-1,34
 10 1558 10 1558 10 1579 c 0,35,36
 10 1605 10 1605 18 1630 c 128,-1,37
 26 1655 26 1655 44 1674.5 c 128,-1,38
 62 1694 62 1694 91 1706 c 128,-1,39
 120 1718 120 1718 162 1718 c 0,40,41
 170 1718 170 1718 179.5 1718 c 128,-1,42
 189 1718 189 1718 198 1716 c 0,43,44
 341 1698 341 1698 455 1650 c 128,-1,45
 569 1602 569 1602 657 1532 c 128,-1,46
 745 1462 745 1462 808 1374.5 c 128,-1,47
 871 1287 871 1287 911 1190.5 c 128,-1,48
 951 1094 951 1094 970 993.5 c 128,-1,49
 989 893 989 893 989 797 c 0,0,1
EndSplineSet
Validated: 1
EndChar

StartChar: asterisk
Encoding: 42 42 13
Width: 2055
Flags: W
VStem: 745 565<743.852 801.922 1478.09 1885.69>
LayerCount: 2
Fore
SplineSet
1032 604 m 1,0,1
 1004 529 1004 529 972 452 c 0,2,3
 945 386 945 386 910.5 307 c 128,-1,4
 876 228 876 228 841 156 c 0,5,6
 820 114 820 114 797 78.5 c 128,-1,7
 774 43 774 43 746 17 c 128,-1,8
 718 -9 718 -9 685.5 -24 c 128,-1,9
 653 -39 653 -39 614 -39 c 0,10,11
 578 -39 578 -39 539 -25 c 128,-1,12
 500 -11 500 -11 462 13 c 128,-1,13
 424 37 424 37 390 68 c 128,-1,14
 356 99 356 99 330 132 c 128,-1,15
 304 165 304 165 289 199 c 128,-1,16
 274 233 274 233 274 262 c 0,17,18
 274 321 274 321 310.5 377 c 128,-1,19
 347 433 347 433 403 481 c 0,20,21
 440 512 440 512 480.5 547.5 c 128,-1,22
 521 583 521 583 560 618 c 128,-1,23
 599 653 599 653 635 685 c 128,-1,24
 671 717 671 717 698 742 c 128,-1,25
 725 767 725 767 741 781.5 c 128,-1,26
 757 796 757 796 757 797 c 0,27,28
 683 803 683 803 606 812 c 0,29,30
 540 819 540 819 461.5 828.5 c 128,-1,31
 383 838 383 838 309 849 c 0,32,33
 253 857 253 857 205 872.5 c 128,-1,34
 157 888 157 888 121 914.5 c 128,-1,35
 85 941 85 941 64.5 980 c 128,-1,36
 44 1019 44 1019 44 1073 c 0,37,38
 44 1105 44 1105 51 1142.5 c 128,-1,39
 58 1180 58 1180 73 1225 c 0,40,41
 111 1335 111 1335 168.5 1383.5 c 128,-1,42
 226 1432 226 1432 292 1432 c 0,43,44
 321 1432 321 1432 360.5 1420.5 c 128,-1,45
 400 1409 400 1409 444 1390.5 c 128,-1,46
 488 1372 488 1372 535 1348.5 c 128,-1,47
 582 1325 582 1325 627 1301 c 0,48,49
 732 1244 732 1244 845 1171 c 1,50,51
 831 1250 831 1250 817 1331 c 0,52,53
 811 1365 811 1365 804 1403.5 c 128,-1,54
 797 1442 797 1442 789.5 1480.5 c 128,-1,55
 782 1519 782 1519 774 1557 c 128,-1,56
 766 1595 766 1595 759 1630 c 0,57,58
 753 1658 753 1658 749 1686.5 c 128,-1,59
 745 1715 745 1715 745 1741 c 0,60,61
 745 1789 745 1789 759 1831 c 128,-1,62
 773 1873 773 1873 806 1904 c 128,-1,63
 839 1935 839 1935 893 1952.5 c 128,-1,64
 947 1970 947 1970 1027 1970 c 256,65,66
 1107 1970 1107 1970 1161 1952.5 c 128,-1,67
 1215 1935 1215 1935 1248 1904 c 128,-1,68
 1281 1873 1281 1873 1295.5 1831 c 128,-1,69
 1310 1789 1310 1789 1310 1741 c 0,70,71
 1310 1715 1310 1715 1306 1686.5 c 128,-1,72
 1302 1658 1302 1658 1296 1630 c 0,73,74
 1288 1595 1288 1595 1280.5 1557 c 128,-1,75
 1273 1519 1273 1519 1265.5 1480.5 c 128,-1,76
 1258 1442 1258 1442 1251 1403.5 c 128,-1,77
 1244 1365 1244 1365 1238 1331 c 0,78,79
 1224 1250 1224 1250 1210 1171 c 1,80,81
 1322 1244 1322 1244 1427 1301 c 0,82,83
 1471 1325 1471 1325 1518 1348.5 c 128,-1,84
 1565 1372 1565 1372 1609.5 1390.5 c 128,-1,85
 1654 1409 1654 1409 1693.5 1420.5 c 128,-1,86
 1733 1432 1733 1432 1763 1432 c 0,87,88
 1829 1432 1829 1432 1885.5 1383.5 c 128,-1,89
 1942 1335 1942 1335 1981 1225 c 0,90,91
 1997 1180 1997 1180 2004 1142.5 c 128,-1,92
 2011 1105 2011 1105 2011 1073 c 0,93,94
 2011 1019 2011 1019 1990 980 c 128,-1,95
 1969 941 1969 941 1933 914.5 c 128,-1,96
 1897 888 1897 888 1849 872.5 c 128,-1,97
 1801 857 1801 857 1746 849 c 0,98,99
 1672 838 1672 838 1593 828.5 c 128,-1,100
 1514 819 1514 819 1448 812 c 0,101,102
 1371 803 1371 803 1298 797 c 0,103,104
 1298 796 1298 796 1314 781.5 c 128,-1,105
 1330 767 1330 767 1357 742 c 128,-1,106
 1384 717 1384 717 1419.5 685 c 128,-1,107
 1455 653 1455 653 1494 618 c 128,-1,108
 1533 583 1533 583 1574 547.5 c 128,-1,109
 1615 512 1615 512 1652 481 c 0,110,111
 1708 433 1708 433 1744.5 377 c 128,-1,112
 1781 321 1781 321 1781 262 c 0,113,114
 1781 233 1781 233 1766 199 c 128,-1,115
 1751 165 1751 165 1725 132 c 128,-1,116
 1699 99 1699 99 1665 68 c 128,-1,117
 1631 37 1631 37 1593 13 c 128,-1,118
 1555 -11 1555 -11 1515 -25 c 128,-1,119
 1475 -39 1475 -39 1439 -39 c 0,120,121
 1392 -39 1392 -39 1350.5 -11 c 128,-1,122
 1309 17 1309 17 1273 62 c 128,-1,123
 1237 107 1237 107 1206.5 165.5 c 128,-1,124
 1176 224 1176 224 1150.5 284 c 128,-1,125
 1125 344 1125 344 1105 402 c 128,-1,126
 1085 460 1085 460 1070.5 505 c 128,-1,127
 1056 550 1056 550 1046 577.5 c 128,-1,128
 1036 605 1036 605 1032 604 c 1,0,1
EndSplineSet
Validated: 1
EndChar

StartChar: plus
Encoding: 43 43 14
Width: 1330
Flags: W
HStem: 610 236<57.4401 504 822 1273.26>
VStem: 504 318<144.594 610 846 1313.78>
LayerCount: 2
Fore
SplineSet
664 104 m 256,0,1
 616 104 616 104 585 119.5 c 128,-1,2
 554 135 554 135 536 158.5 c 128,-1,3
 518 182 518 182 511 209 c 128,-1,4
 504 236 504 236 504 260 c 2,5,-1
 504 610 l 1,6,-1
 167 610 l 2,7,8
 145 610 145 610 122.5 613 c 128,-1,9
 100 616 100 616 82 628 c 128,-1,10
 64 640 64 640 52.5 663 c 128,-1,11
 41 686 41 686 41 727 c 256,12,13
 41 768 41 768 52.5 792 c 128,-1,14
 64 816 64 816 82 828 c 128,-1,15
 100 840 100 840 122.5 843 c 128,-1,16
 145 846 145 846 167 846 c 2,17,-1
 504 846 l 1,18,-1
 504 1196 l 2,19,20
 504 1222 504 1222 511 1250 c 128,-1,21
 518 1278 518 1278 536 1300.5 c 128,-1,22
 554 1323 554 1323 585 1337.5 c 128,-1,23
 616 1352 616 1352 664 1352 c 256,24,25
 712 1352 712 1352 742.5 1337.5 c 128,-1,26
 773 1323 773 1323 790.5 1300.5 c 128,-1,27
 808 1278 808 1278 815 1250 c 128,-1,28
 822 1222 822 1222 822 1196 c 2,29,-1
 822 846 l 1,30,-1
 1164 846 l 2,31,32
 1187 846 1187 846 1209.5 843 c 128,-1,33
 1232 840 1232 840 1249.5 828 c 128,-1,34
 1267 816 1267 816 1278 792 c 128,-1,35
 1289 768 1289 768 1289 727 c 256,36,37
 1289 686 1289 686 1278 663 c 128,-1,38
 1267 640 1267 640 1249.5 628 c 128,-1,39
 1232 616 1232 616 1209.5 613 c 128,-1,40
 1187 610 1187 610 1164 610 c 2,41,-1
 822 610 l 1,42,-1
 822 260 l 2,43,44
 822 236 822 236 815 209 c 128,-1,45
 808 182 808 182 790.5 158.5 c 128,-1,46
 773 135 773 135 742.5 119.5 c 128,-1,47
 712 104 712 104 664 104 c 256,0,1
EndSplineSet
Validated: 1
EndChar

StartChar: comma
Encoding: 44 44 15
Width: 735
Flags: W
LayerCount: 2
Fore
SplineSet
309 -10 m 1,0,1
 241 -10 241 -10 190.5 8.5 c 128,-1,2
 140 27 140 27 107 57 c 128,-1,3
 74 87 74 87 57.5 126 c 128,-1,4
 41 165 41 165 41 207 c 0,5,6
 41 255 41 255 62.5 303 c 128,-1,7
 84 351 84 351 125 389.5 c 128,-1,8
 166 428 166 428 227 451.5 c 128,-1,9
 288 475 288 475 367 475 c 0,10,11
 450 475 450 475 510 448 c 128,-1,12
 570 421 570 421 609 375 c 128,-1,13
 648 329 648 329 667 268.5 c 128,-1,14
 686 208 686 208 686 141 c 0,15,16
 686 52 686 52 654.5 -39 c 128,-1,17
 623 -130 623 -130 564 -204 c 128,-1,18
 505 -278 505 -278 419 -324.5 c 128,-1,19
 333 -371 333 -371 225 -371 c 0,20,21
 199 -371 199 -371 180.5 -354 c 128,-1,22
 162 -337 162 -337 162 -315 c 0,23,24
 162 -289 162 -289 173 -272.5 c 128,-1,25
 184 -256 184 -256 200 -242 c 128,-1,26
 216 -228 216 -228 235.5 -212 c 128,-1,27
 255 -196 255 -196 271 -171 c 128,-1,28
 287 -146 287 -146 298 -108 c 128,-1,29
 309 -70 309 -70 309 -10 c 1,0,1
EndSplineSet
Validated: 1
EndChar

StartChar: hyphen
Encoding: 45 45 16
Width: 1267
Flags: W
HStem: 446 342<99 1170.22>
VStem: 52 1163<492.515 741.485>
LayerCount: 2
Fore
SplineSet
52 617 m 256,0,1
 52 669 52 669 69 702 c 128,-1,2
 86 735 86 735 111 754 c 128,-1,3
 136 773 136 773 165.5 780.5 c 128,-1,4
 195 788 195 788 221 788 c 2,5,-1
 1047 788 l 2,6,7
 1075 788 1075 788 1104.5 780.5 c 128,-1,8
 1134 773 1134 773 1158.5 754 c 128,-1,9
 1183 735 1183 735 1199 702 c 128,-1,10
 1215 669 1215 669 1215 617 c 256,11,12
 1215 565 1215 565 1199 532 c 128,-1,13
 1183 499 1183 499 1158.5 480 c 128,-1,14
 1134 461 1134 461 1104.5 453.5 c 128,-1,15
 1075 446 1075 446 1047 446 c 2,16,-1
 221 446 l 2,17,18
 195 446 195 446 165.5 453.5 c 128,-1,19
 136 461 136 461 111 480 c 128,-1,20
 86 499 86 499 69 532 c 128,-1,21
 52 565 52 565 52 617 c 256,0,1
EndSplineSet
Validated: 1
EndChar

StartChar: period
Encoding: 46 46 17
Width: 736
Flags: W
HStem: -20 495<176.391 561.234>
VStem: 42 651<94.8623 359.412>
LayerCount: 2
Fore
SplineSet
42 227 m 256,0,1
 42 277 42 277 59.5 314.5 c 128,-1,2
 77 352 77 352 104.5 379.5 c 128,-1,3
 132 407 132 407 167.5 425.5 c 128,-1,4
 203 444 203 444 239.5 455 c 128,-1,5
 276 466 276 466 309.5 470.5 c 128,-1,6
 343 475 343 475 368 475 c 0,7,8
 394 475 394 475 428.5 470.5 c 128,-1,9
 463 466 463 466 499 455 c 128,-1,10
 535 444 535 444 570 425.5 c 128,-1,11
 605 407 605 407 632.5 379.5 c 128,-1,12
 660 352 660 352 676.5 314.5 c 128,-1,13
 693 277 693 277 693 227 c 0,14,15
 693 178 693 178 676.5 140 c 128,-1,16
 660 102 660 102 632.5 75 c 128,-1,17
 605 48 605 48 570 29.5 c 128,-1,18
 535 11 535 11 499 0 c 128,-1,19
 463 -11 463 -11 428.5 -15.5 c 128,-1,20
 394 -20 394 -20 368 -20 c 0,21,22
 343 -20 343 -20 309.5 -15.5 c 128,-1,23
 276 -11 276 -11 239.5 0 c 128,-1,24
 203 11 203 11 167.5 29.5 c 128,-1,25
 132 48 132 48 104.5 75 c 128,-1,26
 77 102 77 102 59.5 139.5 c 128,-1,27
 42 177 42 177 42 227 c 256,0,1
EndSplineSet
Validated: 1
EndChar

StartChar: slash
Encoding: 47 47 18
Width: 1034
Flags: W
LayerCount: 2
Fore
SplineSet
205 -115 m 0,0,1
 157 -103 157 -103 125 -83 c 128,-1,2
 93 -63 93 -63 74 -38.5 c 128,-1,3
 55 -14 55 -14 47 14 c 128,-1,4
 39 42 39 42 39 70 c 0,5,6
 39 110 39 110 51 143 c 1,7,8
 56 160 56 160 72.5 215 c 128,-1,9
 89 270 89 270 113.5 352 c 128,-1,10
 138 434 138 434 169 538 c 128,-1,11
 200 642 200 642 234 757 c 128,-1,12
 268 872 268 872 304 992.5 c 128,-1,13
 340 1113 340 1113 374 1227 c 128,-1,14
 408 1341 408 1341 439 1444 c 128,-1,15
 470 1547 470 1547 494 1628 c 128,-1,16
 518 1709 518 1709 533.5 1762 c 128,-1,17
 549 1815 549 1815 553 1829 c 0,18,19
 562 1858 562 1858 577.5 1888 c 128,-1,20
 593 1918 593 1918 618.5 1942 c 128,-1,21
 644 1966 644 1966 679 1981.5 c 128,-1,22
 714 1997 714 1997 762 1997 c 0,23,24
 830 1997 830 1997 875.5 1978.5 c 128,-1,25
 921 1960 921 1960 948 1932 c 128,-1,26
 975 1904 975 1904 986 1870.5 c 128,-1,27
 997 1837 997 1837 997 1808 c 0,28,29
 997 1788 997 1788 993 1768.5 c 128,-1,30
 989 1749 989 1749 984 1731 c 0,31,32
 980 1717 980 1717 964 1664 c 128,-1,33
 948 1611 948 1611 924 1530 c 128,-1,34
 900 1449 900 1449 869.5 1346 c 128,-1,35
 839 1243 839 1243 804.5 1128.5 c 128,-1,36
 770 1014 770 1014 734.5 894 c 128,-1,37
 699 774 699 774 664.5 659 c 128,-1,38
 630 544 630 544 599 440 c 128,-1,39
 568 336 568 336 543.5 254 c 128,-1,40
 519 172 519 172 503 117 c 128,-1,41
 487 62 487 62 482 45 c 0,42,43
 474 18 474 18 458 -11.5 c 128,-1,44
 442 -41 442 -41 416 -66 c 128,-1,45
 390 -91 390 -91 354 -107 c 128,-1,46
 318 -123 318 -123 270 -123 c 0,47,48
 255 -123 255 -123 238.5 -121.5 c 128,-1,49
 222 -120 222 -120 205 -115 c 0,0,1
EndSplineSet
Validated: 1
EndChar

StartChar: zero
Encoding: 48 48 19
Width: 1671
Flags: W
HStem: -25 254<801.459 928.832> 1366 252<738.243 869.425>
VStem: 68 604<479.322 1078.62> 998 606<527.725 1124.37>
LayerCount: 2
Fore
SplineSet
1604 850 m 0,0,1
 1604 703 1604 703 1574 581 c 128,-1,2
 1544 459 1544 459 1490.5 362 c 128,-1,3
 1437 265 1437 265 1363 192 c 128,-1,4
 1289 119 1289 119 1200.5 71 c 128,-1,5
 1112 23 1112 23 1013 -1 c 128,-1,6
 914 -25 914 -25 811 -25 c 0,7,8
 712 -25 712 -25 618 -3 c 128,-1,9
 524 19 524 19 441.5 63 c 128,-1,10
 359 107 359 107 290.5 173 c 128,-1,11
 222 239 222 239 172.5 326 c 128,-1,12
 123 413 123 413 95.5 522 c 128,-1,13
 68 631 68 631 68 762 c 0,14,15
 68 905 68 905 97.5 1024 c 128,-1,16
 127 1143 127 1143 180.5 1238.5 c 128,-1,17
 234 1334 234 1334 307.5 1405 c 128,-1,18
 381 1476 381 1476 468.5 1523.5 c 128,-1,19
 556 1571 556 1571 654.5 1594.5 c 128,-1,20
 753 1618 753 1618 856 1618 c 0,21,22
 955 1618 955 1618 1049.5 1596.5 c 128,-1,23
 1144 1575 1144 1575 1227 1531.5 c 128,-1,24
 1310 1488 1310 1488 1379.5 1423.5 c 128,-1,25
 1449 1359 1449 1359 1498.5 1274 c 128,-1,26
 1548 1189 1548 1189 1576 1082.5 c 128,-1,27
 1604 976 1604 976 1604 850 c 0,0,1
672 911 m 0,28,29
 672 753 672 753 689.5 626.5 c 128,-1,30
 707 500 707 500 735.5 411.5 c 128,-1,31
 764 323 764 323 799 276 c 128,-1,32
 834 229 834 229 869 229 c 0,33,34
 894 229 894 229 917.5 257.5 c 128,-1,35
 941 286 941 286 959 345.5 c 128,-1,36
 977 405 977 405 987.5 497 c 128,-1,37
 998 589 998 589 998 717 c 0,38,39
 998 867 998 867 980 987.5 c 128,-1,40
 962 1108 962 1108 934 1192 c 128,-1,41
 906 1276 906 1276 870.5 1321 c 128,-1,42
 835 1366 835 1366 801 1366 c 0,43,44
 775 1366 775 1366 751.5 1339.5 c 128,-1,45
 728 1313 728 1313 710.5 1257 c 128,-1,46
 693 1201 693 1201 682.5 1115 c 128,-1,47
 672 1029 672 1029 672 911 c 0,28,29
EndSplineSet
Validated: 1
Substitution2: "'onum' Oldstyle Figures in Latin lookup 2 subtable" zero.old
Substitution2: "'aalt' Access All Alternates in Latin lookup 0 subtable" zero.old
EndChar

StartChar: one
Encoding: 49 49 20
Width: 1129
Flags: W
HStem: 0 21G<500 681> 1571 20G<737.5 795.5>
VStem: 227 672<314.111 1158.78>
LayerCount: 2
Fore
SplineSet
899 424 m 2,0,1
 899 379 899 379 911 354 c 128,-1,2
 923 329 923 329 941 316 c 128,-1,3
 959 303 959 303 980 298 c 128,-1,4
 1001 293 1001 293 1019 287 c 128,-1,5
 1037 281 1037 281 1049 270.5 c 128,-1,6
 1061 260 1061 260 1061 236 c 0,7,8
 1061 111 1061 111 932 55.5 c 128,-1,9
 803 0 803 0 559 0 c 0,10,11
 441 0 441 0 349.5 13.5 c 128,-1,12
 258 27 258 27 195.5 55.5 c 128,-1,13
 133 84 133 84 100.5 129 c 128,-1,14
 68 174 68 174 68 236 c 0,15,16
 68 260 68 260 80 270.5 c 128,-1,17
 92 281 92 281 109.5 286.5 c 128,-1,18
 127 292 127 292 147.5 297 c 128,-1,19
 168 302 168 302 185.5 314.5 c 128,-1,20
 203 327 203 327 215 351 c 128,-1,21
 227 375 227 375 227 420 c 2,22,-1
 227 1051 l 2,23,24
 227 1095 227 1095 215 1119.5 c 128,-1,25
 203 1144 203 1144 185.5 1156.5 c 128,-1,26
 168 1169 168 1169 147.5 1174 c 128,-1,27
 127 1179 127 1179 109.5 1184.5 c 128,-1,28
 92 1190 92 1190 80 1200.5 c 128,-1,29
 68 1211 68 1211 68 1235 c 0,30,31
 68 1299 68 1299 101 1350 c 128,-1,32
 134 1401 134 1401 189.5 1440.5 c 128,-1,33
 245 1480 245 1480 317 1508.5 c 128,-1,34
 389 1537 389 1537 467.5 1555.5 c 128,-1,35
 546 1574 546 1574 624.5 1582.5 c 128,-1,36
 703 1591 703 1591 772 1591 c 0,37,38
 819 1591 819 1591 845 1574.5 c 128,-1,39
 871 1558 871 1558 883.5 1526 c 128,-1,40
 896 1494 896 1494 898.5 1446.5 c 128,-1,41
 901 1399 901 1399 901 1338 c 2,42,-1
 899 424 l 2,0,1
EndSplineSet
Validated: 1
Substitution2: "'onum' Oldstyle Figures in Latin lookup 2 subtable" one.old
Substitution2: "'aalt' Access All Alternates in Latin lookup 0 subtable" one.old
EndChar

StartChar: two
Encoding: 50 50 21
Width: 1269
Flags: W
HStem: 0 317<508 923.537> 1339 279<352.941 696.5>
VStem: 600 549<1038.88 1303.04>
LayerCount: 2
Fore
SplineSet
72 225 m 0,0,1
 117 300 117 300 174 387.5 c 128,-1,2
 231 475 231 475 289.5 567 c 128,-1,3
 348 659 348 659 404 751.5 c 128,-1,4
 460 844 460 844 503.5 928.5 c 128,-1,5
 547 1013 547 1013 573.5 1085.5 c 128,-1,6
 600 1158 600 1158 600 1210 c 0,7,8
 600 1270 600 1270 554.5 1304.5 c 128,-1,9
 509 1339 509 1339 400 1339 c 0,10,11
 319 1339 319 1339 252 1320.5 c 128,-1,12
 185 1302 185 1302 131 1274 c 1,13,14
 118 1264 118 1264 99 1264 c 0,15,16
 87 1264 87 1264 75.5 1273 c 128,-1,17
 64 1282 64 1282 55.5 1295.5 c 128,-1,18
 47 1309 47 1309 42 1324.5 c 128,-1,19
 37 1340 37 1340 37 1354 c 0,20,21
 37 1363 37 1363 40.5 1370.5 c 128,-1,22
 44 1378 44 1378 49 1384 c 0,23,24
 98 1440 98 1440 164.5 1483.5 c 128,-1,25
 231 1527 231 1527 307 1557 c 128,-1,26
 383 1587 383 1587 466 1602.5 c 128,-1,27
 549 1618 549 1618 633 1618 c 0,28,29
 760 1618 760 1618 856.5 1586 c 128,-1,30
 953 1554 953 1554 1018 1497.5 c 128,-1,31
 1083 1441 1083 1441 1116 1363 c 128,-1,32
 1149 1285 1149 1285 1149 1194 c 0,33,34
 1149 1095 1149 1095 1110 984 c 128,-1,35
 1071 873 1071 873 991.5 759 c 128,-1,36
 912 645 912 645 791.5 532 c 128,-1,37
 671 419 671 419 508 317 c 1,38,39
 651 317 651 317 746 328 c 128,-1,40
 841 339 841 339 900.5 355 c 128,-1,41
 960 371 960 371 992 390 c 128,-1,42
 1024 409 1024 409 1041 425 c 128,-1,43
 1058 441 1058 441 1067 452 c 128,-1,44
 1076 463 1076 463 1090 463 c 0,45,46
 1141 463 1141 463 1175 430.5 c 128,-1,47
 1209 398 1209 398 1209 342 c 0,48,49
 1209 314 1209 314 1205 277.5 c 128,-1,50
 1201 241 1201 241 1190.5 203 c 128,-1,51
 1180 165 1180 165 1162.5 128.5 c 128,-1,52
 1145 92 1145 92 1118 63.5 c 128,-1,53
 1091 35 1091 35 1054 17.5 c 128,-1,54
 1017 0 1017 0 967 0 c 2,55,-1
 185 0 l 2,56,57
 149 0 149 0 123 12.5 c 128,-1,58
 97 25 97 25 80.5 45 c 128,-1,59
 64 65 64 65 56.5 90 c 128,-1,60
 49 115 49 115 49 141 c 0,61,62
 49 164 49 164 55 186 c 128,-1,63
 61 208 61 208 72 225 c 0,0,1
EndSplineSet
Validated: 1
Substitution2: "'onum' Oldstyle Figures in Latin lookup 2 subtable" two.old
Substitution2: "'aalt' Access All Alternates in Latin lookup 0 subtable" two.old
EndChar

StartChar: three
Encoding: 51 51 22
Width: 1301
Flags: W
HStem: -23 281<387.438 743.5> 1327 293<309.544 625.5>
VStem: 707 546<352.572 615.483>
LayerCount: 2
Fore
SplineSet
674 -23 m 0,0,1
 589 -23 589 -23 504 -7.5 c 128,-1,2
 419 8 419 8 341.5 38 c 128,-1,3
 264 68 264 68 197 112 c 128,-1,4
 130 156 130 156 80 213 c 1,5,6
 75 221 75 221 71.5 227.5 c 128,-1,7
 68 234 68 234 68 244 c 0,8,9
 68 258 68 258 73 274 c 128,-1,10
 78 290 78 290 86.5 304 c 128,-1,11
 95 318 95 318 106.5 327 c 128,-1,12
 118 336 118 336 131 336 c 0,13,14
 151 336 151 336 164 328 c 0,15,16
 220 297 220 297 298 277.5 c 128,-1,17
 376 258 376 258 457 258 c 0,18,19
 519 258 519 258 566 278 c 128,-1,20
 613 298 613 298 644.5 330.5 c 128,-1,21
 676 363 676 363 691.5 404.5 c 128,-1,22
 707 446 707 446 707 489 c 0,23,24
 707 526 707 526 693.5 562 c 128,-1,25
 680 598 680 598 653.5 626 c 128,-1,26
 627 654 627 654 588.5 671 c 128,-1,27
 550 688 550 688 500 688 c 0,28,29
 478 688 478 688 452 679 c 128,-1,30
 426 670 426 670 406 670 c 0,31,32
 389 670 389 670 374 679.5 c 128,-1,33
 359 689 359 689 348 704 c 128,-1,34
 337 719 337 719 330.5 736.5 c 128,-1,35
 324 754 324 754 324 770 c 0,36,37
 324 790 324 790 334 805.5 c 128,-1,38
 344 821 344 821 367 840 c 1,39,40
 418 874 418 874 454 910.5 c 128,-1,41
 490 947 490 947 513 984.5 c 128,-1,42
 536 1022 536 1022 546.5 1058.5 c 128,-1,43
 557 1095 557 1095 557 1130 c 0,44,45
 557 1172 557 1172 542 1208.5 c 128,-1,46
 527 1245 527 1245 500 1271 c 128,-1,47
 473 1297 473 1297 435 1312 c 128,-1,48
 397 1327 397 1327 350 1327 c 0,49,50
 296 1327 296 1327 236 1306 c 128,-1,51
 176 1285 176 1285 113 1237 c 1,52,53
 102 1231 102 1231 93 1229 c 128,-1,54
 84 1227 84 1227 76 1227 c 0,55,56
 45 1227 45 1227 34 1248.5 c 128,-1,57
 23 1270 23 1270 23 1294 c 0,58,59
 23 1304 23 1304 24 1313.5 c 128,-1,60
 25 1323 25 1323 27 1329 c 0,61,62
 53 1401 53 1401 109 1455 c 128,-1,63
 165 1509 165 1509 240 1546 c 128,-1,64
 315 1583 315 1583 402 1601.5 c 128,-1,65
 489 1620 489 1620 578 1620 c 0,66,67
 673 1620 673 1620 762.5 1598.5 c 128,-1,68
 852 1577 852 1577 921 1533 c 128,-1,69
 990 1489 990 1489 1031.5 1423 c 128,-1,70
 1073 1357 1073 1357 1073 1268 c 0,71,72
 1073 1222 1073 1222 1062.5 1175.5 c 128,-1,73
 1052 1129 1052 1129 1024.5 1084.5 c 128,-1,74
 997 1040 997 1040 949.5 1000 c 128,-1,75
 902 960 902 960 827 926 c 1,76,77
 936 897 936 897 1016.5 847.5 c 128,-1,78
 1097 798 1097 798 1149.5 735.5 c 128,-1,79
 1202 673 1202 673 1227.5 601.5 c 128,-1,80
 1253 530 1253 530 1253 457 c 0,81,82
 1253 366 1253 366 1214.5 280 c 128,-1,83
 1176 194 1176 194 1102.5 126.5 c 128,-1,84
 1029 59 1029 59 921 18 c 128,-1,85
 813 -23 813 -23 674 -23 c 0,0,1
EndSplineSet
Validated: 1
Substitution2: "'onum' Oldstyle Figures in Latin lookup 2 subtable" three.old
Substitution2: "'aalt' Access All Alternates in Latin lookup 0 subtable" three.old
EndChar

StartChar: four
Encoding: 52 52 23
Width: 1502
Flags: W
HStem: 0 21G<886.5 967.5> 424 348<350 649 1212 1448.63> 1598 20G<634.725 732.5>
VStem: 649 563<286.746 424 772 1221>
LayerCount: 2
Fore
SplineSet
1212 772 m 1,0,-1
 1220 772 l 2,1,2
 1288 772 1288 772 1338 769 c 128,-1,3
 1388 766 1388 766 1420.5 749 c 128,-1,4
 1453 732 1453 732 1468.5 695 c 128,-1,5
 1484 658 1484 658 1484 590 c 0,6,7
 1484 528 1484 528 1468 494 c 128,-1,8
 1452 460 1452 460 1419.5 444.5 c 128,-1,9
 1387 429 1387 429 1337 426.5 c 128,-1,10
 1287 424 1287 424 1220 424 c 2,11,-1
 1212 424 l 1,12,-1
 1212 391 l 2,13,14
 1212 349 1212 349 1223 326 c 128,-1,15
 1234 303 1234 303 1250.5 291 c 128,-1,16
 1267 279 1267 279 1286.5 274 c 128,-1,17
 1306 269 1306 269 1322.5 264 c 128,-1,18
 1339 259 1339 259 1350 249 c 128,-1,19
 1361 239 1361 239 1361 217 c 0,20,21
 1361 163 1361 163 1323.5 122 c 128,-1,22
 1286 81 1286 81 1225 54 c 128,-1,23
 1164 27 1164 27 1086 13.5 c 128,-1,24
 1008 0 1008 0 927 0 c 256,25,26
 846 0 846 0 769.5 13 c 128,-1,27
 693 26 693 26 633.5 53 c 128,-1,28
 574 80 574 80 537.5 121 c 128,-1,29
 501 162 501 162 501 217 c 0,30,31
 501 239 501 239 512 249 c 128,-1,32
 523 259 523 259 539.5 264 c 128,-1,33
 556 269 556 269 575 273.5 c 128,-1,34
 594 278 594 278 610.5 289.5 c 128,-1,35
 627 301 627 301 638 323.5 c 128,-1,36
 649 346 649 346 649 387 c 2,37,-1
 649 424 l 1,38,-1
 319 424 l 2,39,40
 233 424 233 424 174.5 427.5 c 128,-1,41
 116 431 116 431 80 443 c 128,-1,42
 44 455 44 455 28 478.5 c 128,-1,43
 12 502 12 502 12 543 c 0,44,45
 12 554 12 554 11.5 567 c 128,-1,46
 11 580 11 580 11 595 c 0,47,48
 11 617 11 617 13 643 c 128,-1,49
 15 669 15 669 21.5 696.5 c 128,-1,50
 28 724 28 724 40 753 c 128,-1,51
 52 782 52 782 73 811 c 2,52,-1
 649 1618 l 1,53,54
 816 1618 816 1618 925 1601.5 c 128,-1,55
 1034 1585 1034 1585 1098.5 1548 c 128,-1,56
 1163 1511 1163 1511 1188.5 1452 c 128,-1,57
 1214 1393 1214 1393 1214 1309 c 2,58,-1
 1212 772 l 1,0,-1
649 1221 m 1,59,60
 598 1150 598 1150 546 1071.5 c 128,-1,61
 494 993 494 993 450 926 c 0,62,63
 399 848 399 848 350 772 c 1,64,-1
 649 772 l 1,65,-1
 649 1221 l 1,59,60
EndSplineSet
Validated: 1
Substitution2: "'onum' Oldstyle Figures in Latin lookup 2 subtable" four.old
Substitution2: "'aalt' Access All Alternates in Latin lookup 0 subtable" four.old
EndChar

StartChar: five
Encoding: 53 53 24
Width: 1254
Flags: W
HStem: -23 279<316.849 634> 1272 321<415 925.559>
VStem: 655 522<354.192 597.869>
LayerCount: 2
Fore
SplineSet
306 1593 m 1,0,-1
 507 1593 l 2,1,2
 650 1593 650 1593 744.5 1603.5 c 128,-1,3
 839 1614 839 1614 899 1630 c 128,-1,4
 959 1646 959 1646 990.5 1664 c 128,-1,5
 1022 1682 1022 1682 1039 1698 c 128,-1,6
 1056 1714 1056 1714 1065 1724.5 c 128,-1,7
 1074 1735 1074 1735 1089 1735 c 0,8,9
 1140 1735 1140 1735 1174 1702.5 c 128,-1,10
 1208 1670 1208 1670 1208 1614 c 0,11,12
 1208 1586 1208 1586 1204 1549.5 c 128,-1,13
 1200 1513 1200 1513 1189.5 1475 c 128,-1,14
 1179 1437 1179 1437 1161.5 1400.5 c 128,-1,15
 1144 1364 1144 1364 1117 1335.5 c 128,-1,16
 1090 1307 1090 1307 1053 1289.5 c 128,-1,17
 1016 1272 1016 1272 966 1272 c 2,18,-1
 415 1272 l 1,19,-1
 372 1079 l 1,20,21
 397 1081 397 1081 421 1081 c 128,-1,22
 445 1081 445 1081 468 1081 c 0,23,24
 654 1081 654 1081 788 1031 c 128,-1,25
 922 981 922 981 1008.5 899.5 c 128,-1,26
 1095 818 1095 818 1136 715 c 128,-1,27
 1177 612 1177 612 1177 506 c 0,28,29
 1177 413 1177 413 1154.5 337.5 c 128,-1,30
 1132 262 1132 262 1092.5 203 c 128,-1,31
 1053 144 1053 144 998.5 101.5 c 128,-1,32
 944 59 944 59 879.5 31.5 c 128,-1,33
 815 4 815 4 743 -9.5 c 128,-1,34
 671 -23 671 -23 597 -23 c 0,35,36
 513 -23 513 -23 430.5 -7.5 c 128,-1,37
 348 8 348 8 272 38 c 128,-1,38
 196 68 196 68 130.5 111.5 c 128,-1,39
 65 155 65 155 16 211 c 1,40,41
 1 224 1 224 1 242 c 0,42,43
 1 255 1 255 6 270.5 c 128,-1,44
 11 286 11 286 19.5 299.5 c 128,-1,45
 28 313 28 313 39.5 322.5 c 128,-1,46
 51 332 51 332 63 332 c 0,47,48
 72 332 72 332 80 329.5 c 128,-1,49
 88 327 88 327 98 322 c 0,50,51
 124 308 124 308 157.5 296 c 128,-1,52
 191 284 191 284 228.5 275 c 128,-1,53
 266 266 266 266 306 261 c 128,-1,54
 346 256 346 256 386 256 c 0,55,56
 444 256 444 256 493.5 274 c 128,-1,57
 543 292 543 292 579 322.5 c 128,-1,58
 615 353 615 353 635 392.5 c 128,-1,59
 655 432 655 432 655 475 c 0,60,61
 655 523 655 523 627 573 c 128,-1,62
 599 623 599 623 536.5 666 c 128,-1,63
 474 709 474 709 374 740.5 c 128,-1,64
 274 772 274 772 130 784 c 1,65,-1
 306 1593 l 1,0,-1
EndSplineSet
Validated: 1
Substitution2: "'onum' Oldstyle Figures in Latin lookup 2 subtable" five.old
Substitution2: "'aalt' Access All Alternates in Latin lookup 0 subtable" five.old
EndChar

StartChar: six
Encoding: 54 54 25
Width: 1554
Flags: W
HStem: -25 267<690.658 868.588>
VStem: 34 586<393.389 811.558> 927 598<346.545 707.758>
LayerCount: 2
Fore
SplineSet
759 815 m 0,0,1
 705 815 705 815 677.5 813.5 c 128,-1,2
 650 812 650 812 637 810 c 0,3,4
 622 807 622 807 620 805 c 1,5,6
 620 631 620 631 628 521.5 c 128,-1,7
 636 412 636 412 653.5 350 c 128,-1,8
 671 288 671 288 700 265 c 128,-1,9
 729 242 729 242 771 242 c 256,10,11
 813 242 813 242 842.5 262 c 128,-1,12
 872 282 872 282 890.5 316 c 128,-1,13
 909 350 909 350 918 395 c 128,-1,14
 927 440 927 440 927 489 c 0,15,16
 927 547 927 547 915 605 c 128,-1,17
 903 663 903 663 881.5 709.5 c 128,-1,18
 860 756 860 756 829 785.5 c 128,-1,19
 798 815 798 815 759 815 c 0,0,1
1214 1642 m 0,20,21
 1242 1642 1242 1642 1263 1632 c 128,-1,22
 1284 1622 1284 1622 1298 1606.5 c 128,-1,23
 1312 1591 1312 1591 1319 1571 c 128,-1,24
 1326 1551 1326 1551 1326 1530 c 0,25,26
 1326 1495 1326 1495 1308 1463 c 128,-1,27
 1290 1431 1290 1431 1253 1415 c 1,28,29
 1228 1406 1228 1406 1181 1395 c 128,-1,30
 1134 1384 1134 1384 1076 1366 c 128,-1,31
 1018 1348 1018 1348 954.5 1321.5 c 128,-1,32
 891 1295 891 1295 833.5 1254 c 128,-1,33
 776 1213 776 1213 729 1155 c 128,-1,34
 682 1097 682 1097 657 1018 c 1,35,36
 742 1061 742 1061 823.5 1080.5 c 128,-1,37
 905 1100 905 1100 982 1100 c 0,38,39
 1111 1100 1111 1100 1212 1055 c 128,-1,40
 1313 1010 1313 1010 1382.5 935.5 c 128,-1,41
 1452 861 1452 861 1488.5 765 c 128,-1,42
 1525 669 1525 669 1525 567 c 0,43,44
 1525 494 1525 494 1506 421.5 c 128,-1,45
 1487 349 1487 349 1448 283.5 c 128,-1,46
 1409 218 1409 218 1349 161.5 c 128,-1,47
 1289 105 1289 105 1207.5 63.5 c 128,-1,48
 1126 22 1126 22 1021.5 -1.5 c 128,-1,49
 917 -25 917 -25 790 -25 c 0,50,51
 598 -25 598 -25 456 29.5 c 128,-1,52
 314 84 314 84 220 176 c 128,-1,53
 126 268 126 268 80 389 c 128,-1,54
 34 510 34 510 34 643 c 0,55,56
 34 759 34 759 68 878.5 c 128,-1,57
 102 998 102 998 169 1109 c 128,-1,58
 236 1220 236 1220 336 1317 c 128,-1,59
 436 1414 436 1414 567 1486.5 c 128,-1,60
 698 1559 698 1559 860 1600.5 c 128,-1,61
 1022 1642 1022 1642 1214 1642 c 0,20,21
EndSplineSet
Validated: 1
Substitution2: "'onum' Oldstyle Figures in Latin lookup 2 subtable" six.old
Substitution2: "'aalt' Access All Alternates in Latin lookup 0 subtable" six.old
EndChar

StartChar: seven
Encoding: 55 55 26
Width: 1258
Flags: W
HStem: 1274 317<290.801 745>
LayerCount: 2
Fore
SplineSet
706 1274 m 1,0,1
 563 1274 563 1274 468.5 1263 c 128,-1,2
 374 1252 374 1252 314 1236 c 128,-1,3
 254 1220 254 1220 222.5 1201 c 128,-1,4
 191 1182 191 1182 174 1166 c 128,-1,5
 157 1150 157 1150 148 1139 c 128,-1,6
 139 1128 139 1128 125 1128 c 0,7,8
 74 1128 74 1128 40 1161 c 128,-1,9
 6 1194 6 1194 6 1249 c 0,10,11
 6 1277 6 1277 10 1313.5 c 128,-1,12
 14 1350 14 1350 24.5 1388 c 128,-1,13
 35 1426 35 1426 52.5 1462.5 c 128,-1,14
 70 1499 70 1499 97 1527.5 c 128,-1,15
 124 1556 124 1556 161 1573.5 c 128,-1,16
 198 1591 198 1591 248 1591 c 2,17,-1
 1003 1591 l 2,18,19
 1136 1591 1136 1591 1195.5 1554 c 128,-1,20
 1255 1517 1255 1517 1255 1430 c 0,21,22
 1255 1405 1255 1405 1251.5 1379.5 c 128,-1,23
 1248 1354 1248 1354 1240.5 1324 c 128,-1,24
 1233 1294 1233 1294 1220.5 1256.5 c 128,-1,25
 1208 1219 1208 1219 1190 1171 c 2,26,-1
 735 -23 l 2,27,28
 719 -65 719 -65 707.5 -98.5 c 128,-1,29
 696 -132 696 -132 676 -155 c 128,-1,30
 656 -178 656 -178 621 -190.5 c 128,-1,31
 586 -203 586 -203 522 -203 c 0,32,33
 465 -203 465 -203 406.5 -185 c 128,-1,34
 348 -167 348 -167 300.5 -137 c 128,-1,35
 253 -107 253 -107 223 -66.5 c 128,-1,36
 193 -26 193 -26 193 19 c 0,37,38
 193 45 193 45 205 72 c 2,39,-1
 745 1276 l 1,40,-1
 706 1274 l 1,0,1
EndSplineSet
Validated: 1
Substitution2: "'onum' Oldstyle Figures in Latin lookup 2 subtable" seven.old
Substitution2: "'aalt' Access All Alternates in Latin lookup 0 subtable" seven.old
EndChar

StartChar: eight
Encoding: 56 56 27
Width: 1526
Flags: W
HStem: -23 289<508.655 840.542> 1370 248<616.398 940.488>
VStem: 68 392<314.459 519.453> 99 496<1085 1329.71> 916 553<333.949 488.815> 990 328<1152.9 1336.34>
LayerCount: 2
Fore
SplineSet
990 1257 m 0,0,1
 990 1308 990 1308 942 1339 c 128,-1,2
 894 1370 894 1370 795 1370 c 0,3,4
 726 1370 726 1370 686 1360 c 128,-1,5
 646 1350 646 1350 626 1334 c 128,-1,6
 606 1318 606 1318 600.5 1297.5 c 128,-1,7
 595 1277 595 1277 595 1257 c 0,8,9
 595 1208 595 1208 632.5 1171.5 c 128,-1,10
 670 1135 670 1135 731.5 1104 c 128,-1,11
 793 1073 793 1073 871.5 1043.5 c 128,-1,12
 950 1014 950 1014 1032 979 c 128,-1,13
 1114 944 1114 944 1192.5 900 c 128,-1,14
 1271 856 1271 856 1332.5 795.5 c 128,-1,15
 1394 735 1394 735 1431.5 654 c 128,-1,16
 1469 573 1469 573 1469 465 c 0,17,18
 1469 340 1469 340 1417.5 248 c 128,-1,19
 1366 156 1366 156 1269 96 c 128,-1,20
 1172 36 1172 36 1033 6.5 c 128,-1,21
 894 -23 894 -23 720 -23 c 0,22,23
 637 -23 637 -23 556 -11.5 c 128,-1,24
 475 0 475 0 402.5 23.5 c 128,-1,25
 330 47 330 47 268.5 82 c 128,-1,26
 207 117 207 117 162.5 164 c 128,-1,27
 118 211 118 211 93 269.5 c 128,-1,28
 68 328 68 328 68 399 c 0,29,30
 68 476 68 476 104.5 549.5 c 128,-1,31
 141 623 141 623 209 680 c 128,-1,32
 277 737 277 737 372.5 772 c 128,-1,33
 468 807 468 807 587 807 c 0,34,35
 605 807 605 807 623.5 804 c 128,-1,36
 642 801 642 801 657 796 c 128,-1,37
 672 791 672 791 681.5 785 c 128,-1,38
 691 779 691 779 691 774 c 0,39,40
 691 759 691 759 674 734 c 128,-1,41
 657 709 657 709 631 678 c 128,-1,42
 605 647 605 647 575.5 612 c 128,-1,43
 546 577 546 577 520 541.5 c 128,-1,44
 494 506 494 506 477 471.5 c 128,-1,45
 460 437 460 437 460 408 c 0,46,47
 460 383 460 383 470.5 358 c 128,-1,48
 481 333 481 333 506 312.5 c 128,-1,49
 531 292 531 292 571 279 c 128,-1,50
 611 266 611 266 670 266 c 0,51,52
 741 266 741 266 788 283.5 c 128,-1,53
 835 301 835 301 863.5 326 c 128,-1,54
 892 351 892 351 904 378.5 c 128,-1,55
 916 406 916 406 916 426 c 0,56,57
 916 460 916 460 881 483.5 c 128,-1,58
 846 507 846 507 788.5 527.5 c 128,-1,59
 731 548 731 548 657.5 569.5 c 128,-1,60
 584 591 584 591 507.5 620.5 c 128,-1,61
 431 650 431 650 357.5 692 c 128,-1,62
 284 734 284 734 226.5 796 c 128,-1,63
 169 858 169 858 134 942.5 c 128,-1,64
 99 1027 99 1027 99 1143 c 0,65,66
 99 1223 99 1223 125 1289 c 128,-1,67
 151 1355 151 1355 197 1408 c 128,-1,68
 243 1461 243 1461 305.5 1500.5 c 128,-1,69
 368 1540 368 1540 440.5 1566 c 128,-1,70
 513 1592 513 1592 592 1605 c 128,-1,71
 671 1618 671 1618 750 1618 c 0,72,73
 859 1618 859 1618 961.5 1594 c 128,-1,74
 1064 1570 1064 1570 1143 1522 c 128,-1,75
 1222 1474 1222 1474 1270 1402.5 c 128,-1,76
 1318 1331 1318 1331 1318 1237 c 0,77,78
 1318 1156 1318 1156 1283 1075.5 c 128,-1,79
 1248 995 1248 995 1186 931 c 128,-1,80
 1124 867 1124 867 1038 827.5 c 128,-1,81
 952 788 952 788 849 788 c 0,82,83
 808 788 808 788 783.5 808 c 128,-1,84
 759 828 759 828 759 874 c 0,85,86
 759 893 759 893 776 922 c 128,-1,87
 793 951 793 951 819 985 c 128,-1,88
 845 1019 845 1019 874.5 1056.5 c 128,-1,89
 904 1094 904 1094 930 1130 c 128,-1,90
 956 1166 956 1166 973 1199 c 128,-1,91
 990 1232 990 1232 990 1257 c 0,0,1
EndSplineSet
Validated: 5
Substitution2: "'onum' Oldstyle Figures in Latin lookup 2 subtable" eight.old
Substitution2: "'aalt' Access All Alternates in Latin lookup 0 subtable" eight.old
EndChar

StartChar: nine
Encoding: 57 57 28
Width: 1554
Flags: W
HStem: 494 284<710.991 815.477> 1352 266<685.484 860.068>
VStem: 29 598<885.698 1246.46> 934 586<781.442 1199.85>
LayerCount: 2
Fore
SplineSet
795 778 m 0,0,1
 848 778 848 778 876 779.5 c 128,-1,2
 904 781 904 781 917 783 c 0,3,4
 932 785 932 785 934 788 c 1,5,6
 934 962 934 962 926 1071.5 c 128,-1,7
 918 1181 918 1181 900 1243.5 c 128,-1,8
 882 1306 882 1306 853 1329 c 128,-1,9
 824 1352 824 1352 782 1352 c 0,10,11
 741 1352 741 1352 711.5 1331.5 c 128,-1,12
 682 1311 682 1311 663 1277 c 128,-1,13
 644 1243 644 1243 635.5 1198 c 128,-1,14
 627 1153 627 1153 627 1104 c 0,15,16
 627 1046 627 1046 639 988 c 128,-1,17
 651 930 651 930 672.5 883.5 c 128,-1,18
 694 837 694 837 725 807.5 c 128,-1,19
 756 778 756 778 795 778 c 0,0,1
340 -49 m 0,20,21
 312 -49 312 -49 291 -39 c 128,-1,22
 270 -29 270 -29 255.5 -13.5 c 128,-1,23
 241 2 241 2 234 22 c 128,-1,24
 227 42 227 42 227 63 c 0,25,26
 227 99 227 99 245.5 131 c 128,-1,27
 264 163 264 163 301 177 c 0,28,29
 326 186 326 186 373 197.5 c 128,-1,30
 420 209 420 209 478 226.5 c 128,-1,31
 536 244 536 244 599 271 c 128,-1,32
 662 298 662 298 720 339 c 128,-1,33
 778 380 778 380 825 438 c 128,-1,34
 872 496 872 496 897 575 c 1,35,36
 812 532 812 532 730.5 513 c 128,-1,37
 649 494 649 494 571 494 c 0,38,39
 442 494 442 494 341 539 c 128,-1,40
 240 584 240 584 171 658.5 c 128,-1,41
 102 733 102 733 65.5 829 c 128,-1,42
 29 925 29 925 29 1026 c 0,43,44
 29 1099 29 1099 48 1171.5 c 128,-1,45
 67 1244 67 1244 106 1309.5 c 128,-1,46
 145 1375 145 1375 205 1431.5 c 128,-1,47
 265 1488 265 1488 346.5 1529.5 c 128,-1,48
 428 1571 428 1571 532 1594.5 c 128,-1,49
 636 1618 636 1618 764 1618 c 0,50,51
 956 1618 956 1618 1098 1563.5 c 128,-1,52
 1240 1509 1240 1509 1334 1417 c 128,-1,53
 1428 1325 1428 1325 1474 1204 c 128,-1,54
 1520 1083 1520 1083 1520 950 c 0,55,56
 1520 834 1520 834 1486 714.5 c 128,-1,57
 1452 595 1452 595 1385 484 c 128,-1,58
 1318 373 1318 373 1218 276 c 128,-1,59
 1118 179 1118 179 987 106.5 c 128,-1,60
 856 34 856 34 694 -7.5 c 128,-1,61
 532 -49 532 -49 340 -49 c 0,20,21
EndSplineSet
Validated: 1
Substitution2: "'onum' Oldstyle Figures in Latin lookup 2 subtable" nine.old
Substitution2: "'aalt' Access All Alternates in Latin lookup 0 subtable" nine.old
EndChar

StartChar: colon
Encoding: 58 58 29
Width: 824
Flags: W
HStem: -20 495<220.391 605.234> 801 495<220.391 605.234>
VStem: 86 651<94.8623 359.412 916.588 1181.14>
LayerCount: 2
Fore
SplineSet
86 227 m 256,0,1
 86 277 86 277 103.5 314.5 c 128,-1,2
 121 352 121 352 148.5 379.5 c 128,-1,3
 176 407 176 407 211.5 425.5 c 128,-1,4
 247 444 247 444 283.5 455 c 128,-1,5
 320 466 320 466 353.5 470.5 c 128,-1,6
 387 475 387 475 412 475 c 0,7,8
 438 475 438 475 472.5 470.5 c 128,-1,9
 507 466 507 466 543 455 c 128,-1,10
 579 444 579 444 614 425.5 c 128,-1,11
 649 407 649 407 676.5 379.5 c 128,-1,12
 704 352 704 352 720.5 314.5 c 128,-1,13
 737 277 737 277 737 227 c 0,14,15
 737 178 737 178 720.5 140 c 128,-1,16
 704 102 704 102 676.5 75 c 128,-1,17
 649 48 649 48 614 29.5 c 128,-1,18
 579 11 579 11 543 0 c 128,-1,19
 507 -11 507 -11 472.5 -15.5 c 128,-1,20
 438 -20 438 -20 412 -20 c 0,21,22
 387 -20 387 -20 353.5 -15.5 c 128,-1,23
 320 -11 320 -11 283.5 0 c 128,-1,24
 247 11 247 11 211.5 29.5 c 128,-1,25
 176 48 176 48 148.5 75 c 128,-1,26
 121 102 121 102 103.5 139.5 c 128,-1,27
 86 177 86 177 86 227 c 256,0,1
86 1049 m 256,28,29
 86 1099 86 1099 103.5 1136.5 c 128,-1,30
 121 1174 121 1174 148.5 1201 c 128,-1,31
 176 1228 176 1228 211.5 1246.5 c 128,-1,32
 247 1265 247 1265 283.5 1276 c 128,-1,33
 320 1287 320 1287 353.5 1291.5 c 128,-1,34
 387 1296 387 1296 412 1296 c 0,35,36
 438 1296 438 1296 472.5 1291.5 c 128,-1,37
 507 1287 507 1287 543 1276 c 128,-1,38
 579 1265 579 1265 614 1246.5 c 128,-1,39
 649 1228 649 1228 676.5 1201 c 128,-1,40
 704 1174 704 1174 720.5 1136 c 128,-1,41
 737 1098 737 1098 737 1049 c 0,42,43
 737 999 737 999 720.5 961.5 c 128,-1,44
 704 924 704 924 676.5 896.5 c 128,-1,45
 649 869 649 869 614 850.5 c 128,-1,46
 579 832 579 832 543 821 c 128,-1,47
 507 810 507 810 472.5 805.5 c 128,-1,48
 438 801 438 801 412 801 c 0,49,50
 387 801 387 801 353.5 805.5 c 128,-1,51
 320 810 320 810 283.5 821 c 128,-1,52
 247 832 247 832 211.5 850.5 c 128,-1,53
 176 869 176 869 148.5 896.5 c 128,-1,54
 121 924 121 924 103.5 961.5 c 128,-1,55
 86 999 86 999 86 1049 c 256,28,29
EndSplineSet
Validated: 1
EndChar

StartChar: semicolon
Encoding: 59 59 30
Width: 799
Flags: W
HStem: 801 495<201.391 586.234>
VStem: 67 645<79.7249 327.83 916.588 1181.14>
LayerCount: 2
Fore
SplineSet
67 1049 m 256,0,1
 67 1099 67 1099 84.5 1136.5 c 128,-1,2
 102 1174 102 1174 129.5 1201 c 128,-1,3
 157 1228 157 1228 192.5 1246.5 c 128,-1,4
 228 1265 228 1265 264.5 1276 c 128,-1,5
 301 1287 301 1287 334.5 1291.5 c 128,-1,6
 368 1296 368 1296 393 1296 c 0,7,8
 419 1296 419 1296 453.5 1291.5 c 128,-1,9
 488 1287 488 1287 524 1276 c 128,-1,10
 560 1265 560 1265 595 1246.5 c 128,-1,11
 630 1228 630 1228 657.5 1201 c 128,-1,12
 685 1174 685 1174 701.5 1136 c 128,-1,13
 718 1098 718 1098 718 1049 c 0,14,15
 718 999 718 999 701.5 961.5 c 128,-1,16
 685 924 685 924 657.5 896.5 c 128,-1,17
 630 869 630 869 595 850.5 c 128,-1,18
 560 832 560 832 524 821 c 128,-1,19
 488 810 488 810 453.5 805.5 c 128,-1,20
 419 801 419 801 393 801 c 0,21,22
 368 801 368 801 334.5 805.5 c 128,-1,23
 301 810 301 810 264.5 821 c 128,-1,24
 228 832 228 832 192.5 850.5 c 128,-1,25
 157 869 157 869 129.5 896.5 c 128,-1,26
 102 924 102 924 84.5 961.5 c 128,-1,27
 67 999 67 999 67 1049 c 256,0,1
335 -10 m 1,28,29
 267 -10 267 -10 216.5 8.5 c 128,-1,30
 166 27 166 27 133 57 c 128,-1,31
 100 87 100 87 83.5 126 c 128,-1,32
 67 165 67 165 67 207 c 0,33,34
 67 255 67 255 88.5 303 c 128,-1,35
 110 351 110 351 151 389.5 c 128,-1,36
 192 428 192 428 253 451.5 c 128,-1,37
 314 475 314 475 393 475 c 0,38,39
 476 475 476 475 536 448 c 128,-1,40
 596 421 596 421 635 375 c 128,-1,41
 674 329 674 329 693 268.5 c 128,-1,42
 712 208 712 208 712 141 c 0,43,44
 712 52 712 52 680.5 -39 c 128,-1,45
 649 -130 649 -130 590 -204 c 128,-1,46
 531 -278 531 -278 445 -324.5 c 128,-1,47
 359 -371 359 -371 251 -371 c 0,48,49
 225 -371 225 -371 206.5 -354 c 128,-1,50
 188 -337 188 -337 188 -315 c 0,51,52
 188 -289 188 -289 199 -272.5 c 128,-1,53
 210 -256 210 -256 226 -242 c 128,-1,54
 242 -228 242 -228 261.5 -212 c 128,-1,55
 281 -196 281 -196 297 -171 c 128,-1,56
 313 -146 313 -146 324 -108 c 128,-1,57
 335 -70 335 -70 335 -10 c 1,28,29
EndSplineSet
Validated: 1
EndChar

StartChar: less
Encoding: 60 60 31
Width: 1025
Flags: W
LayerCount: 2
Fore
SplineSet
43 639 m 256,0,1
 43 687 43 687 58 722 c 128,-1,2
 73 757 73 757 98.5 785.5 c 128,-1,3
 124 814 124 814 157 840 c 128,-1,4
 190 866 190 866 226 895 c 2,5,-1
 540 1150 l 2,6,7
 577 1180 577 1180 610 1206 c 128,-1,8
 643 1232 643 1232 675.5 1251 c 128,-1,9
 708 1270 708 1270 740.5 1281 c 128,-1,10
 773 1292 773 1292 809 1292 c 0,11,12
 843 1292 843 1292 869.5 1280 c 128,-1,13
 896 1268 896 1268 913 1247.5 c 128,-1,14
 930 1227 930 1227 939 1201.5 c 128,-1,15
 948 1176 948 1176 948 1149 c 0,16,17
 948 1078 948 1078 874.5 994 c 128,-1,18
 801 910 801 910 656 795 c 2,19,-1
 460 639 l 1,20,-1
 656 483 l 2,21,22
 801 368 801 368 874.5 283.5 c 128,-1,23
 948 199 948 199 948 129 c 0,24,25
 948 102 948 102 939 76.5 c 128,-1,26
 930 51 930 51 913 30.5 c 128,-1,27
 896 10 896 10 869.5 -2 c 128,-1,28
 843 -14 843 -14 809 -14 c 0,29,30
 773 -14 773 -14 740.5 -3 c 128,-1,31
 708 8 708 8 675.5 27 c 128,-1,32
 643 46 643 46 610 72 c 128,-1,33
 577 98 577 98 540 128 c 2,34,-1
 226 383 l 2,35,36
 190 412 190 412 157 438 c 128,-1,37
 124 464 124 464 98.5 492.5 c 128,-1,38
 73 521 73 521 58 556 c 128,-1,39
 43 591 43 591 43 639 c 256,0,1
EndSplineSet
Validated: 1
EndChar

StartChar: equal
Encoding: 61 61 32
Width: 1180
Flags: W
HStem: 199 196<91.1744 1089.97> 536 196<91.1744 1089.97>
LayerCount: 2
Fore
SplineSet
81 297 m 0,0,1
 81 331 81 331 91.5 351 c 128,-1,2
 102 371 102 371 121 380.5 c 128,-1,3
 140 390 140 390 167.5 392.5 c 128,-1,4
 195 395 195 395 228 395 c 2,5,-1
 942 395 l 2,6,7
 978 395 978 395 1007 393.5 c 128,-1,8
 1036 392 1036 392 1056.5 383 c 128,-1,9
 1077 374 1077 374 1088 354 c 128,-1,10
 1099 334 1099 334 1099 297 c 256,11,12
 1099 260 1099 260 1088 240 c 128,-1,13
 1077 220 1077 220 1056.5 211 c 128,-1,14
 1036 202 1036 202 1007 200.5 c 128,-1,15
 978 199 978 199 942 199 c 2,16,-1
 228 199 l 2,17,18
 195 199 195 199 167.5 200.5 c 128,-1,19
 140 202 140 202 121 211 c 128,-1,20
 102 220 102 220 91.5 240 c 128,-1,21
 81 260 81 260 81 297 c 0,0,1
81 634 m 0,22,23
 81 668 81 668 91.5 688 c 128,-1,24
 102 708 102 708 121 717.5 c 128,-1,25
 140 727 140 727 167.5 729.5 c 128,-1,26
 195 732 195 732 228 732 c 2,27,-1
 942 732 l 2,28,29
 978 732 978 732 1007 730.5 c 128,-1,30
 1036 729 1036 729 1056.5 720 c 128,-1,31
 1077 711 1077 711 1088 691 c 128,-1,32
 1099 671 1099 671 1099 634 c 256,33,34
 1099 597 1099 597 1088 577 c 128,-1,35
 1077 557 1077 557 1056.5 548 c 128,-1,36
 1036 539 1036 539 1007 537.5 c 128,-1,37
 978 536 978 536 942 536 c 2,38,-1
 228 536 l 2,39,40
 195 536 195 536 167.5 537.5 c 128,-1,41
 140 539 140 539 121 548 c 128,-1,42
 102 557 102 557 91.5 577 c 128,-1,43
 81 597 81 597 81 634 c 0,22,23
EndSplineSet
Validated: 1
EndChar

StartChar: greater
Encoding: 62 62 33
Width: 1025
Flags: W
LayerCount: 2
Fore
SplineSet
982 639 m 256,0,1
 982 591 982 591 967 556 c 128,-1,2
 952 521 952 521 926.5 492.5 c 128,-1,3
 901 464 901 464 868 438 c 128,-1,4
 835 412 835 412 799 383 c 2,5,-1
 485 128 l 2,6,7
 448 98 448 98 415 72 c 128,-1,8
 382 46 382 46 349.5 27 c 128,-1,9
 317 8 317 8 284.5 -3 c 128,-1,10
 252 -14 252 -14 216 -14 c 0,11,12
 181 -14 181 -14 155 -2 c 128,-1,13
 129 10 129 10 112 30.5 c 128,-1,14
 95 51 95 51 86 76.5 c 128,-1,15
 77 102 77 102 77 129 c 0,16,17
 77 199 77 199 150.5 283.5 c 128,-1,18
 224 368 224 368 369 483 c 2,19,-1
 565 639 l 1,20,-1
 369 795 l 2,21,22
 224 910 224 910 150.5 994 c 128,-1,23
 77 1078 77 1078 77 1149 c 0,24,25
 77 1176 77 1176 86 1201.5 c 128,-1,26
 95 1227 95 1227 112 1247.5 c 128,-1,27
 129 1268 129 1268 155 1280 c 128,-1,28
 181 1292 181 1292 216 1292 c 0,29,30
 252 1292 252 1292 284.5 1281 c 128,-1,31
 317 1270 317 1270 349.5 1251 c 128,-1,32
 382 1232 382 1232 415 1206 c 128,-1,33
 448 1180 448 1180 485 1150 c 2,34,-1
 799 895 l 2,35,36
 835 866 835 866 868 840 c 128,-1,37
 901 814 901 814 926.5 785.5 c 128,-1,38
 952 757 952 757 967 722 c 128,-1,39
 982 687 982 687 982 639 c 256,0,1
EndSplineSet
Validated: 1
EndChar

StartChar: question
Encoding: 63 63 34
Width: 1280
Flags: W
HStem: -25 377<407.673 738.375> 1343 302<385.516 733.5>
VStem: 325 493<49.6562 277.806> 409 307<468.498 682.375> 644 584<1045 1301.52>
LayerCount: 2
Fore
SplineSet
556 428 m 0,0,1
 515 428 515 428 486.5 444 c 128,-1,2
 458 460 458 460 441 483.5 c 128,-1,3
 424 507 424 507 416.5 533.5 c 128,-1,4
 409 560 409 560 409 582 c 0,5,6
 409 692 409 692 426.5 763.5 c 128,-1,7
 444 835 444 835 470 883 c 128,-1,8
 496 931 496 931 526.5 962.5 c 128,-1,9
 557 994 557 994 583 1024.5 c 128,-1,10
 609 1055 609 1055 626.5 1091 c 128,-1,11
 644 1127 644 1127 644 1184 c 0,12,13
 644 1224 644 1224 633.5 1253.5 c 128,-1,14
 623 1283 623 1283 598.5 1303 c 128,-1,15
 574 1323 574 1323 532 1333 c 128,-1,16
 490 1343 490 1343 427 1343 c 0,17,18
 339 1343 339 1343 268.5 1323 c 128,-1,19
 198 1303 198 1303 141 1272 c 1,20,21
 121 1264 121 1264 104 1264 c 0,22,23
 90 1264 90 1264 77.5 1273.5 c 128,-1,24
 65 1283 65 1283 56 1297.5 c 128,-1,25
 47 1312 47 1312 41.5 1328.5 c 128,-1,26
 36 1345 36 1345 36 1360 c 0,27,28
 36 1371 36 1371 40 1378 c 128,-1,29
 44 1385 44 1385 50 1393 c 0,30,31
 103 1453 103 1453 174 1500 c 128,-1,32
 245 1547 245 1547 327 1579.5 c 128,-1,33
 409 1612 409 1612 499 1628.5 c 128,-1,34
 589 1645 589 1645 679 1645 c 0,35,36
 788 1645 788 1645 887.5 1611.5 c 128,-1,37
 987 1578 987 1578 1062.5 1518.5 c 128,-1,38
 1138 1459 1138 1459 1183 1377.5 c 128,-1,39
 1228 1296 1228 1296 1228 1200 c 0,40,41
 1228 1134 1228 1134 1206 1080.5 c 128,-1,42
 1184 1027 1184 1027 1148 983.5 c 128,-1,43
 1112 940 1112 940 1066 904 c 128,-1,44
 1020 868 1020 868 972 836.5 c 128,-1,45
 924 805 924 805 878 776 c 128,-1,46
 832 747 832 747 796 717 c 128,-1,47
 760 687 760 687 738 654 c 128,-1,48
 716 621 716 621 716 582 c 0,49,50
 716 533 716 533 700 502.5 c 128,-1,51
 684 472 684 472 660 455.5 c 128,-1,52
 636 439 636 439 608 433.5 c 128,-1,53
 580 428 580 428 556 428 c 0,0,1
325 164 m 256,54,55
 325 202 325 202 338 230.5 c 128,-1,56
 351 259 351 259 372 280 c 128,-1,57
 393 301 393 301 420 315 c 128,-1,58
 447 329 447 329 474.5 337 c 128,-1,59
 502 345 502 345 527 348.5 c 128,-1,60
 552 352 552 352 571 352 c 0,61,62
 602 352 602 352 644.5 344 c 128,-1,63
 687 336 687 336 725.5 315 c 128,-1,64
 764 294 764 294 791 257.5 c 128,-1,65
 818 221 818 221 818 164 c 0,66,67
 818 126 818 126 805.5 97 c 128,-1,68
 793 68 793 68 772.5 47 c 128,-1,69
 752 26 752 26 725.5 12.5 c 128,-1,70
 699 -1 699 -1 671.5 -9.5 c 128,-1,71
 644 -18 644 -18 617.5 -21.5 c 128,-1,72
 591 -25 591 -25 571 -25 c 0,73,74
 552 -25 552 -25 527 -21.5 c 128,-1,75
 502 -18 502 -18 474.5 -9.5 c 128,-1,76
 447 -1 447 -1 420.5 12.5 c 128,-1,77
 394 26 394 26 372.5 47 c 128,-1,78
 351 68 351 68 338 97 c 128,-1,79
 325 126 325 126 325 164 c 256,54,55
EndSplineSet
Validated: 1
EndChar

StartChar: at
Encoding: 64 64 35
Width: 3052
Flags: W
HStem: -483 485<1221.91 1963.78> 219 219<1270.5 1547.97> 240 278<1966 2345.94> 1171 222<1294.5 1569.48> 1604 485<1271.82 1937.3>
VStem: 51 592<519.613 1070.08> 868 528<505.75 1077.7> 1665 531<536.567 1145.92> 2464 546<788.821 1195.09>
LayerCount: 2
Fore
SplineSet
1540 438 m 0,0,1
 1574 438 1574 438 1608 451 c 128,-1,2
 1642 464 1642 464 1667 479 c 1,3,4
 1666 487 1666 487 1666 497 c 128,-1,5
 1666 507 1666 507 1665.5 530 c 128,-1,6
 1665 553 1665 553 1665 593.5 c 128,-1,7
 1665 634 1665 634 1665 703 c 128,-1,8
 1665 772 1665 772 1665 874 c 128,-1,9
 1665 976 1665 976 1665 1122 c 1,10,11
 1637 1139 1637 1139 1601 1155 c 128,-1,12
 1565 1171 1565 1171 1528 1171 c 0,13,14
 1488 1171 1488 1171 1462.5 1152.5 c 128,-1,15
 1437 1134 1437 1134 1422 1090.5 c 128,-1,16
 1407 1047 1407 1047 1401.5 975 c 128,-1,17
 1396 903 1396 903 1396 795 c 0,18,19
 1396 730 1396 730 1400 666 c 128,-1,20
 1404 602 1404 602 1419 551.5 c 128,-1,21
 1434 501 1434 501 1462.5 469.5 c 128,-1,22
 1491 438 1491 438 1540 438 c 0,0,1
2003 240 m 0,23,24
 1929 240 1929 240 1875.5 248 c 128,-1,25
 1822 256 1822 256 1785 270.5 c 128,-1,26
 1748 285 1748 285 1725.5 305.5 c 128,-1,27
 1703 326 1703 326 1691 352 c 1,28,29
 1670 331 1670 331 1637 307.5 c 128,-1,30
 1604 284 1604 284 1558 264.5 c 128,-1,31
 1512 245 1512 245 1451.5 232 c 128,-1,32
 1391 219 1391 219 1315 219 c 0,33,34
 1226 219 1226 219 1158.5 243.5 c 128,-1,35
 1091 268 1091 268 1041.5 310 c 128,-1,36
 992 352 992 352 958.5 408.5 c 128,-1,37
 925 465 925 465 905 529.5 c 128,-1,38
 885 594 885 594 876.5 663 c 128,-1,39
 868 732 868 732 868 799 c 0,40,41
 868 867 868 867 878.5 937.5 c 128,-1,42
 889 1008 889 1008 911.5 1074 c 128,-1,43
 934 1140 934 1140 970.5 1198 c 128,-1,44
 1007 1256 1007 1256 1059.5 1299.5 c 128,-1,45
 1112 1343 1112 1343 1181 1368 c 128,-1,46
 1250 1393 1250 1393 1339 1393 c 0,47,48
 1408 1393 1408 1393 1463 1381.5 c 128,-1,49
 1518 1370 1518 1370 1560.5 1352 c 128,-1,50
 1603 1334 1603 1334 1633.5 1311.5 c 128,-1,51
 1664 1289 1664 1289 1685 1268 c 1,52,53
 1696 1296 1696 1296 1714 1319.5 c 128,-1,54
 1732 1343 1732 1343 1760.5 1359.5 c 128,-1,55
 1789 1376 1789 1376 1830 1385.5 c 128,-1,56
 1871 1395 1871 1395 1927 1395 c 0,57,58
 2012 1395 2012 1395 2064.5 1387.5 c 128,-1,59
 2117 1380 2117 1380 2146.5 1361 c 128,-1,60
 2176 1342 2176 1342 2186 1311 c 128,-1,61
 2196 1280 2196 1280 2196 1233 c 0,62,63
 2196 1230 2196 1230 2196 1224 c 128,-1,64
 2196 1218 2196 1218 2196 1198 c 128,-1,65
 2196 1178 2196 1178 2196 1138.5 c 128,-1,66
 2196 1099 2196 1099 2196 1028.5 c 128,-1,67
 2196 958 2196 958 2195.5 852 c 128,-1,68
 2195 746 2195 746 2195 592 c 0,69,70
 2195 554 2195 554 2207 536 c 128,-1,71
 2219 518 2219 518 2236 518 c 0,72,73
 2295 518 2295 518 2338 555.5 c 128,-1,74
 2381 593 2381 593 2409 656.5 c 128,-1,75
 2437 720 2437 720 2450.5 804.5 c 128,-1,76
 2464 889 2464 889 2464 983 c 0,77,78
 2464 1084 2464 1084 2430.5 1169 c 128,-1,79
 2397 1254 2397 1254 2338 1323 c 128,-1,80
 2279 1392 2279 1392 2198 1444.5 c 128,-1,81
 2117 1497 2117 1497 2021.5 1532.5 c 128,-1,82
 1926 1568 1926 1568 1820 1586 c 128,-1,83
 1714 1604 1714 1604 1605 1604 c 0,84,85
 1487 1604 1487 1604 1370 1582.5 c 128,-1,86
 1253 1561 1253 1561 1146 1518 c 128,-1,87
 1039 1475 1039 1475 947 1409 c 128,-1,88
 855 1343 855 1343 787.5 1254.5 c 128,-1,89
 720 1166 720 1166 681.5 1053.5 c 128,-1,90
 643 941 643 941 643 805 c 0,91,92
 643 606 643 606 713 455.5 c 128,-1,93
 783 305 783 305 906.5 204.5 c 128,-1,94
 1030 104 1030 104 1200 53 c 128,-1,95
 1370 2 1370 2 1571 2 c 0,96,97
 1710 2 1710 2 1860.5 26.5 c 128,-1,98
 2011 51 2011 51 2169 102 c 1,99,-1
 2423 -291 l 1,100,101
 2236 -385 2236 -385 2017.5 -434 c 128,-1,102
 1799 -483 1799 -483 1569 -483 c 0,103,104
 1318 -483 1318 -483 1108 -433 c 128,-1,105
 898 -383 898 -383 729.5 -294.5 c 128,-1,106
 561 -206 561 -206 433.5 -85 c 128,-1,107
 306 36 306 36 221 178 c 128,-1,108
 136 320 136 320 93.5 476.5 c 128,-1,109
 51 633 51 633 51 793 c 0,110,111
 51 955 51 955 95 1114 c 128,-1,112
 139 1273 139 1273 227 1417 c 128,-1,113
 315 1561 315 1561 447.5 1684 c 128,-1,114
 580 1807 580 1807 758 1897 c 128,-1,115
 936 1987 936 1987 1159.5 2038 c 128,-1,116
 1383 2089 1383 2089 1652 2089 c 0,117,118
 1881 2089 1881 2089 2070.5 2048 c 128,-1,119
 2260 2007 2260 2007 2411 1935 c 128,-1,120
 2562 1863 2562 1863 2674.5 1765 c 128,-1,121
 2787 1667 2787 1667 2861.5 1553.5 c 128,-1,122
 2936 1440 2936 1440 2973 1315.5 c 128,-1,123
 3010 1191 3010 1191 3010 1067 c 0,124,125
 3010 955 3010 955 2983.5 850 c 128,-1,126
 2957 745 2957 745 2903.5 653 c 128,-1,127
 2850 561 2850 561 2767.5 485 c 128,-1,128
 2685 409 2685 409 2573.5 354.5 c 128,-1,129
 2462 300 2462 300 2319.5 270 c 128,-1,130
 2177 240 2177 240 2003 240 c 0,23,24
EndSplineSet
Validated: 1
EndChar

StartChar: A
Encoding: 65 65 36
Width: 1791
Flags: W
HStem: 0 21G<253 326.5 1230 1411> 489 152<548 861> 1573 20G<861 973.5>
VStem: -9 596<103.166 270.169>
LayerCount: 2
Fore
SplineSet
548 641 m 1,0,-1
 861 641 l 1,1,-1
 707 1223 l 1,2,-1
 548 641 l 1,0,-1
290 0 m 0,3,4
 216 0 216 0 160 19 c 128,-1,5
 104 38 104 38 66.5 70.5 c 128,-1,6
 29 103 29 103 10 145.5 c 128,-1,7
 -9 188 -9 188 -9 236 c 0,8,9
 -9 260 -9 260 2 270.5 c 128,-1,10
 13 281 13 281 31 287 c 128,-1,11
 49 293 49 293 71.5 298 c 128,-1,12
 94 303 94 303 117 316 c 128,-1,13
 140 329 140 329 161 353.5 c 128,-1,14
 182 378 182 378 197 424 c 2,15,-1
 443 1174 l 2,16,17
 450 1195 450 1195 453.5 1211 c 128,-1,18
 457 1227 457 1227 457 1239 c 0,19,20
 457 1270 457 1270 440 1281 c 128,-1,21
 423 1292 423 1292 402.5 1298 c 128,-1,22
 382 1304 382 1304 365 1312.5 c 128,-1,23
 348 1321 348 1321 348 1347 c 0,24,25
 348 1354 348 1354 349 1358 c 0,26,27
 359 1427 359 1427 404 1472.5 c 128,-1,28
 449 1518 449 1518 523.5 1544.5 c 128,-1,29
 598 1571 598 1571 699 1582 c 128,-1,30
 800 1593 800 1593 922 1593 c 0,31,32
 1025 1593 1025 1593 1119.5 1585.5 c 128,-1,33
 1214 1578 1214 1578 1290 1553 c 128,-1,34
 1366 1528 1366 1528 1417 1482 c 128,-1,35
 1468 1436 1468 1436 1484 1358 c 0,36,37
 1486 1348 1486 1348 1486 1344 c 0,38,39
 1486 1327 1486 1327 1476.5 1318.5 c 128,-1,40
 1467 1310 1467 1310 1453 1305 c 128,-1,41
 1439 1300 1439 1300 1423 1296.5 c 128,-1,42
 1407 1293 1407 1293 1393 1286 c 128,-1,43
 1379 1279 1379 1279 1369.5 1265.5 c 128,-1,44
 1360 1252 1360 1252 1360 1228 c 0,45,46
 1360 1207 1360 1207 1369 1174 c 2,47,-1
 1590 424 l 2,48,49
 1603 379 1603 379 1623 354 c 128,-1,50
 1643 329 1643 329 1665.5 316 c 128,-1,51
 1688 303 1688 303 1710.5 298 c 128,-1,52
 1733 293 1733 293 1751 287 c 128,-1,53
 1769 281 1769 281 1780 270.5 c 128,-1,54
 1791 260 1791 260 1791 236 c 0,55,56
 1791 111 1791 111 1662 55.5 c 128,-1,57
 1533 0 1533 0 1289 0 c 0,58,59
 1171 0 1171 0 1079.5 13.5 c 128,-1,60
 988 27 988 27 925 55.5 c 128,-1,61
 862 84 862 84 829.5 129 c 128,-1,62
 797 174 797 174 797 236 c 0,63,64
 797 257 797 257 806.5 267.5 c 128,-1,65
 816 278 816 278 830 283.5 c 128,-1,66
 844 289 844 289 861 293 c 128,-1,67
 878 297 878 297 892 304.5 c 128,-1,68
 906 312 906 312 915.5 326.5 c 128,-1,69
 925 341 925 341 925 368 c 0,70,71
 925 391 925 391 918 420 c 2,72,-1
 902 489 l 1,73,-1
 496 489 l 1,74,-1
 472 420 l 2,75,76
 459 382 459 382 459 358 c 0,77,78
 459 335 459 335 468.5 322.5 c 128,-1,79
 478 310 478 310 492 303.5 c 128,-1,80
 506 297 506 297 523 293 c 128,-1,81
 540 289 540 289 554 283.5 c 128,-1,82
 568 278 568 278 577.5 267 c 128,-1,83
 587 256 587 256 587 236 c 0,84,85
 587 188 587 188 568 145.5 c 128,-1,86
 549 103 549 103 511.5 70.5 c 128,-1,87
 474 38 474 38 418.5 19 c 128,-1,88
 363 0 363 0 290 0 c 0,3,4
EndSplineSet
Validated: 1
EndChar

StartChar: B
Encoding: 66 66 37
Width: 1902
Flags: W
HStem: 0 231<910.281 1124.59> 731 166<889.159 1143.21> 1397 196<910.281 1124.03>
VStem: 213 676<312.355 728.092 899.908 1281.78> 1180 676<286.991 660.166>
LayerCount: 2
Fore
SplineSet
1041 897 m 0,0,1
 1085 897 1085 897 1112.5 913.5 c 128,-1,2
 1140 930 1140 930 1155 961 c 128,-1,3
 1170 992 1170 992 1175 1036.5 c 128,-1,4
 1180 1081 1180 1081 1180 1137 c 0,5,6
 1180 1197 1180 1197 1172.5 1245.5 c 128,-1,7
 1165 1294 1165 1294 1145 1327.5 c 128,-1,8
 1125 1361 1125 1361 1091 1379 c 128,-1,9
 1057 1397 1057 1397 1004 1397 c 0,10,11
 962 1397 962 1397 938.5 1381.5 c 128,-1,12
 915 1366 915 1366 904 1340.5 c 128,-1,13
 893 1315 893 1315 891 1281 c 128,-1,14
 889 1247 889 1247 889 1210 c 2,15,-1
 889 907 l 1,16,17
 894 904 894 904 912 902 c 0,18,19
 927 900 927 900 957 898.5 c 128,-1,20
 987 897 987 897 1041 897 c 0,0,1
1041 731 m 0,21,22
 987 731 987 731 957 729.5 c 128,-1,23
 927 728 927 728 912 726 c 0,24,25
 894 723 894 723 889 721 c 1,26,-1
 889 418 l 2,27,28
 889 381 889 381 891 347 c 128,-1,29
 893 313 893 313 904 287.5 c 128,-1,30
 915 262 915 262 938.5 246.5 c 128,-1,31
 962 231 962 231 1004 231 c 0,32,33
 1057 231 1057 231 1091 249 c 128,-1,34
 1125 267 1125 267 1145 300.5 c 128,-1,35
 1165 334 1165 334 1172.5 382.5 c 128,-1,36
 1180 431 1180 431 1180 492 c 0,37,38
 1180 548 1180 548 1175 592.5 c 128,-1,39
 1170 637 1170 637 1155 667.5 c 128,-1,40
 1140 698 1140 698 1112.5 714.5 c 128,-1,41
 1085 731 1085 731 1041 731 c 0,21,22
545 0 m 2,42,43
 427 0 427 0 335.5 13.5 c 128,-1,44
 244 27 244 27 181.5 55.5 c 128,-1,45
 119 84 119 84 86.5 129 c 128,-1,46
 54 174 54 174 54 236 c 0,47,48
 54 260 54 260 66 270.5 c 128,-1,49
 78 281 78 281 95.5 286.5 c 128,-1,50
 113 292 113 292 133.5 297 c 128,-1,51
 154 302 154 302 171.5 314.5 c 128,-1,52
 189 327 189 327 201 351 c 128,-1,53
 213 375 213 375 213 420 c 2,54,-1
 213 1174 l 2,55,56
 213 1218 213 1218 201 1242.5 c 128,-1,57
 189 1267 189 1267 171.5 1279.5 c 128,-1,58
 154 1292 154 1292 133.5 1297 c 128,-1,59
 113 1302 113 1302 95.5 1307.5 c 128,-1,60
 78 1313 78 1313 66 1323.5 c 128,-1,61
 54 1334 54 1334 54 1358 c 0,62,63
 54 1420 54 1420 86.5 1464.5 c 128,-1,64
 119 1509 119 1509 181.5 1537.5 c 128,-1,65
 244 1566 244 1566 335.5 1579.5 c 128,-1,66
 427 1593 427 1593 545 1593 c 2,67,-1
 1078 1593 l 2,68,69
 1245 1593 1245 1593 1364.5 1575.5 c 128,-1,70
 1484 1558 1484 1558 1565 1528 c 128,-1,71
 1646 1498 1646 1498 1694.5 1457 c 128,-1,72
 1743 1416 1743 1416 1768.5 1368.5 c 128,-1,73
 1794 1321 1794 1321 1801.5 1269.5 c 128,-1,74
 1809 1218 1809 1218 1809 1167 c 0,75,76
 1809 1108 1809 1108 1794 1063 c 128,-1,77
 1779 1018 1779 1018 1753 984 c 128,-1,78
 1727 950 1727 950 1692.5 926.5 c 128,-1,79
 1658 903 1658 903 1619.5 887.5 c 128,-1,80
 1581 872 1581 872 1540 864 c 128,-1,81
 1499 856 1499 856 1461 854 c 1,82,83
 1532 849 1532 849 1602.5 828 c 128,-1,84
 1673 807 1673 807 1729.5 761.5 c 128,-1,85
 1786 716 1786 716 1821 641.5 c 128,-1,86
 1856 567 1856 567 1856 455 c 0,87,88
 1856 393 1856 393 1839 335 c 128,-1,89
 1822 277 1822 277 1782.5 226.5 c 128,-1,90
 1743 176 1743 176 1678.5 134.5 c 128,-1,91
 1614 93 1614 93 1519 63 c 128,-1,92
 1424 33 1424 33 1295.5 16.5 c 128,-1,93
 1167 0 1167 0 1000 0 c 2,94,-1
 545 0 l 2,42,43
EndSplineSet
Validated: 1
EndChar

StartChar: C
Encoding: 67 67 38
Width: 1564
Flags: W
HStem: -25 392<793.5 1163.76> 1376 244<879.226 1074.19>
VStem: 54 721<627.599 1088.02>
LayerCount: 2
Fore
SplineSet
859 -25 m 0,0,1
 728 -25 728 -25 618 4.5 c 128,-1,2
 508 34 508 34 418.5 87 c 128,-1,3
 329 140 329 140 261 213 c 128,-1,4
 193 286 193 286 147 373 c 128,-1,5
 101 460 101 460 77.5 557.5 c 128,-1,6
 54 655 54 655 54 758 c 0,7,8
 54 876 54 876 74 985.5 c 128,-1,9
 94 1095 94 1095 138 1191 c 128,-1,10
 182 1287 182 1287 252 1366 c 128,-1,11
 322 1445 322 1445 422 1501.5 c 128,-1,12
 522 1558 522 1558 653.5 1589 c 128,-1,13
 785 1620 785 1620 953 1620 c 0,14,15
 1064 1620 1064 1620 1164 1590 c 128,-1,16
 1264 1560 1264 1560 1339.5 1504.5 c 128,-1,17
 1415 1449 1415 1449 1459.5 1369.5 c 128,-1,18
 1504 1290 1504 1290 1504 1192 c 0,19,20
 1504 1152 1504 1152 1491.5 1120 c 128,-1,21
 1479 1088 1479 1088 1456.5 1066 c 128,-1,22
 1434 1044 1434 1044 1403.5 1032 c 128,-1,23
 1373 1020 1373 1020 1338 1020 c 0,24,25
 1307 1020 1307 1020 1276 1030 c 128,-1,26
 1245 1040 1245 1040 1217 1063.5 c 128,-1,27
 1189 1087 1189 1087 1166.5 1124.5 c 128,-1,28
 1144 1162 1144 1162 1131 1217 c 0,29,30
 1113 1295 1113 1295 1070 1335.5 c 128,-1,31
 1027 1376 1027 1376 978 1376 c 0,32,33
 941 1376 941 1376 904.5 1353 c 128,-1,34
 868 1330 868 1330 839.5 1282.5 c 128,-1,35
 811 1235 811 1235 793 1162 c 128,-1,36
 775 1089 775 1089 775 989 c 0,37,38
 775 857 775 857 790 759.5 c 128,-1,39
 805 662 805 662 831.5 593 c 128,-1,40
 858 524 858 524 893.5 480 c 128,-1,41
 929 436 929 436 970 411 c 128,-1,42
 1011 386 1011 386 1055 376.5 c 128,-1,43
 1099 367 1099 367 1143 367 c 0,44,45
 1188 367 1188 367 1231 377.5 c 128,-1,46
 1274 388 1274 388 1309.5 403.5 c 128,-1,47
 1345 419 1345 419 1370.5 436.5 c 128,-1,48
 1396 454 1396 454 1408 469 c 0,49,50
 1423 489 1423 489 1440.5 498.5 c 128,-1,51
 1458 508 1458 508 1473 508 c 0,52,53
 1501 508 1501 508 1521 479 c 128,-1,54
 1541 450 1541 450 1541 399 c 0,55,56
 1541 319 1541 319 1491.5 243 c 128,-1,57
 1442 167 1442 167 1352 107.5 c 128,-1,58
 1262 48 1262 48 1136.5 11.5 c 128,-1,59
 1011 -25 1011 -25 859 -25 c 0,0,1
EndSplineSet
Validated: 1
EndChar

StartChar: D
Encoding: 68 68 39
Width: 1962
Flags: W
HStem: 0 231<934.281 1125.18> 1397 196<934.281 1126.15>
VStem: 213 693<312.355 1283.12> 1237 664<491.846 1130.71>
LayerCount: 2
Fore
SplineSet
1237 854 m 0,0,1
 1237 962 1237 962 1226 1060 c 128,-1,2
 1215 1158 1215 1158 1191 1233 c 128,-1,3
 1167 1308 1167 1308 1128 1352.5 c 128,-1,4
 1089 1397 1089 1397 1033 1397 c 0,5,6
 991 1397 991 1397 965.5 1381.5 c 128,-1,7
 940 1366 940 1366 927 1340.5 c 128,-1,8
 914 1315 914 1315 910 1281 c 128,-1,9
 906 1247 906 1247 906 1210 c 2,10,-1
 906 418 l 2,11,12
 906 381 906 381 910 347 c 128,-1,13
 914 313 914 313 927 287.5 c 128,-1,14
 940 262 940 262 965.5 246.5 c 128,-1,15
 991 231 991 231 1033 231 c 0,16,17
 1089 231 1089 231 1128 276 c 128,-1,18
 1167 321 1167 321 1191 402.5 c 128,-1,19
 1215 484 1215 484 1226 599 c 128,-1,20
 1237 714 1237 714 1237 854 c 0,0,1
1033 1593 m 2,21,22
 1195 1593 1195 1593 1322.5 1565 c 128,-1,23
 1450 1537 1450 1537 1546.5 1487 c 128,-1,24
 1643 1437 1643 1437 1710.5 1367.5 c 128,-1,25
 1778 1298 1778 1298 1820.5 1214.5 c 128,-1,26
 1863 1131 1863 1131 1882 1037 c 128,-1,27
 1901 943 1901 943 1901 844 c 0,28,29
 1901 732 1901 732 1886 625.5 c 128,-1,30
 1871 519 1871 519 1832 425.5 c 128,-1,31
 1793 332 1793 332 1725 253.5 c 128,-1,32
 1657 175 1657 175 1551.5 119 c 128,-1,33
 1446 63 1446 63 1297.5 31.5 c 128,-1,34
 1149 0 1149 0 949 0 c 2,35,-1
 545 0 l 2,36,37
 427 0 427 0 335.5 13.5 c 128,-1,38
 244 27 244 27 181.5 55.5 c 128,-1,39
 119 84 119 84 86.5 129 c 128,-1,40
 54 174 54 174 54 236 c 0,41,42
 54 260 54 260 66 270.5 c 128,-1,43
 78 281 78 281 95.5 286.5 c 128,-1,44
 113 292 113 292 133.5 297 c 128,-1,45
 154 302 154 302 171.5 314.5 c 128,-1,46
 189 327 189 327 201 351 c 128,-1,47
 213 375 213 375 213 420 c 2,48,-1
 213 1176 l 2,49,50
 213 1220 213 1220 201 1244.5 c 128,-1,51
 189 1269 189 1269 171.5 1281.5 c 128,-1,52
 154 1294 154 1294 133.5 1299 c 128,-1,53
 113 1304 113 1304 95.5 1309.5 c 128,-1,54
 78 1315 78 1315 66 1325.5 c 128,-1,55
 54 1336 54 1336 54 1360 c 0,56,57
 54 1422 54 1422 86.5 1466.5 c 128,-1,58
 119 1511 119 1511 181.5 1539 c 128,-1,59
 244 1567 244 1567 335.5 1580 c 128,-1,60
 427 1593 427 1593 545 1593 c 2,61,-1
 1033 1593 l 2,21,22
EndSplineSet
Validated: 1
EndChar

StartChar: E
Encoding: 69 69 40
Width: 1765
Flags: W
HStem: 0 221<979.568 1286> 0 205<944 1250.43> 567 551<1097.88 1308.33> 1384 209<944 1278>
VStem: 213 731<312.222 762 924 1281.78>
LayerCount: 2
Fore
SplineSet
1393 844 m 0,0,1
 1393 791 1393 791 1381 741 c 128,-1,2
 1369 691 1369 691 1344 652.5 c 128,-1,3
 1319 614 1319 614 1280 590.5 c 128,-1,4
 1241 567 1241 567 1186 567 c 0,5,6
 1154 567 1154 567 1132 580.5 c 128,-1,7
 1110 594 1110 594 1093 618.5 c 128,-1,8
 1076 643 1076 643 1060 677 c 128,-1,9
 1044 711 1044 711 1024 752 c 1,10,-1
 944 762 l 1,11,-1
 944 205 l 1,12,-1
 1286 221 l 1,13,-1
 1327 395 l 1,14,15
 1344 452 1344 452 1368 491.5 c 128,-1,16
 1392 531 1392 531 1420.5 555.5 c 128,-1,17
 1449 580 1449 580 1481 591 c 128,-1,18
 1513 602 1513 602 1545 602 c 0,19,20
 1582 602 1582 602 1614 589.5 c 128,-1,21
 1646 577 1646 577 1669.5 553 c 128,-1,22
 1693 529 1693 529 1706 495.5 c 128,-1,23
 1719 462 1719 462 1719 420 c 0,24,25
 1719 379 1719 379 1710.5 331.5 c 128,-1,26
 1702 284 1702 284 1685.5 237.5 c 128,-1,27
 1669 191 1669 191 1644 148 c 128,-1,28
 1619 105 1619 105 1585 72 c 128,-1,29
 1551 39 1551 39 1508.5 19.5 c 128,-1,30
 1466 0 1466 0 1415 0 c 2,31,-1
 545 0 l 2,32,33
 427 0 427 0 335.5 13.5 c 128,-1,34
 244 27 244 27 181.5 55.5 c 128,-1,35
 119 84 119 84 86.5 129 c 128,-1,36
 54 174 54 174 54 236 c 0,37,38
 54 260 54 260 66 270.5 c 128,-1,39
 78 281 78 281 95.5 286.5 c 128,-1,40
 113 292 113 292 133.5 297 c 128,-1,41
 154 302 154 302 171.5 314.5 c 128,-1,42
 189 327 189 327 201 351 c 128,-1,43
 213 375 213 375 213 420 c 2,44,-1
 213 1174 l 2,45,46
 213 1218 213 1218 201 1242.5 c 128,-1,47
 189 1267 189 1267 171.5 1279.5 c 128,-1,48
 154 1292 154 1292 133.5 1297 c 128,-1,49
 113 1302 113 1302 95.5 1307.5 c 128,-1,50
 78 1313 78 1313 66 1323.5 c 128,-1,51
 54 1334 54 1334 54 1358 c 0,52,53
 54 1420 54 1420 86.5 1464.5 c 128,-1,54
 119 1509 119 1509 181.5 1537.5 c 128,-1,55
 244 1566 244 1566 335.5 1579.5 c 128,-1,56
 427 1593 427 1593 545 1593 c 2,57,-1
 1403 1593 l 2,58,59
 1476 1593 1476 1593 1530 1553 c 128,-1,60
 1584 1513 1584 1513 1619.5 1452.5 c 128,-1,61
 1655 1392 1655 1392 1672.5 1322 c 128,-1,62
 1690 1252 1690 1252 1690 1192 c 0,63,64
 1690 1152 1690 1152 1677.5 1120 c 128,-1,65
 1665 1088 1665 1088 1642.5 1066 c 128,-1,66
 1620 1044 1620 1044 1589.5 1032 c 128,-1,67
 1559 1020 1559 1020 1524 1020 c 0,68,69
 1493 1020 1493 1020 1463 1030.5 c 128,-1,70
 1433 1041 1433 1041 1406 1064.5 c 128,-1,71
 1379 1088 1379 1088 1356 1125.5 c 128,-1,72
 1333 1163 1333 1163 1317 1217 c 1,73,-1
 1278 1384 l 1,74,-1
 944 1384 l 1,75,-1
 944 924 l 1,76,-1
 1024 934 l 1,77,78
 1044 974 1044 974 1060 1008 c 128,-1,79
 1076 1042 1076 1042 1093 1066.5 c 128,-1,80
 1110 1091 1110 1091 1132 1104.5 c 128,-1,81
 1154 1118 1154 1118 1186 1118 c 0,82,83
 1241 1118 1241 1118 1280 1094.5 c 128,-1,84
 1319 1071 1319 1071 1344 1033 c 128,-1,85
 1369 995 1369 995 1381 945.5 c 128,-1,86
 1393 896 1393 896 1393 844 c 0,0,1
EndSplineSet
Validated: 1
EndChar

StartChar: F
Encoding: 70 70 41
Width: 1660
Flags: W
HStem: 0 21G<474 592> 557 551<1040.88 1251.15> 1384 209<863 1270>
VStem: 201 662<312.593 752 913 1281.78> 1270 371<1114.12 1383.49>
LayerCount: 2
Fore
SplineSet
967 924 m 1,0,1
 987 964 987 964 1003 998 c 128,-1,2
 1019 1032 1019 1032 1036 1056.5 c 128,-1,3
 1053 1081 1053 1081 1075 1094.5 c 128,-1,4
 1097 1108 1097 1108 1129 1108 c 0,5,6
 1183 1108 1183 1108 1222.5 1084.5 c 128,-1,7
 1262 1061 1262 1061 1287 1023 c 128,-1,8
 1312 985 1312 985 1324 935.5 c 128,-1,9
 1336 886 1336 886 1336 834 c 0,10,11
 1336 781 1336 781 1324 731 c 128,-1,12
 1312 681 1312 681 1287 642.5 c 128,-1,13
 1262 604 1262 604 1222.5 580.5 c 128,-1,14
 1183 557 1183 557 1129 557 c 0,15,16
 1097 557 1097 557 1075 570.5 c 128,-1,17
 1053 584 1053 584 1036 608.5 c 128,-1,18
 1019 633 1019 633 1003 666.5 c 128,-1,19
 987 700 987 700 967 741 c 1,20,-1
 863 752 l 1,21,-1
 863 420 l 2,22,23
 863 376 863 376 875 351.5 c 128,-1,24
 887 327 887 327 905 314.5 c 128,-1,25
 923 302 923 302 944 297 c 128,-1,26
 965 292 965 292 983 286.5 c 128,-1,27
 1001 281 1001 281 1013 270.5 c 128,-1,28
 1025 260 1025 260 1025 236 c 0,29,30
 1025 174 1025 174 992.5 129 c 128,-1,31
 960 84 960 84 897 55.5 c 128,-1,32
 834 27 834 27 742.5 13.5 c 128,-1,33
 651 0 651 0 533 0 c 256,34,35
 415 0 415 0 323.5 13.5 c 128,-1,36
 232 27 232 27 169.5 55.5 c 128,-1,37
 107 84 107 84 74.5 129 c 128,-1,38
 42 174 42 174 42 236 c 0,39,40
 42 260 42 260 54 270.5 c 128,-1,41
 66 281 66 281 83.5 286.5 c 128,-1,42
 101 292 101 292 121.5 297 c 128,-1,43
 142 302 142 302 159.5 314.5 c 128,-1,44
 177 327 177 327 189 351 c 128,-1,45
 201 375 201 375 201 420 c 2,46,-1
 201 1174 l 2,47,48
 201 1218 201 1218 189 1242.5 c 128,-1,49
 177 1267 177 1267 159.5 1279.5 c 128,-1,50
 142 1292 142 1292 121.5 1297 c 128,-1,51
 101 1302 101 1302 83.5 1307.5 c 128,-1,52
 66 1313 66 1313 54 1323.5 c 128,-1,53
 42 1334 42 1334 42 1358 c 0,54,55
 42 1420 42 1420 74.5 1464.5 c 128,-1,56
 107 1509 107 1509 169.5 1537.5 c 128,-1,57
 232 1566 232 1566 323.5 1579.5 c 128,-1,58
 415 1593 415 1593 533 1593 c 2,59,-1
 1354 1593 l 2,60,61
 1427 1593 1427 1593 1481 1553 c 128,-1,62
 1535 1513 1535 1513 1570.5 1452.5 c 128,-1,63
 1606 1392 1606 1392 1623.5 1322 c 128,-1,64
 1641 1252 1641 1252 1641 1192 c 0,65,66
 1641 1152 1641 1152 1628.5 1120 c 128,-1,67
 1616 1088 1616 1088 1593.5 1066 c 128,-1,68
 1571 1044 1571 1044 1540.5 1032 c 128,-1,69
 1510 1020 1510 1020 1475 1020 c 0,70,71
 1444 1020 1444 1020 1414 1030.5 c 128,-1,72
 1384 1041 1384 1041 1357 1064.5 c 128,-1,73
 1330 1088 1330 1088 1307.5 1125.5 c 128,-1,74
 1285 1163 1285 1163 1270 1217 c 1,75,-1
 1270 1384 l 1,76,-1
 863 1384 l 1,77,-1
 863 913 l 1,78,-1
 967 924 l 1,0,1
EndSplineSet
Validated: 1
EndChar

StartChar: G
Encoding: 71 71 42
Width: 1709
Flags: W
HStem: -25 353<932.563 1107.87> 1372 248<896.976 1127.13>
VStem: 44 721<593.034 1058.21> 927 772<566.892 775.506> 1109 496<331.394 512.256>
LayerCount: 2
Fore
SplineSet
1605 420 m 0,0,1
 1605 347 1605 347 1580 286 c 128,-1,2
 1555 225 1555 225 1510.5 175.5 c 128,-1,3
 1466 126 1466 126 1404 88.5 c 128,-1,4
 1342 51 1342 51 1268.5 26 c 128,-1,5
 1195 1 1195 1 1112 -12 c 128,-1,6
 1029 -25 1029 -25 943 -25 c 0,7,8
 837 -25 837 -25 728.5 -5 c 128,-1,9
 620 15 620 15 520.5 56.5 c 128,-1,10
 421 98 421 98 334 161.5 c 128,-1,11
 247 225 247 225 182.5 312 c 128,-1,12
 118 399 118 399 81 510 c 128,-1,13
 44 621 44 621 44 758 c 0,14,15
 44 911 44 911 81 1034.5 c 128,-1,16
 118 1158 118 1158 182 1253.5 c 128,-1,17
 246 1349 246 1349 333 1418.5 c 128,-1,18
 420 1488 420 1488 519 1532.5 c 128,-1,19
 618 1577 618 1577 725 1598.5 c 128,-1,20
 832 1620 832 1620 937 1620 c 0,21,22
 1063 1620 1063 1620 1178.5 1590.5 c 128,-1,23
 1294 1561 1294 1561 1382.5 1505.5 c 128,-1,24
 1471 1450 1471 1450 1523.5 1369.5 c 128,-1,25
 1576 1289 1576 1289 1576 1188 c 0,26,27
 1576 1148 1576 1148 1563.5 1116 c 128,-1,28
 1551 1084 1551 1084 1528.5 1062 c 128,-1,29
 1506 1040 1506 1040 1475.5 1028 c 128,-1,30
 1445 1016 1445 1016 1410 1016 c 0,31,32
 1379 1016 1379 1016 1348 1026 c 128,-1,33
 1317 1036 1317 1036 1289 1059.5 c 128,-1,34
 1261 1083 1261 1083 1239 1120.5 c 128,-1,35
 1217 1158 1217 1158 1204 1212 c 0,36,37
 1195 1251 1195 1251 1172.5 1281 c 128,-1,38
 1150 1311 1150 1311 1121.5 1331.5 c 128,-1,39
 1093 1352 1093 1352 1063 1362 c 128,-1,40
 1033 1372 1033 1372 1009 1372 c 0,41,42
 972 1372 972 1372 929 1349 c 128,-1,43
 886 1326 886 1326 849.5 1278.5 c 128,-1,44
 813 1231 813 1231 789 1158 c 128,-1,45
 765 1085 765 1085 765 985 c 0,46,47
 765 853 765 853 778.5 752.5 c 128,-1,48
 792 652 792 652 814 579 c 128,-1,49
 836 506 836 506 864.5 457.5 c 128,-1,50
 893 409 893 409 923.5 380.5 c 128,-1,51
 954 352 954 352 984 340 c 128,-1,52
 1014 328 1014 328 1039 328 c 0,53,54
 1070 328 1070 328 1089.5 342 c 128,-1,55
 1109 356 1109 356 1109 375 c 0,56,57
 1109 433 1109 433 1095.5 465 c 128,-1,58
 1082 497 1082 497 1062 514.5 c 128,-1,59
 1042 532 1042 532 1018 539.5 c 128,-1,60
 994 547 994 547 974 556.5 c 128,-1,61
 954 566 954 566 940.5 583 c 128,-1,62
 927 600 927 600 927 635 c 0,63,64
 927 713 927 713 959.5 760 c 128,-1,65
 992 807 992 807 1045 832 c 128,-1,66
 1098 857 1098 857 1166 864.5 c 128,-1,67
 1234 872 1234 872 1306 872 c 0,68,69
 1423 872 1423 872 1499 860.5 c 128,-1,70
 1575 849 1575 849 1619.5 828.5 c 128,-1,71
 1664 808 1664 808 1681.5 780 c 128,-1,72
 1699 752 1699 752 1699 719 c 0,73,74
 1699 670 1699 670 1692 641.5 c 128,-1,75
 1685 613 1685 613 1674.5 595 c 128,-1,76
 1664 577 1664 577 1652 564.5 c 128,-1,77
 1640 552 1640 552 1629.5 535.5 c 128,-1,78
 1619 519 1619 519 1612 492.5 c 128,-1,79
 1605 466 1605 466 1605 420 c 0,0,1
EndSplineSet
Validated: 1
EndChar

StartChar: H
Encoding: 72 72 43
Width: 2226
Flags: W
HStem: 0 21G<487 668 1618 1739> 729 193<888 1337> 1573 20G<487 607 1556.5 1799.5>
VStem: 214 672<314.893 729 922 1280.27> 1337 671<315.195 729 922 1280.27>
LayerCount: 2
Fore
SplineSet
1337 729 m 1,0,-1
 886 729 l 1,1,-1
 886 424 l 2,2,3
 886 379 886 379 898.5 354 c 128,-1,4
 911 329 911 329 929 316 c 128,-1,5
 947 303 947 303 968 298 c 128,-1,6
 989 293 989 293 1006.5 287 c 128,-1,7
 1024 281 1024 281 1036 270.5 c 128,-1,8
 1048 260 1048 260 1048 236 c 0,9,10
 1048 111 1048 111 919 55.5 c 128,-1,11
 790 0 790 0 546 0 c 0,12,13
 428 0 428 0 336.5 13.5 c 128,-1,14
 245 27 245 27 182.5 55.5 c 128,-1,15
 120 84 120 84 87.5 129 c 128,-1,16
 55 174 55 174 55 236 c 0,17,18
 55 260 55 260 67 270.5 c 128,-1,19
 79 281 79 281 96.5 286.5 c 128,-1,20
 114 292 114 292 134.5 297 c 128,-1,21
 155 302 155 302 172.5 314.5 c 128,-1,22
 190 327 190 327 202 351 c 128,-1,23
 214 375 214 375 214 420 c 2,24,-1
 214 1174 l 2,25,26
 214 1218 214 1218 202 1242.5 c 128,-1,27
 190 1267 190 1267 172.5 1279.5 c 128,-1,28
 155 1292 155 1292 134.5 1297 c 128,-1,29
 114 1302 114 1302 96.5 1307.5 c 128,-1,30
 79 1313 79 1313 67 1323.5 c 128,-1,31
 55 1334 55 1334 55 1358 c 0,32,33
 55 1420 55 1420 87.5 1464.5 c 128,-1,34
 120 1509 120 1509 182.5 1537.5 c 128,-1,35
 245 1566 245 1566 336.5 1579.5 c 128,-1,36
 428 1593 428 1593 546 1593 c 0,37,38
 668 1593 668 1593 762 1579.5 c 128,-1,39
 856 1566 856 1566 919.5 1537.5 c 128,-1,40
 983 1509 983 1509 1015.5 1464.5 c 128,-1,41
 1048 1420 1048 1420 1048 1358 c 0,42,43
 1048 1334 1048 1334 1036 1323.5 c 128,-1,44
 1024 1313 1024 1313 1006.5 1307.5 c 128,-1,45
 989 1302 989 1302 968 1297 c 128,-1,46
 947 1292 947 1292 929.5 1279.5 c 128,-1,47
 912 1267 912 1267 900 1242.5 c 128,-1,48
 888 1218 888 1218 888 1174 c 2,49,-1
 888 922 l 1,50,-1
 1337 922 l 1,51,-1
 1337 1174 l 2,52,53
 1337 1218 1337 1218 1325 1242.5 c 128,-1,54
 1313 1267 1313 1267 1295.5 1279.5 c 128,-1,55
 1278 1292 1278 1292 1257 1297 c 128,-1,56
 1236 1302 1236 1302 1218.5 1307.5 c 128,-1,57
 1201 1313 1201 1313 1189 1323.5 c 128,-1,58
 1177 1334 1177 1334 1177 1358 c 0,59,60
 1177 1482 1177 1482 1305.5 1537.5 c 128,-1,61
 1434 1593 1434 1593 1679 1593 c 0,62,63
 1920 1593 1920 1593 2048 1537.5 c 128,-1,64
 2176 1482 2176 1482 2176 1358 c 0,65,66
 2176 1334 2176 1334 2163.5 1323.5 c 128,-1,67
 2151 1313 2151 1313 2132.5 1307.5 c 128,-1,68
 2114 1302 2114 1302 2092 1297 c 128,-1,69
 2070 1292 2070 1292 2051.5 1279.5 c 128,-1,70
 2033 1267 2033 1267 2020.5 1242.5 c 128,-1,71
 2008 1218 2008 1218 2008 1174 c 2,72,-1
 2008 424 l 2,73,74
 2008 379 2008 379 2020.5 354 c 128,-1,75
 2033 329 2033 329 2051.5 316 c 128,-1,76
 2070 303 2070 303 2092 298 c 128,-1,77
 2114 293 2114 293 2132.5 287 c 128,-1,78
 2151 281 2151 281 2163.5 270.5 c 128,-1,79
 2176 260 2176 260 2176 236 c 0,80,81
 2176 174 2176 174 2143.5 129 c 128,-1,82
 2111 84 2111 84 2048 55.5 c 128,-1,83
 1985 27 1985 27 1892 13.5 c 128,-1,84
 1799 0 1799 0 1679 0 c 0,85,86
 1557 0 1557 0 1463 13.5 c 128,-1,87
 1369 27 1369 27 1305.5 55.5 c 128,-1,88
 1242 84 1242 84 1209.5 129 c 128,-1,89
 1177 174 1177 174 1177 236 c 0,90,91
 1177 260 1177 260 1189 270.5 c 128,-1,92
 1201 281 1201 281 1218.5 287 c 128,-1,93
 1236 293 1236 293 1257 298 c 128,-1,94
 1278 303 1278 303 1295.5 316 c 128,-1,95
 1313 329 1313 329 1325 353.5 c 128,-1,96
 1337 378 1337 378 1337 424 c 2,97,-1
 1337 729 l 1,0,-1
EndSplineSet
Validated: 1
EndChar

StartChar: I
Encoding: 73 73 44
Width: 1097
Flags: W
HStem: 0 21G<486 667> 1573 20G<486 606>
VStem: 213 672<314.111 1280.27>
LayerCount: 2
Fore
SplineSet
885 424 m 2,0,1
 885 379 885 379 897 354 c 128,-1,2
 909 329 909 329 927 316 c 128,-1,3
 945 303 945 303 966 298 c 128,-1,4
 987 293 987 293 1005 287 c 128,-1,5
 1023 281 1023 281 1035 270.5 c 128,-1,6
 1047 260 1047 260 1047 236 c 0,7,8
 1047 111 1047 111 918 55.5 c 128,-1,9
 789 0 789 0 545 0 c 0,10,11
 427 0 427 0 335.5 13.5 c 128,-1,12
 244 27 244 27 181.5 55.5 c 128,-1,13
 119 84 119 84 86.5 129 c 128,-1,14
 54 174 54 174 54 236 c 0,15,16
 54 260 54 260 66 270.5 c 128,-1,17
 78 281 78 281 95.5 286.5 c 128,-1,18
 113 292 113 292 133.5 297 c 128,-1,19
 154 302 154 302 171.5 314.5 c 128,-1,20
 189 327 189 327 201 351 c 128,-1,21
 213 375 213 375 213 420 c 2,22,-1
 213 1174 l 2,23,24
 213 1218 213 1218 201 1242.5 c 128,-1,25
 189 1267 189 1267 171.5 1279.5 c 128,-1,26
 154 1292 154 1292 133.5 1297 c 128,-1,27
 113 1302 113 1302 95.5 1307.5 c 128,-1,28
 78 1313 78 1313 66 1323.5 c 128,-1,29
 54 1334 54 1334 54 1358 c 0,30,31
 54 1420 54 1420 86.5 1464.5 c 128,-1,32
 119 1509 119 1509 181.5 1537.5 c 128,-1,33
 244 1566 244 1566 335.5 1579.5 c 128,-1,34
 427 1593 427 1593 545 1593 c 0,35,36
 667 1593 667 1593 761 1579.5 c 128,-1,37
 855 1566 855 1566 918.5 1537.5 c 128,-1,38
 982 1509 982 1509 1014.5 1464.5 c 128,-1,39
 1047 1420 1047 1420 1047 1358 c 0,40,41
 1047 1334 1047 1334 1035 1323.5 c 128,-1,42
 1023 1313 1023 1313 1005.5 1307.5 c 128,-1,43
 988 1302 988 1302 967 1297 c 128,-1,44
 946 1292 946 1292 928.5 1279.5 c 128,-1,45
 911 1267 911 1267 899 1242.5 c 128,-1,46
 887 1218 887 1218 887 1174 c 2,47,-1
 885 424 l 2,0,1
EndSplineSet
Validated: 1
EndChar

StartChar: J
Encoding: 74 74 45
Width: 1623
Flags: W
HStem: -25 287<489.817 779.5> 1573 20G<978.5 1160>
VStem: 759 672<334.957 1281.37>
LayerCount: 2
Fore
SplineSet
325 858 m 0,0,1
 376 858 376 858 431 844.5 c 128,-1,2
 486 831 486 831 532 802.5 c 128,-1,3
 578 774 578 774 608 729.5 c 128,-1,4
 638 685 638 685 638 623 c 0,5,6
 638 585 638 585 627 551 c 128,-1,7
 616 517 616 517 599.5 486.5 c 128,-1,8
 583 456 583 456 563.5 430 c 128,-1,9
 544 404 544 404 527.5 381.5 c 128,-1,10
 511 359 511 359 500 341 c 128,-1,11
 489 323 489 323 489 309 c 0,12,13
 489 288 489 288 513.5 275 c 128,-1,14
 538 262 538 262 577 262 c 0,15,16
 613 262 613 262 646 275.5 c 128,-1,17
 679 289 679 289 704 319.5 c 128,-1,18
 729 350 729 350 744 399.5 c 128,-1,19
 759 449 759 449 759 520 c 2,20,-1
 759 1176 l 2,21,22
 759 1220 759 1220 747 1244.5 c 128,-1,23
 735 1269 735 1269 717.5 1281 c 128,-1,24
 700 1293 700 1293 679 1297.5 c 128,-1,25
 658 1302 658 1302 640.5 1307.5 c 128,-1,26
 623 1313 623 1313 611 1323.5 c 128,-1,27
 599 1334 599 1334 599 1358 c 0,28,29
 599 1482 599 1482 727.5 1537.5 c 128,-1,30
 856 1593 856 1593 1101 1593 c 0,31,32
 1219 1593 1219 1593 1310.5 1579.5 c 128,-1,33
 1402 1566 1402 1566 1464.5 1537.5 c 128,-1,34
 1527 1509 1527 1509 1559.5 1464.5 c 128,-1,35
 1592 1420 1592 1420 1592 1358 c 0,36,37
 1592 1334 1592 1334 1580 1323.5 c 128,-1,38
 1568 1313 1568 1313 1550 1307.5 c 128,-1,39
 1532 1302 1532 1302 1511.5 1297 c 128,-1,40
 1491 1292 1491 1292 1473 1279.5 c 128,-1,41
 1455 1267 1455 1267 1443 1242.5 c 128,-1,42
 1431 1218 1431 1218 1431 1174 c 2,43,-1
 1431 520 l 2,44,45
 1431 428 1431 428 1403.5 351.5 c 128,-1,46
 1376 275 1376 275 1328 214.5 c 128,-1,47
 1280 154 1280 154 1214 109 c 128,-1,48
 1148 64 1148 64 1071 34 c 128,-1,49
 994 4 994 4 908.5 -10.5 c 128,-1,50
 823 -25 823 -25 736 -25 c 0,51,52
 647 -25 647 -25 558.5 -9.5 c 128,-1,53
 470 6 470 6 389.5 36.5 c 128,-1,54
 309 67 309 67 240 112.5 c 128,-1,55
 171 158 171 158 120.5 218.5 c 128,-1,56
 70 279 70 279 41.5 354.5 c 128,-1,57
 13 430 13 430 13 520 c 0,58,59
 13 587 13 587 34 648.5 c 128,-1,60
 55 710 55 710 95 756.5 c 128,-1,61
 135 803 135 803 193 830.5 c 128,-1,62
 251 858 251 858 325 858 c 0,0,1
EndSplineSet
Validated: 1
EndChar

StartChar: K
Encoding: 75 75 46
Width: 2081
Flags: W
HStem: 0 21G<487 668 1561 1735> 682 180<886 1022.38> 1573 20G<487 607 1612 1686>
VStem: 214 672<314.111 682 862 1281.41> 1234 862<155.5 358.5>
LayerCount: 2
Fore
SplineSet
1343 1174 m 1,0,1
 1372 1192 1372 1192 1380 1210.5 c 128,-1,2
 1388 1229 1388 1229 1388 1241 c 0,3,4
 1388 1258 1388 1258 1371.5 1271.5 c 128,-1,5
 1355 1285 1355 1285 1334.5 1299.5 c 128,-1,6
 1314 1314 1314 1314 1297.5 1331 c 128,-1,7
 1281 1348 1281 1348 1281 1372 c 0,8,9
 1281 1436 1281 1436 1312.5 1479 c 128,-1,10
 1344 1522 1344 1522 1395.5 1547 c 128,-1,11
 1447 1572 1447 1572 1512.5 1582.5 c 128,-1,12
 1578 1593 1578 1593 1646 1593 c 0,13,14
 1726 1593 1726 1593 1797.5 1581 c 128,-1,15
 1869 1569 1869 1569 1923 1544 c 128,-1,16
 1977 1519 1977 1519 2009 1479 c 128,-1,17
 2041 1439 2041 1439 2041 1384 c 0,18,19
 2041 1349 2041 1349 2022.5 1328 c 128,-1,20
 2004 1307 2004 1307 1972.5 1292.5 c 128,-1,21
 1941 1278 1941 1278 1900 1267.5 c 128,-1,22
 1859 1257 1859 1257 1815 1243 c 128,-1,23
 1771 1229 1771 1229 1726.5 1207.5 c 128,-1,24
 1682 1186 1682 1186 1644 1151 c 2,25,-1
 1433 956 l 1,26,-1
 1851 424 l 2,27,28
 1882 384 1882 384 1912.5 362 c 128,-1,29
 1943 340 1943 340 1970 327 c 128,-1,30
 1997 314 1997 314 2020 306.5 c 128,-1,31
 2043 299 2043 299 2060 289 c 128,-1,32
 2077 279 2077 279 2086.5 261.5 c 128,-1,33
 2096 244 2096 244 2096 211 c 0,34,35
 2096 100 2096 100 1973.5 50 c 128,-1,36
 1851 0 1851 0 1619 0 c 0,37,38
 1503 0 1503 0 1411 14 c 128,-1,39
 1319 28 1319 28 1254.5 57.5 c 128,-1,40
 1190 87 1190 87 1156 132.5 c 128,-1,41
 1122 178 1122 178 1122 242 c 0,42,43
 1122 267 1122 267 1139.5 280 c 128,-1,44
 1157 293 1157 293 1178 302.5 c 128,-1,45
 1199 312 1199 312 1216.5 322 c 128,-1,46
 1234 332 1234 332 1234 352 c 0,47,48
 1234 365 1234 365 1225.5 380.5 c 128,-1,49
 1217 396 1217 396 1199 420 c 2,50,-1
 1027 645 l 2,51,52
 1017 658 1017 658 1003 665.5 c 128,-1,53
 989 673 989 673 973.5 677 c 128,-1,54
 958 681 958 681 940.5 681.5 c 128,-1,55
 923 682 923 682 906 682 c 2,56,-1
 886 682 l 1,57,-1
 886 424 l 2,58,59
 886 379 886 379 898 354 c 128,-1,60
 910 329 910 329 928 316 c 128,-1,61
 946 303 946 303 967 298 c 128,-1,62
 988 293 988 293 1006 287 c 128,-1,63
 1024 281 1024 281 1036 270.5 c 128,-1,64
 1048 260 1048 260 1048 236 c 0,65,66
 1048 111 1048 111 919 55.5 c 128,-1,67
 790 0 790 0 546 0 c 0,68,69
 428 0 428 0 336.5 13.5 c 128,-1,70
 245 27 245 27 182.5 55.5 c 128,-1,71
 120 84 120 84 87.5 129 c 128,-1,72
 55 174 55 174 55 236 c 0,73,74
 55 260 55 260 67 270.5 c 128,-1,75
 79 281 79 281 96.5 286.5 c 128,-1,76
 114 292 114 292 134.5 297 c 128,-1,77
 155 302 155 302 172.5 314.5 c 128,-1,78
 190 327 190 327 202 351 c 128,-1,79
 214 375 214 375 214 420 c 2,80,-1
 214 1174 l 2,81,82
 214 1218 214 1218 202 1242.5 c 128,-1,83
 190 1267 190 1267 172.5 1279.5 c 128,-1,84
 155 1292 155 1292 134.5 1297 c 128,-1,85
 114 1302 114 1302 96.5 1307.5 c 128,-1,86
 79 1313 79 1313 67 1323.5 c 128,-1,87
 55 1334 55 1334 55 1358 c 0,88,89
 55 1420 55 1420 87.5 1464.5 c 128,-1,90
 120 1509 120 1509 182.5 1537.5 c 128,-1,91
 245 1566 245 1566 336.5 1579.5 c 128,-1,92
 428 1593 428 1593 546 1593 c 0,93,94
 668 1593 668 1593 762 1579.5 c 128,-1,95
 856 1566 856 1566 919.5 1537.5 c 128,-1,96
 983 1509 983 1509 1015.5 1464.5 c 128,-1,97
 1048 1420 1048 1420 1048 1358 c 0,98,99
 1048 1334 1048 1334 1036 1323.5 c 128,-1,100
 1024 1313 1024 1313 1006 1307.5 c 128,-1,101
 988 1302 988 1302 967 1297 c 128,-1,102
 946 1292 946 1292 928 1279.5 c 128,-1,103
 910 1267 910 1267 898 1242.5 c 128,-1,104
 886 1218 886 1218 886 1174 c 2,105,-1
 886 862 l 1,106,107
 914 862 914 862 945 865 c 128,-1,108
 976 868 976 868 1001 887 c 1,109,-1
 1343 1174 l 1,0,1
EndSplineSet
Validated: 1
EndChar

StartChar: L
Encoding: 76 76 47
Width: 1542
Flags: W
HStem: 0 216<910.955 1101> 1573 20G<487 607>
VStem: 214 672<312.829 1280.27>
LayerCount: 2
Fore
SplineSet
886 360 m 2,0,1
 886 314 886 314 897.5 286 c 128,-1,2
 909 258 909 258 926.5 242.5 c 128,-1,3
 944 227 944 227 965 221.5 c 128,-1,4
 986 216 986 216 1004 216 c 0,5,6
 1006 216 1006 216 1009 216.5 c 128,-1,7
 1012 217 1012 217 1021.5 217.5 c 128,-1,8
 1031 218 1031 218 1049.5 220 c 128,-1,9
 1068 222 1068 222 1101 225 c 1,10,-1
 1142 399 l 1,11,12
 1159 456 1159 456 1183 495.5 c 128,-1,13
 1207 535 1207 535 1235.5 559.5 c 128,-1,14
 1264 584 1264 584 1295.5 595 c 128,-1,15
 1327 606 1327 606 1359 606 c 0,16,17
 1397 606 1397 606 1429 593.5 c 128,-1,18
 1461 581 1461 581 1484 557.5 c 128,-1,19
 1507 534 1507 534 1520 500 c 128,-1,20
 1533 466 1533 466 1533 424 c 0,21,22
 1533 383 1533 383 1525 335 c 128,-1,23
 1517 287 1517 287 1500 240 c 128,-1,24
 1483 193 1483 193 1458 149.5 c 128,-1,25
 1433 106 1433 106 1399.5 73 c 128,-1,26
 1366 40 1366 40 1323.5 20 c 128,-1,27
 1281 0 1281 0 1230 0 c 2,28,-1
 546 0 l 2,29,30
 428 0 428 0 336.5 13.5 c 128,-1,31
 245 27 245 27 182.5 55.5 c 128,-1,32
 120 84 120 84 87.5 129 c 128,-1,33
 55 174 55 174 55 236 c 0,34,35
 55 260 55 260 67 270.5 c 128,-1,36
 79 281 79 281 96.5 286.5 c 128,-1,37
 114 292 114 292 134.5 297 c 128,-1,38
 155 302 155 302 172.5 314.5 c 128,-1,39
 190 327 190 327 202 351 c 128,-1,40
 214 375 214 375 214 420 c 2,41,-1
 214 1174 l 2,42,43
 214 1218 214 1218 202 1242.5 c 128,-1,44
 190 1267 190 1267 172.5 1279.5 c 128,-1,45
 155 1292 155 1292 134.5 1297 c 128,-1,46
 114 1302 114 1302 96.5 1307.5 c 128,-1,47
 79 1313 79 1313 67 1323.5 c 128,-1,48
 55 1334 55 1334 55 1358 c 0,49,50
 55 1420 55 1420 87.5 1464.5 c 128,-1,51
 120 1509 120 1509 182.5 1537.5 c 128,-1,52
 245 1566 245 1566 336.5 1579.5 c 128,-1,53
 428 1593 428 1593 546 1593 c 0,54,55
 668 1593 668 1593 762 1579.5 c 128,-1,56
 856 1566 856 1566 919.5 1537.5 c 128,-1,57
 983 1509 983 1509 1015.5 1464.5 c 128,-1,58
 1048 1420 1048 1420 1048 1358 c 0,59,60
 1048 1334 1048 1334 1036 1323.5 c 128,-1,61
 1024 1313 1024 1313 1006.5 1307.5 c 128,-1,62
 989 1302 989 1302 968 1297 c 128,-1,63
 947 1292 947 1292 929.5 1279.5 c 128,-1,64
 912 1267 912 1267 900 1242.5 c 128,-1,65
 888 1218 888 1218 888 1174 c 2,66,-1
 886 360 l 2,0,1
EndSplineSet
Validated: 1
EndChar

StartChar: M
Encoding: 77 77 48
Width: 2219
Flags: W
HStem: 0 21G<345 400.5 1604 1785> 1573 20G<395 471 1663.5 1761>
VStem: 62 612<104.993 270.169> 221 291<314.111 838> 1331 672<314.111 836>
LayerCount: 2
Fore
SplineSet
512 838 m 1,0,-1
 512 424 l 2,1,2
 512 379 512 379 524 354 c 128,-1,3
 536 329 536 329 554 316 c 128,-1,4
 572 303 572 303 593 298 c 128,-1,5
 614 293 614 293 632 287 c 128,-1,6
 650 281 650 281 662 270.5 c 128,-1,7
 674 260 674 260 674 236 c 0,8,9
 674 174 674 174 646.5 129 c 128,-1,10
 619 84 619 84 576 55.5 c 128,-1,11
 533 27 533 27 479.5 13.5 c 128,-1,12
 426 0 426 0 375 0 c 0,13,14
 315 0 315 0 258.5 13.5 c 128,-1,15
 202 27 202 27 158.5 55.5 c 128,-1,16
 115 84 115 84 88.5 129 c 128,-1,17
 62 174 62 174 62 236 c 0,18,19
 62 260 62 260 74 270.5 c 128,-1,20
 86 281 86 281 103.5 286.5 c 128,-1,21
 121 292 121 292 141.5 297 c 128,-1,22
 162 302 162 302 179.5 314.5 c 128,-1,23
 197 327 197 327 209 351 c 128,-1,24
 221 375 221 375 221 420 c 2,25,-1
 221 1174 l 2,26,27
 221 1218 221 1218 209 1242.5 c 128,-1,28
 197 1267 197 1267 179.5 1279.5 c 128,-1,29
 162 1292 162 1292 141.5 1297 c 128,-1,30
 121 1302 121 1302 103.5 1307.5 c 128,-1,31
 86 1313 86 1313 74 1323.5 c 128,-1,32
 62 1334 62 1334 62 1358 c 0,33,34
 62 1420 62 1420 91 1464.5 c 128,-1,35
 120 1509 120 1509 170.5 1537.5 c 128,-1,36
 221 1566 221 1566 288.5 1579.5 c 128,-1,37
 356 1593 356 1593 434 1593 c 0,38,39
 508 1593 508 1593 558.5 1579 c 128,-1,40
 609 1565 609 1565 649 1534.5 c 128,-1,41
 689 1504 689 1504 724.5 1455 c 128,-1,42
 760 1406 760 1406 803 1337 c 2,43,-1
 1071 903 l 1,44,-1
 1313 1315 l 2,45,46
 1346 1372 1346 1372 1383.5 1422.5 c 128,-1,47
 1421 1473 1421 1473 1467 1511 c 128,-1,48
 1513 1549 1513 1549 1570 1571 c 128,-1,49
 1627 1593 1627 1593 1700 1593 c 0,50,51
 1822 1593 1822 1593 1910 1579.5 c 128,-1,52
 1998 1566 1998 1566 2054.5 1537.5 c 128,-1,53
 2111 1509 2111 1509 2138 1464.5 c 128,-1,54
 2165 1420 2165 1420 2165 1358 c 0,55,56
 2165 1334 2165 1334 2153 1323.5 c 128,-1,57
 2141 1313 2141 1313 2123 1307.5 c 128,-1,58
 2105 1302 2105 1302 2084 1297 c 128,-1,59
 2063 1292 2063 1292 2045 1279.5 c 128,-1,60
 2027 1267 2027 1267 2015 1242.5 c 128,-1,61
 2003 1218 2003 1218 2003 1174 c 2,62,-1
 2003 424 l 2,63,64
 2003 379 2003 379 2015 354 c 128,-1,65
 2027 329 2027 329 2045 316 c 128,-1,66
 2063 303 2063 303 2084 298 c 128,-1,67
 2105 293 2105 293 2123 287 c 128,-1,68
 2141 281 2141 281 2153 270.5 c 128,-1,69
 2165 260 2165 260 2165 236 c 0,70,71
 2165 111 2165 111 2036 55.5 c 128,-1,72
 1907 0 1907 0 1663 0 c 0,73,74
 1545 0 1545 0 1453.5 13.5 c 128,-1,75
 1362 27 1362 27 1299.5 55.5 c 128,-1,76
 1237 84 1237 84 1204.5 129 c 128,-1,77
 1172 174 1172 174 1172 236 c 0,78,79
 1172 260 1172 260 1184 270.5 c 128,-1,80
 1196 281 1196 281 1213.5 286.5 c 128,-1,81
 1231 292 1231 292 1251.5 297 c 128,-1,82
 1272 302 1272 302 1289.5 314.5 c 128,-1,83
 1307 327 1307 327 1319 351 c 128,-1,84
 1331 375 1331 375 1331 420 c 2,85,-1
 1331 836 l 1,86,-1
 973 236 l 1,87,88
 961 213 961 213 935 213 c 0,89,90
 912 213 912 213 895 236 c 1,91,-1
 512 838 l 1,0,-1
EndSplineSet
Validated: 1
EndChar

StartChar: N
Encoding: 78 78 49
Width: 1811
Flags: W
HStem: 0 21G<347 402.5 1438 1467> 1573 20G<353 413 1422.5 1478>
VStem: 64 612<104.993 270.169> 223 291<314.111 780.998> 1149 612<1323.83 1488.27> 1311 293<888.675 1279.89>
LayerCount: 2
Fore
SplineSet
533 776 m 1,0,1
 526 781 526 781 522 781 c 0,2,3
 513 781 513 781 513 771 c 0,4,5
 513 768 513 768 514 766 c 1,6,-1
 514 424 l 2,7,8
 514 379 514 379 526 354 c 128,-1,9
 538 329 538 329 556 316 c 128,-1,10
 574 303 574 303 595 298 c 128,-1,11
 616 293 616 293 634 287 c 128,-1,12
 652 281 652 281 664 270.5 c 128,-1,13
 676 260 676 260 676 236 c 0,14,15
 676 174 676 174 648.5 129 c 128,-1,16
 621 84 621 84 578 55.5 c 128,-1,17
 535 27 535 27 481.5 13.5 c 128,-1,18
 428 0 428 0 377 0 c 0,19,20
 317 0 317 0 260.5 13.5 c 128,-1,21
 204 27 204 27 160.5 55.5 c 128,-1,22
 117 84 117 84 90.5 129 c 128,-1,23
 64 174 64 174 64 236 c 0,24,25
 64 260 64 260 76 270.5 c 128,-1,26
 88 281 88 281 105.5 286.5 c 128,-1,27
 123 292 123 292 143.5 297 c 128,-1,28
 164 302 164 302 181.5 314.5 c 128,-1,29
 199 327 199 327 211 351 c 128,-1,30
 223 375 223 375 223 420 c 2,31,-1
 223 1174 l 2,32,33
 223 1218 223 1218 211 1242.5 c 128,-1,34
 199 1267 199 1267 181.5 1279.5 c 128,-1,35
 164 1292 164 1292 143.5 1297 c 128,-1,36
 123 1302 123 1302 105.5 1307.5 c 128,-1,37
 88 1313 88 1313 76 1323.5 c 128,-1,38
 64 1334 64 1334 64 1358 c 0,39,40
 64 1420 64 1420 89 1464.5 c 128,-1,41
 114 1509 114 1509 157.5 1537.5 c 128,-1,42
 201 1566 201 1566 260 1579.5 c 128,-1,43
 319 1593 319 1593 387 1593 c 0,44,45
 439 1593 439 1593 476.5 1584.5 c 128,-1,46
 514 1576 514 1576 547.5 1556.5 c 128,-1,47
 581 1537 581 1537 618 1504 c 128,-1,48
 655 1471 655 1471 707 1423 c 2,49,-1
 1280 889 l 2,50,51
 1282 887 1282 887 1285.5 885 c 128,-1,52
 1289 883 1289 883 1294 883 c 0,53,54
 1300 883 1300 883 1305.5 888.5 c 128,-1,55
 1311 894 1311 894 1311 911 c 2,56,-1
 1311 1169 l 2,57,58
 1311 1215 1311 1215 1299 1240 c 128,-1,59
 1287 1265 1287 1265 1269 1278 c 128,-1,60
 1251 1291 1251 1291 1230 1296 c 128,-1,61
 1209 1301 1209 1301 1191 1307 c 128,-1,62
 1173 1313 1173 1313 1161 1323.5 c 128,-1,63
 1149 1334 1149 1334 1149 1358 c 0,64,65
 1149 1420 1149 1420 1176.5 1464.5 c 128,-1,66
 1204 1509 1204 1509 1247 1537.5 c 128,-1,67
 1290 1566 1290 1566 1343.5 1579.5 c 128,-1,68
 1397 1593 1397 1593 1448 1593 c 0,69,70
 1508 1593 1508 1593 1564.5 1579.5 c 128,-1,71
 1621 1566 1621 1566 1664.5 1537.5 c 128,-1,72
 1708 1509 1708 1509 1734.5 1464.5 c 128,-1,73
 1761 1420 1761 1420 1761 1358 c 0,74,75
 1761 1334 1761 1334 1749.5 1323.5 c 128,-1,76
 1738 1313 1738 1313 1720.5 1307.5 c 128,-1,77
 1703 1302 1703 1302 1682.5 1297 c 128,-1,78
 1662 1292 1662 1292 1644.5 1279.5 c 128,-1,79
 1627 1267 1627 1267 1615.5 1242.5 c 128,-1,80
 1604 1218 1604 1218 1604 1174 c 2,81,-1
 1604 215 l 2,82,83
 1604 149 1604 149 1593 107 c 128,-1,84
 1582 65 1582 65 1561.5 41.5 c 128,-1,85
 1541 18 1541 18 1512.5 9 c 128,-1,86
 1484 0 1484 0 1450 0 c 0,87,88
 1426 0 1426 0 1400 10 c 128,-1,89
 1374 20 1374 20 1345 39.5 c 128,-1,90
 1316 59 1316 59 1281 88 c 128,-1,91
 1246 117 1246 117 1204 154 c 1,92,-1
 533 776 l 1,0,1
EndSplineSet
Validated: 1
EndChar

StartChar: O
Encoding: 79 79 50
Width: 1899
Flags: W
HStem: -25 263<882.614 1055.42> 1354 266<829.613 1016.47>
VStem: 59 721<470.233 1135.93> 1112 727<477.472 1147.68>
LayerCount: 2
Fore
SplineSet
907 -25 m 0,0,1
 756 -25 756 -25 634 4.5 c 128,-1,2
 512 34 512 34 418 87 c 128,-1,3
 324 140 324 140 256 213 c 128,-1,4
 188 286 188 286 144 373 c 128,-1,5
 100 460 100 460 79.5 557.5 c 128,-1,6
 59 655 59 655 59 758 c 0,7,8
 59 876 59 876 72.5 985.5 c 128,-1,9
 86 1095 86 1095 122.5 1191 c 128,-1,10
 159 1287 159 1287 224 1366 c 128,-1,11
 289 1445 289 1445 392.5 1501.5 c 128,-1,12
 496 1558 496 1558 643 1589 c 128,-1,13
 790 1620 790 1620 991 1620 c 0,14,15
 1153 1620 1153 1620 1279 1590.5 c 128,-1,16
 1405 1561 1405 1561 1499.5 1508 c 128,-1,17
 1594 1455 1594 1455 1658.5 1382.5 c 128,-1,18
 1723 1310 1723 1310 1763.5 1224.5 c 128,-1,19
 1804 1139 1804 1139 1821.5 1043 c 128,-1,20
 1839 947 1839 947 1839 848 c 0,21,22
 1839 736 1839 736 1825.5 627.5 c 128,-1,23
 1812 519 1812 519 1775.5 422 c 128,-1,24
 1739 325 1739 325 1673.5 243 c 128,-1,25
 1608 161 1608 161 1504.5 101.5 c 128,-1,26
 1401 42 1401 42 1254 8.5 c 128,-1,27
 1107 -25 1107 -25 907 -25 c 0,0,1
964 238 m 0,28,29
 1009 238 1009 238 1037.5 263 c 128,-1,30
 1066 288 1066 288 1082.5 335 c 128,-1,31
 1099 382 1099 382 1105.5 450 c 128,-1,32
 1112 518 1112 518 1112 604 c 2,33,-1
 1112 649 l 2,34,35
 1112 725 1112 725 1111 806.5 c 128,-1,36
 1110 888 1110 888 1105 966.5 c 128,-1,37
 1100 1045 1100 1045 1088.5 1115 c 128,-1,38
 1077 1185 1077 1185 1056.5 1238.5 c 128,-1,39
 1036 1292 1036 1292 1004.5 1323 c 128,-1,40
 973 1354 973 1354 927 1354 c 0,41,42
 880 1354 880 1354 851 1332.5 c 128,-1,43
 822 1311 822 1311 806.5 1269.5 c 128,-1,44
 791 1228 791 1228 785.5 1167 c 128,-1,45
 780 1106 780 1106 780 1026 c 0,46,47
 780 953 780 953 781 866 c 128,-1,48
 782 779 782 779 787 691.5 c 128,-1,49
 792 604 792 604 803 522 c 128,-1,50
 814 440 814 440 834.5 377 c 128,-1,51
 855 314 855 314 886.5 276 c 128,-1,52
 918 238 918 238 964 238 c 0,28,29
EndSplineSet
Validated: 1
EndChar

StartChar: P
Encoding: 80 80 51
Width: 1895
Flags: W
HStem: 0 21G<488 669> 571 183<891.097 1131.5> 1399 194<907.509 1109.41>
VStem: 215 676<312.222 575 756.538 1281.37> 1174 698<905.383 1271.67>
LayerCount: 2
Fore
SplineSet
1035 754 m 0,0,1
 1081 754 1081 754 1109 776 c 128,-1,2
 1137 798 1137 798 1151 832 c 128,-1,3
 1165 866 1165 866 1169.5 908 c 128,-1,4
 1174 950 1174 950 1174 989 c 0,5,6
 1174 1015 1174 1015 1173 1037 c 128,-1,7
 1172 1059 1172 1059 1172 1077 c 0,8,9
 1172 1134 1172 1134 1167.5 1191.5 c 128,-1,10
 1163 1249 1163 1249 1145.5 1295 c 128,-1,11
 1128 1341 1128 1341 1093 1370 c 128,-1,12
 1058 1399 1058 1399 998 1399 c 0,13,14
 960 1399 960 1399 938.5 1386.5 c 128,-1,15
 917 1374 917 1374 906.5 1352 c 128,-1,16
 896 1330 896 1330 893.5 1301.5 c 128,-1,17
 891 1273 891 1273 891 1240 c 2,18,-1
 891 764 l 1,19,20
 894 761 894 761 910 759 c 0,21,22
 924 757 924 757 952.5 755.5 c 128,-1,23
 981 754 981 754 1035 754 c 0,0,1
1129 1593 m 2,24,25
 1317 1593 1317 1593 1456.5 1549.5 c 128,-1,26
 1596 1506 1596 1506 1688.5 1435.5 c 128,-1,27
 1781 1365 1781 1365 1826.5 1274.5 c 128,-1,28
 1872 1184 1872 1184 1872 1090 c 0,29,30
 1872 993 1872 993 1824.5 899.5 c 128,-1,31
 1777 806 1777 806 1683.5 733 c 128,-1,32
 1590 660 1590 660 1451 615.5 c 128,-1,33
 1312 571 1312 571 1129 571 c 0,34,35
 1113 571 1113 571 1079 571.5 c 128,-1,36
 1045 572 1045 572 1007.5 572.5 c 128,-1,37
 970 573 970 573 936 573.5 c 128,-1,38
 902 574 902 574 887 575 c 1,39,-1
 887 424 l 2,40,41
 887 379 887 379 899 354 c 128,-1,42
 911 329 911 329 929 316 c 128,-1,43
 947 303 947 303 968 298 c 128,-1,44
 989 293 989 293 1007 287 c 128,-1,45
 1025 281 1025 281 1037 270.5 c 128,-1,46
 1049 260 1049 260 1049 236 c 0,47,48
 1049 111 1049 111 920 55.5 c 128,-1,49
 791 0 791 0 547 0 c 0,50,51
 429 0 429 0 337.5 13.5 c 128,-1,52
 246 27 246 27 183.5 55.5 c 128,-1,53
 121 84 121 84 88.5 129 c 128,-1,54
 56 174 56 174 56 236 c 0,55,56
 56 260 56 260 68 270.5 c 128,-1,57
 80 281 80 281 97.5 286.5 c 128,-1,58
 115 292 115 292 135.5 297 c 128,-1,59
 156 302 156 302 173.5 314.5 c 128,-1,60
 191 327 191 327 203 351 c 128,-1,61
 215 375 215 375 215 420 c 2,62,-1
 215 1174 l 2,63,64
 215 1218 215 1218 203 1242.5 c 128,-1,65
 191 1267 191 1267 173.5 1279.5 c 128,-1,66
 156 1292 156 1292 135.5 1297 c 128,-1,67
 115 1302 115 1302 97.5 1307.5 c 128,-1,68
 80 1313 80 1313 68 1323.5 c 128,-1,69
 56 1334 56 1334 56 1358 c 0,70,71
 56 1419 56 1419 87.5 1463.5 c 128,-1,72
 119 1508 119 1508 180 1537 c 128,-1,73
 241 1566 241 1566 330 1579.5 c 128,-1,74
 419 1593 419 1593 534 1593 c 2,75,-1
 547 1593 l 1,76,-1
 1129 1593 l 2,24,25
EndSplineSet
Validated: 1
EndChar

StartChar: Q
Encoding: 81 81 52
Width: 1902
Flags: W
HStem: 1354 266<831.613 1018.46>
VStem: 61 721<470.233 1135.93> 1113 727<478.838 1147.68>
LayerCount: 2
Fore
SplineSet
1840 848 m 0,0,1
 1840 725 1840 725 1823.5 607 c 128,-1,2
 1807 489 1807 489 1761.5 385.5 c 128,-1,3
 1716 282 1716 282 1634 198 c 128,-1,4
 1552 114 1552 114 1421 59 c 1,5,-1
 1607 -66 l 2,6,7
 1645 -91 1645 -91 1685 -96.5 c 128,-1,8
 1725 -102 1725 -102 1756 -102 c 0,9,10
 1782 -102 1782 -102 1799 -99 c 0,11,12
 1809 -98 1809 -98 1816 -96 c 1,13,14
 1824 -113 1824 -113 1828 -130 c 128,-1,15
 1832 -147 1832 -147 1832 -164 c 0,16,17
 1832 -196 1832 -196 1814 -227.5 c 128,-1,18
 1796 -259 1796 -259 1758 -292 c 128,-1,19
 1720 -325 1720 -325 1662 -359.5 c 128,-1,20
 1604 -394 1604 -394 1523 -432 c 1,21,22
 1485 -451 1485 -451 1451 -459 c 128,-1,23
 1417 -467 1417 -467 1386 -467 c 0,24,25
 1346 -467 1346 -467 1311 -454 c 128,-1,26
 1276 -441 1276 -441 1244 -421.5 c 128,-1,27
 1212 -402 1212 -402 1182.5 -378 c 128,-1,28
 1153 -354 1153 -354 1123 -331 c 1,29,-1
 765 -16 l 1,30,31
 640 -3 640 -3 539 33.5 c 128,-1,32
 438 70 438 70 359.5 124.5 c 128,-1,33
 281 179 281 179 224.5 249.5 c 128,-1,34
 168 320 168 320 132 401.5 c 128,-1,35
 96 483 96 483 78.5 573.5 c 128,-1,36
 61 664 61 664 61 758 c 0,37,38
 61 876 61 876 74.5 985.5 c 128,-1,39
 88 1095 88 1095 124.5 1191 c 128,-1,40
 161 1287 161 1287 226 1366 c 128,-1,41
 291 1445 291 1445 394.5 1501.5 c 128,-1,42
 498 1558 498 1558 645 1589 c 128,-1,43
 792 1620 792 1620 993 1620 c 0,44,45
 1155 1620 1155 1620 1281 1590.5 c 128,-1,46
 1407 1561 1407 1561 1501 1508 c 128,-1,47
 1595 1455 1595 1455 1660 1382.5 c 128,-1,48
 1725 1310 1725 1310 1765 1224.5 c 128,-1,49
 1805 1139 1805 1139 1822.5 1043 c 128,-1,50
 1840 947 1840 947 1840 848 c 0,0,1
966 238 m 0,51,52
 1011 238 1011 238 1039.5 263 c 128,-1,53
 1068 288 1068 288 1084.5 335 c 128,-1,54
 1101 382 1101 382 1107 450 c 128,-1,55
 1113 518 1113 518 1113 604 c 2,56,-1
 1113 653 l 2,57,58
 1113 729 1113 729 1112 810.5 c 128,-1,59
 1111 892 1111 892 1106 969.5 c 128,-1,60
 1101 1047 1101 1047 1089.5 1117 c 128,-1,61
 1078 1187 1078 1187 1058 1239.5 c 128,-1,62
 1038 1292 1038 1292 1006.5 1323 c 128,-1,63
 975 1354 975 1354 929 1354 c 0,64,65
 882 1354 882 1354 853 1332.5 c 128,-1,66
 824 1311 824 1311 808.5 1269.5 c 128,-1,67
 793 1228 793 1228 787.5 1167 c 128,-1,68
 782 1106 782 1106 782 1026 c 0,69,70
 782 953 782 953 783 866 c 128,-1,71
 784 779 784 779 789 691.5 c 128,-1,72
 794 604 794 604 805 522 c 128,-1,73
 816 440 816 440 836.5 377 c 128,-1,74
 857 314 857 314 888.5 276 c 128,-1,75
 920 238 920 238 966 238 c 0,51,52
EndSplineSet
Validated: 1
EndChar

StartChar: R
Encoding: 82 82 53
Width: 2051
Flags: W
HStem: 0 21G<486 667 1499 1612.5> 629 155<887.979 1006> 1399 194<912.368 1130.35>
VStem: 213 674<312.222 633 786.08 1281.78> 1198 727<919.397 1318.45>
LayerCount: 2
Fore
SplineSet
1821 414 m 2,0,1
 1849 372 1849 372 1879 348.5 c 128,-1,2
 1909 325 1909 325 1937.5 313 c 128,-1,3
 1966 301 1966 301 1991.5 295.5 c 128,-1,4
 2017 290 2017 290 2036.5 285 c 128,-1,5
 2056 280 2056 280 2067.5 270.5 c 128,-1,6
 2079 261 2079 261 2079 240 c 0,7,8
 2079 169 2079 169 2053 122.5 c 128,-1,9
 2027 76 2027 76 1964 49 c 128,-1,10
 1901 22 1901 22 1796 11 c 128,-1,11
 1691 0 1691 0 1534 0 c 0,12,13
 1464 0 1464 0 1410.5 14 c 128,-1,14
 1357 28 1357 28 1316 53 c 128,-1,15
 1275 78 1275 78 1243.5 111.5 c 128,-1,16
 1212 145 1212 145 1188 184 c 128,-1,17
 1164 223 1164 223 1144 265.5 c 128,-1,18
 1124 308 1124 308 1106 351 c 1,19,-1
 1006 629 l 1,20,-1
 994 629 l 2,21,22
 962 629 962 629 939.5 630 c 128,-1,23
 917 631 917 631 885 633 c 1,24,-1
 885 418 l 2,25,26
 885 375 885 375 897 351 c 128,-1,27
 909 327 909 327 927 315 c 128,-1,28
 945 303 945 303 966 298 c 128,-1,29
 987 293 987 293 1005 287 c 128,-1,30
 1023 281 1023 281 1035 270.5 c 128,-1,31
 1047 260 1047 260 1047 236 c 0,32,33
 1047 111 1047 111 918 55.5 c 128,-1,34
 789 0 789 0 545 0 c 0,35,36
 427 0 427 0 335.5 13.5 c 128,-1,37
 244 27 244 27 181.5 55.5 c 128,-1,38
 119 84 119 84 86.5 129 c 128,-1,39
 54 174 54 174 54 236 c 0,40,41
 54 260 54 260 66 270.5 c 128,-1,42
 78 281 78 281 95.5 286.5 c 128,-1,43
 113 292 113 292 133.5 297 c 128,-1,44
 154 302 154 302 171.5 314.5 c 128,-1,45
 189 327 189 327 201 351 c 128,-1,46
 213 375 213 375 213 420 c 2,47,-1
 213 1174 l 2,48,49
 213 1218 213 1218 201 1242.5 c 128,-1,50
 189 1267 189 1267 171.5 1279.5 c 128,-1,51
 154 1292 154 1292 133.5 1297 c 128,-1,52
 113 1302 113 1302 95.5 1307.5 c 128,-1,53
 78 1313 78 1313 66 1323.5 c 128,-1,54
 54 1334 54 1334 54 1358 c 0,55,56
 54 1420 54 1420 88 1464.5 c 128,-1,57
 122 1509 122 1509 186.5 1537.5 c 128,-1,58
 251 1566 251 1566 344 1579.5 c 128,-1,59
 437 1593 437 1593 555 1593 c 2,60,-1
 1096 1593 l 2,61,62
 1255 1593 1255 1593 1378 1576 c 128,-1,63
 1501 1559 1501 1559 1593 1528.5 c 128,-1,64
 1685 1498 1685 1498 1748.5 1455.5 c 128,-1,65
 1812 1413 1812 1413 1851 1362.5 c 128,-1,66
 1890 1312 1890 1312 1907.5 1255.5 c 128,-1,67
 1925 1199 1925 1199 1925 1139 c 0,68,69
 1925 1074 1925 1074 1912.5 1012 c 128,-1,70
 1900 950 1900 950 1866.5 895 c 128,-1,71
 1833 840 1833 840 1774.5 793.5 c 128,-1,72
 1716 747 1716 747 1624 713 c 1,73,-1
 1821 414 l 2,0,1
1022 784 m 0,74,75
 1112 784 1112 784 1155 842 c 128,-1,76
 1198 900 1198 900 1198 1004 c 2,77,-1
 1198 1034 l 2,78,79
 1198 1100 1198 1100 1195 1165.5 c 128,-1,80
 1192 1231 1192 1231 1174.5 1282.5 c 128,-1,81
 1157 1334 1157 1334 1120 1366.5 c 128,-1,82
 1083 1399 1083 1399 1014 1399 c 0,83,84
 972 1399 972 1399 946.5 1385 c 128,-1,85
 921 1371 921 1371 908 1347.5 c 128,-1,86
 895 1324 895 1324 891 1293.5 c 128,-1,87
 887 1263 887 1263 887 1229 c 2,88,-1
 887 795 l 1,89,90
 888 792 888 792 902 789 c 0,91,92
 914 787 914 787 941 785.5 c 128,-1,93
 968 784 968 784 1022 784 c 0,74,75
EndSplineSet
Validated: 1
EndChar

StartChar: S
Encoding: 83 83 54
Width: 1570
Flags: W
HStem: -25 283<535.821 908.305> 1372 248<594.948 971.892>
VStem: 53 442<299.543 505.129> 79 492<991 1285.03> 937 580<289.136 525.5> 987 460<1205.5 1345.58>
LayerCount: 2
Fore
SplineSet
987 1298 m 0,0,1
 987 1326 987 1326 936.5 1349 c 128,-1,2
 886 1372 886 1372 782 1372 c 0,3,4
 710 1372 710 1372 668 1362 c 128,-1,5
 626 1352 626 1352 604.5 1335.5 c 128,-1,6
 583 1319 583 1319 577 1298.5 c 128,-1,7
 571 1278 571 1278 571 1257 c 0,8,9
 571 1214 571 1214 611.5 1181.5 c 128,-1,10
 652 1149 652 1149 718.5 1120 c 128,-1,11
 785 1091 785 1091 870 1062 c 128,-1,12
 955 1033 955 1033 1044 997.5 c 128,-1,13
 1133 962 1133 962 1218 916 c 128,-1,14
 1303 870 1303 870 1369.5 808 c 128,-1,15
 1436 746 1436 746 1476.5 663 c 128,-1,16
 1517 580 1517 580 1517 471 c 0,17,18
 1517 331 1517 331 1463 236 c 128,-1,19
 1409 141 1409 141 1312.5 83 c 128,-1,20
 1216 25 1216 25 1083.5 0 c 128,-1,21
 951 -25 951 -25 794 -25 c 0,22,23
 702 -25 702 -25 611 -11 c 128,-1,24
 520 3 520 3 438 29.5 c 128,-1,25
 356 56 356 56 285.5 94.5 c 128,-1,26
 215 133 215 133 163.5 181.5 c 128,-1,27
 112 230 112 230 82.5 288.5 c 128,-1,28
 53 347 53 347 53 414 c 0,29,30
 53 465 53 465 69 503 c 128,-1,31
 85 541 85 541 111.5 565.5 c 128,-1,32
 138 590 138 590 172 602 c 128,-1,33
 206 614 206 614 243 614 c 0,34,35
 288 614 288 614 333 597 c 128,-1,36
 378 580 378 580 414 547 c 128,-1,37
 450 514 450 514 472.5 466 c 128,-1,38
 495 418 495 418 495 356 c 0,39,40
 495 341 495 341 509.5 324 c 128,-1,41
 524 307 524 307 551.5 292.5 c 128,-1,42
 579 278 579 278 620 268 c 128,-1,43
 661 258 661 258 714 258 c 0,44,45
 788 258 788 258 832 267.5 c 128,-1,46
 876 277 876 277 899.5 293 c 128,-1,47
 923 309 923 309 930 329 c 128,-1,48
 937 349 937 349 937 369 c 0,49,50
 937 394 937 394 900 413 c 128,-1,51
 863 432 863 432 803 451.5 c 128,-1,52
 743 471 743 471 665.5 493 c 128,-1,53
 588 515 588 515 508 545.5 c 128,-1,54
 428 576 428 576 350.5 618 c 128,-1,55
 273 660 273 660 213 719.5 c 128,-1,56
 153 779 153 779 116 858.5 c 128,-1,57
 79 938 79 938 79 1044 c 0,58,59
 79 1149 79 1149 104.5 1232 c 128,-1,60
 130 1315 130 1315 176.5 1379 c 128,-1,61
 223 1443 223 1443 288 1488.5 c 128,-1,62
 353 1534 353 1534 432.5 1563.5 c 128,-1,63
 512 1593 512 1593 603.5 1606.5 c 128,-1,64
 695 1620 695 1620 794 1620 c 0,65,66
 971 1620 971 1620 1095.5 1584.5 c 128,-1,67
 1220 1549 1220 1549 1298 1493 c 128,-1,68
 1376 1437 1376 1437 1411.5 1368.5 c 128,-1,69
 1447 1300 1447 1300 1447 1235 c 0,70,71
 1447 1176 1447 1176 1422 1133 c 128,-1,72
 1397 1090 1397 1090 1357 1062 c 128,-1,73
 1317 1034 1317 1034 1266 1021 c 128,-1,74
 1215 1008 1215 1008 1163 1008 c 0,75,76
 1113 1008 1113 1008 1065.5 1019 c 128,-1,77
 1018 1030 1018 1030 981.5 1052 c 128,-1,78
 945 1074 945 1074 922.5 1105.5 c 128,-1,79
 900 1137 900 1137 900 1178 c 0,80,81
 900 1208 900 1208 913.5 1223 c 128,-1,82
 927 1238 927 1238 943.5 1248 c 128,-1,83
 960 1258 960 1258 973.5 1268 c 128,-1,84
 987 1278 987 1278 987 1298 c 0,0,1
EndSplineSet
Validated: 1
EndChar

StartChar: T
Encoding: 84 84 55
Width: 1740
Flags: W
HStem: 0 21G<807 988> 1378 215<422 534 1206 1319>
VStem: 534 672<314.111 1378>
LayerCount: 2
Fore
SplineSet
1206 424 m 2,0,1
 1206 379 1206 379 1218 354 c 128,-1,2
 1230 329 1230 329 1248 316 c 128,-1,3
 1266 303 1266 303 1287 298 c 128,-1,4
 1308 293 1308 293 1326 287 c 128,-1,5
 1344 281 1344 281 1356 270.5 c 128,-1,6
 1368 260 1368 260 1368 236 c 0,7,8
 1368 111 1368 111 1239 55.5 c 128,-1,9
 1110 0 1110 0 866 0 c 0,10,11
 748 0 748 0 656.5 13.5 c 128,-1,12
 565 27 565 27 502.5 55.5 c 128,-1,13
 440 84 440 84 407.5 129 c 128,-1,14
 375 174 375 174 375 236 c 0,15,16
 375 260 375 260 387 270.5 c 128,-1,17
 399 281 399 281 416.5 286.5 c 128,-1,18
 434 292 434 292 454.5 297 c 128,-1,19
 475 302 475 302 492.5 314.5 c 128,-1,20
 510 327 510 327 522 351 c 128,-1,21
 534 375 534 375 534 420 c 2,22,-1
 534 1378 l 1,23,-1
 422 1374 l 1,24,-1
 383 1214 l 1,25,26
 367 1160 367 1160 344 1123 c 128,-1,27
 321 1086 321 1086 294 1062.5 c 128,-1,28
 267 1039 267 1039 237 1028.5 c 128,-1,29
 207 1018 207 1018 176 1018 c 0,30,31
 141 1018 141 1018 110.5 1030 c 128,-1,32
 80 1042 80 1042 57.5 1064 c 128,-1,33
 35 1086 35 1086 22.5 1118 c 128,-1,34
 10 1150 10 1150 10 1190 c 0,35,36
 10 1250 10 1250 27.5 1320.5 c 128,-1,37
 45 1391 45 1391 80.5 1451.5 c 128,-1,38
 116 1512 116 1512 170 1552.5 c 128,-1,39
 224 1593 224 1593 297 1593 c 2,40,-1
 1444 1593 l 2,41,42
 1517 1593 1517 1593 1570.5 1553 c 128,-1,43
 1624 1513 1624 1513 1659.5 1452.5 c 128,-1,44
 1695 1392 1695 1392 1712.5 1322 c 128,-1,45
 1730 1252 1730 1252 1730 1192 c 0,46,47
 1730 1152 1730 1152 1717.5 1120 c 128,-1,48
 1705 1088 1705 1088 1683 1066 c 128,-1,49
 1661 1044 1661 1044 1630.5 1032 c 128,-1,50
 1600 1020 1600 1020 1565 1020 c 0,51,52
 1534 1020 1534 1020 1503 1030 c 128,-1,53
 1472 1040 1472 1040 1444 1063.5 c 128,-1,54
 1416 1087 1416 1087 1393.5 1124.5 c 128,-1,55
 1371 1162 1371 1162 1358 1217 c 2,56,-1
 1319 1376 l 1,57,-1
 1206 1380 l 1,58,-1
 1206 424 l 2,0,1
EndSplineSet
Validated: 1
EndChar

StartChar: U
Encoding: 85 85 56
Width: 1882
Flags: W
HStem: -25 287<961.835 1301.71> 1573 20G<465 585 1524.5 1572.5>
VStem: 192 674<355.885 1281.74> 1237 612<1323.83 1484.48> 1397 292<358.29 1281.12>
LayerCount: 2
Fore
SplineSet
1689 516 m 2,0,1
 1689 419 1689 419 1663 341 c 128,-1,2
 1637 263 1637 263 1590 202.5 c 128,-1,3
 1543 142 1543 142 1477.5 99 c 128,-1,4
 1412 56 1412 56 1334 28.5 c 128,-1,5
 1256 1 1256 1 1168 -12 c 128,-1,6
 1080 -25 1080 -25 987 -25 c 0,7,8
 876 -25 876 -25 774 -12 c 128,-1,9
 672 1 672 1 583.5 29 c 128,-1,10
 495 57 495 57 423 100 c 128,-1,11
 351 143 351 143 299.5 204 c 128,-1,12
 248 265 248 265 220 343.5 c 128,-1,13
 192 422 192 422 192 520 c 2,14,-1
 192 1174 l 2,15,16
 192 1218 192 1218 180 1242.5 c 128,-1,17
 168 1267 168 1267 150.5 1279.5 c 128,-1,18
 133 1292 133 1292 112.5 1297 c 128,-1,19
 92 1302 92 1302 74.5 1307.5 c 128,-1,20
 57 1313 57 1313 45 1323.5 c 128,-1,21
 33 1334 33 1334 33 1358 c 0,22,23
 33 1420 33 1420 65.5 1464.5 c 128,-1,24
 98 1509 98 1509 160.5 1537.5 c 128,-1,25
 223 1566 223 1566 314.5 1579.5 c 128,-1,26
 406 1593 406 1593 524 1593 c 0,27,28
 646 1593 646 1593 740 1579.5 c 128,-1,29
 834 1566 834 1566 897.5 1537.5 c 128,-1,30
 961 1509 961 1509 993.5 1464.5 c 128,-1,31
 1026 1420 1026 1420 1026 1358 c 0,32,33
 1026 1334 1026 1334 1014 1323.5 c 128,-1,34
 1002 1313 1002 1313 984.5 1307.5 c 128,-1,35
 967 1302 967 1302 946 1297.5 c 128,-1,36
 925 1293 925 1293 907.5 1281 c 128,-1,37
 890 1269 890 1269 878 1244.5 c 128,-1,38
 866 1220 866 1220 866 1176 c 2,39,-1
 866 520 l 2,40,41
 866 450 866 450 886 401 c 128,-1,42
 906 352 906 352 942 321 c 128,-1,43
 978 290 978 290 1027.5 276 c 128,-1,44
 1077 262 1077 262 1136 262 c 0,45,46
 1191 262 1191 262 1238.5 276.5 c 128,-1,47
 1286 291 1286 291 1321 322 c 128,-1,48
 1356 353 1356 353 1376.5 402 c 128,-1,49
 1397 451 1397 451 1397 520 c 2,50,-1
 1397 1174 l 2,51,52
 1397 1218 1397 1218 1385 1242.5 c 128,-1,53
 1373 1267 1373 1267 1355.5 1279.5 c 128,-1,54
 1338 1292 1338 1292 1317 1297 c 128,-1,55
 1296 1302 1296 1302 1278.5 1307.5 c 128,-1,56
 1261 1313 1261 1313 1249 1323.5 c 128,-1,57
 1237 1334 1237 1334 1237 1358 c 0,58,59
 1237 1420 1237 1420 1267 1464.5 c 128,-1,60
 1297 1509 1297 1509 1343 1537.5 c 128,-1,61
 1389 1566 1389 1566 1444 1579.5 c 128,-1,62
 1499 1593 1499 1593 1550 1593 c 0,63,64
 1595 1593 1595 1593 1647.5 1579.5 c 128,-1,65
 1700 1566 1700 1566 1745 1537.5 c 128,-1,66
 1790 1509 1790 1509 1819.5 1464.5 c 128,-1,67
 1849 1420 1849 1420 1849 1358 c 0,68,69
 1849 1334 1849 1334 1837 1323.5 c 128,-1,70
 1825 1313 1825 1313 1807 1307 c 128,-1,71
 1789 1301 1789 1301 1768 1296 c 128,-1,72
 1747 1291 1747 1291 1729 1278 c 128,-1,73
 1711 1265 1711 1265 1699 1240 c 128,-1,74
 1687 1215 1687 1215 1687 1169 c 2,75,-1
 1689 516 l 2,0,1
EndSplineSet
Validated: 1
EndChar

StartChar: V
Encoding: 86 86 57
Width: 1713
Flags: W
HStem: 1573 20G<370 551 1389.5 1463>
VStem: 1129 596<1323.83 1490.69>
LayerCount: 2
Fore
SplineSet
1262 1174 m 2,0,1
 1275 1210 1275 1210 1275 1234 c 256,2,3
 1275 1258 1275 1258 1264 1270.5 c 128,-1,4
 1253 1283 1253 1283 1237 1290 c 128,-1,5
 1221 1297 1221 1297 1202 1300.5 c 128,-1,6
 1183 1304 1183 1304 1167 1310 c 128,-1,7
 1151 1316 1151 1316 1140 1326.5 c 128,-1,8
 1129 1337 1129 1337 1129 1358 c 0,9,10
 1129 1406 1129 1406 1148 1448.5 c 128,-1,11
 1167 1491 1167 1491 1204.5 1523 c 128,-1,12
 1242 1555 1242 1555 1297.5 1574 c 128,-1,13
 1353 1593 1353 1593 1426 1593 c 0,14,15
 1500 1593 1500 1593 1556 1574 c 128,-1,16
 1612 1555 1612 1555 1649.5 1523 c 128,-1,17
 1687 1491 1687 1491 1706 1448.5 c 128,-1,18
 1725 1406 1725 1406 1725 1358 c 0,19,20
 1725 1334 1725 1334 1712.5 1323.5 c 128,-1,21
 1700 1313 1700 1313 1679.5 1307 c 128,-1,22
 1659 1301 1659 1301 1633.5 1296 c 128,-1,23
 1608 1291 1608 1291 1583 1278 c 128,-1,24
 1558 1265 1558 1265 1535.5 1240 c 128,-1,25
 1513 1215 1513 1215 1498 1169 c 1,26,-1
 1197 435 l 2,27,28
 1141 297 1141 297 1101 204.5 c 128,-1,29
 1061 112 1061 112 1024 56 c 128,-1,30
 987 0 987 0 947.5 -23.5 c 128,-1,31
 908 -47 908 -47 853 -47 c 0,32,33
 805 -47 805 -47 767 -18 c 128,-1,34
 729 11 729 11 687.5 79 c 128,-1,35
 646 147 646 147 594.5 259 c 128,-1,36
 543 371 543 371 470 537 c 2,37,-1
 191 1169 l 2,38,39
 172 1212 172 1212 150 1236.5 c 128,-1,40
 128 1261 128 1261 105.5 1274 c 128,-1,41
 83 1287 83 1287 62.5 1292.5 c 128,-1,42
 42 1298 42 1298 26 1304.5 c 128,-1,43
 10 1311 10 1311 0.5 1322.5 c 128,-1,44
 -9 1334 -9 1334 -9 1358 c 0,45,46
 -9 1482 -9 1482 119.5 1537.5 c 128,-1,47
 248 1593 248 1593 492 1593 c 0,48,49
 610 1593 610 1593 702 1579.5 c 128,-1,50
 794 1566 794 1566 856.5 1537.5 c 128,-1,51
 919 1509 919 1509 951.5 1464.5 c 128,-1,52
 984 1420 984 1420 984 1358 c 0,53,54
 984 1338 984 1338 974 1327 c 128,-1,55
 964 1316 964 1316 949 1310 c 128,-1,56
 934 1304 934 1304 916 1300 c 128,-1,57
 898 1296 898 1296 883 1289 c 128,-1,58
 868 1282 868 1282 858 1270.5 c 128,-1,59
 848 1259 848 1259 848 1237 c 0,60,61
 848 1225 848 1225 851.5 1209.5 c 128,-1,62
 855 1194 855 1194 863 1174 c 2,63,-1
 1027 774 l 2,64,65
 1037 751 1037 751 1048 733.5 c 128,-1,66
 1059 716 1059 716 1073 716 c 0,67,68
 1084 716 1084 716 1096.5 731 c 128,-1,69
 1109 746 1109 746 1123 784 c 2,70,-1
 1262 1174 l 2,0,1
EndSplineSet
Validated: 1
EndChar

StartChar: W
Encoding: 87 87 58
Width: 2737
Flags: W
HStem: 1573 20G<364 545 1441.5 1623 2407.5 2481>
VStem: 2147 596<1326.83 1490.69>
LayerCount: 2
Fore
SplineSet
1248 1194 m 1,0,1
 1229 1229 1229 1229 1207.5 1248 c 128,-1,2
 1186 1267 1186 1267 1165 1277.5 c 128,-1,3
 1144 1288 1144 1288 1125.5 1293.5 c 128,-1,4
 1107 1299 1107 1299 1093 1305.5 c 128,-1,5
 1079 1312 1079 1312 1070.5 1323.5 c 128,-1,6
 1062 1335 1062 1335 1062 1358 c 0,7,8
 1062 1482 1062 1482 1190.5 1537.5 c 128,-1,9
 1319 1593 1319 1593 1564 1593 c 0,10,11
 1682 1593 1682 1593 1773.5 1579.5 c 128,-1,12
 1865 1566 1865 1566 1927.5 1537.5 c 128,-1,13
 1990 1509 1990 1509 2022.5 1464.5 c 128,-1,14
 2055 1420 2055 1420 2055 1358 c 0,15,16
 2055 1337 2055 1337 2045 1326.5 c 128,-1,17
 2035 1316 2035 1316 2020 1310 c 128,-1,18
 2005 1304 2005 1304 1987.5 1300.5 c 128,-1,19
 1970 1297 1970 1297 1955 1290 c 128,-1,20
 1940 1283 1940 1283 1930 1271 c 128,-1,21
 1920 1259 1920 1259 1920 1236 c 0,22,23
 1920 1224 1920 1224 1923 1209 c 128,-1,24
 1926 1194 1926 1194 1934 1174 c 2,25,-1
 2067 815 l 2,26,27
 2076 791 2076 791 2088.5 773.5 c 128,-1,28
 2101 756 2101 756 2115 756 c 0,29,30
 2126 756 2126 756 2138.5 771.5 c 128,-1,31
 2151 787 2151 787 2164 825 c 2,32,-1
 2280 1174 l 2,33,34
 2292 1210 2292 1210 2292 1233 c 0,35,36
 2292 1257 2292 1257 2281.5 1270 c 128,-1,37
 2271 1283 2271 1283 2254.5 1290 c 128,-1,38
 2238 1297 2238 1297 2219.5 1300.5 c 128,-1,39
 2201 1304 2201 1304 2184.5 1310 c 128,-1,40
 2168 1316 2168 1316 2157.5 1326.5 c 128,-1,41
 2147 1337 2147 1337 2147 1358 c 0,42,43
 2147 1406 2147 1406 2166 1448.5 c 128,-1,44
 2185 1491 2185 1491 2222.5 1523 c 128,-1,45
 2260 1555 2260 1555 2315.5 1574 c 128,-1,46
 2371 1593 2371 1593 2444 1593 c 0,47,48
 2518 1593 2518 1593 2574 1574 c 128,-1,49
 2630 1555 2630 1555 2667.5 1523 c 128,-1,50
 2705 1491 2705 1491 2724 1448.5 c 128,-1,51
 2743 1406 2743 1406 2743 1358 c 0,52,53
 2743 1334 2743 1334 2731 1323 c 128,-1,54
 2719 1312 2719 1312 2699.5 1306.5 c 128,-1,55
 2680 1301 2680 1301 2655 1295.5 c 128,-1,56
 2630 1290 2630 1290 2605 1277 c 128,-1,57
 2580 1264 2580 1264 2556.5 1239 c 128,-1,58
 2533 1214 2533 1214 2516 1169 c 2,59,-1
 2249 459 l 2,60,61
 2212 361 2212 361 2183 285.5 c 128,-1,62
 2154 210 2154 210 2128.5 153.5 c 128,-1,63
 2103 97 2103 97 2079.5 59 c 128,-1,64
 2056 21 2056 21 2030.5 -2.5 c 128,-1,65
 2005 -26 2005 -26 1975 -36.5 c 128,-1,66
 1945 -47 1945 -47 1908 -47 c 0,67,68
 1860 -47 1860 -47 1819 -19 c 128,-1,69
 1778 9 1778 9 1734.5 76 c 128,-1,70
 1691 143 1691 143 1640.5 255.5 c 128,-1,71
 1590 368 1590 368 1525 537 c 2,72,-1
 1377 918 l 1,73,-1
 1203 460 l 2,74,75
 1147 313 1147 313 1108 215.5 c 128,-1,76
 1069 118 1069 118 1033 59.5 c 128,-1,77
 997 1 997 1 957.5 -23 c 128,-1,78
 918 -47 918 -47 861 -47 c 0,79,80
 813 -47 813 -47 776 -17.5 c 128,-1,81
 739 12 739 12 698.5 80 c 128,-1,82
 658 148 658 148 606 260 c 128,-1,83
 554 372 554 372 478 537 c 2,84,-1
 185 1169 l 2,85,86
 165 1211 165 1211 142.5 1235 c 128,-1,87
 120 1259 120 1259 98 1272 c 128,-1,88
 76 1285 76 1285 55.5 1291 c 128,-1,89
 35 1297 35 1297 19.5 1304 c 128,-1,90
 4 1311 4 1311 -5.5 1322.5 c 128,-1,91
 -15 1334 -15 1334 -15 1358 c 0,92,93
 -15 1482 -15 1482 113.5 1537.5 c 128,-1,94
 242 1593 242 1593 486 1593 c 0,95,96
 604 1593 604 1593 696 1579.5 c 128,-1,97
 788 1566 788 1566 850.5 1537.5 c 128,-1,98
 913 1509 913 1509 945.5 1464.5 c 128,-1,99
 978 1420 978 1420 978 1358 c 0,100,101
 978 1338 978 1338 967.5 1327 c 128,-1,102
 957 1316 957 1316 942 1309.5 c 128,-1,103
 927 1303 927 1303 908.5 1298.5 c 128,-1,104
 890 1294 890 1294 875 1287.5 c 128,-1,105
 860 1281 860 1281 849.5 1269.5 c 128,-1,106
 839 1258 839 1258 839 1238 c 0,107,108
 839 1226 839 1226 843 1210 c 128,-1,109
 847 1194 847 1194 857 1174 c 2,110,-1
 1021 815 l 2,111,112
 1032 792 1032 792 1043 774.5 c 128,-1,113
 1054 757 1054 757 1068 757 c 0,114,115
 1079 757 1079 757 1091 772 c 128,-1,116
 1103 787 1103 787 1117 825 c 2,117,-1
 1248 1194 l 1,0,1
EndSplineSet
Validated: 1
EndChar

StartChar: X
Encoding: 88 88 59
Width: 1772
Flags: W
HStem: 0 21G<262 322.5 1262 1436> 1573 20G<419.5 545.5 1374 1438.5>
VStem: 894 903<155.5 358.5> 1130 581<1235 1444.91>
LayerCount: 2
Fore
SplineSet
618 715 m 1,0,-1
 247 1174 l 2,1,2
 216 1212 216 1212 186.5 1233 c 128,-1,3
 157 1254 157 1254 129.5 1266 c 128,-1,4
 102 1278 102 1278 79 1285.5 c 128,-1,5
 56 1293 56 1293 39 1303 c 128,-1,6
 22 1313 22 1313 12.5 1330.5 c 128,-1,7
 3 1348 3 1348 3 1380 c 0,8,9
 3 1436 3 1436 38 1476.5 c 128,-1,10
 73 1517 73 1517 135 1543 c 128,-1,11
 197 1569 197 1569 283 1581 c 128,-1,12
 369 1593 369 1593 470 1593 c 0,13,14
 621 1593 621 1593 722.5 1579 c 128,-1,15
 824 1565 824 1565 885.5 1536 c 128,-1,16
 947 1507 947 1507 973 1461.5 c 128,-1,17
 999 1416 999 1416 999 1352 c 0,18,19
 999 1326 999 1326 981.5 1313 c 128,-1,20
 964 1300 964 1300 942.5 1290.5 c 128,-1,21
 921 1281 921 1281 903.5 1271 c 128,-1,22
 886 1261 886 1261 886 1241 c 0,23,24
 886 1229 886 1229 893.5 1213 c 128,-1,25
 901 1197 901 1197 921 1174 c 2,26,-1
 994 1085 l 1,27,-1
 1085 1174 l 2,28,29
 1109 1197 1109 1197 1119.5 1213 c 128,-1,30
 1130 1229 1130 1229 1130 1241 c 0,31,32
 1130 1258 1130 1258 1116.5 1268 c 128,-1,33
 1103 1278 1103 1278 1087 1288.5 c 128,-1,34
 1071 1299 1071 1299 1057.5 1312.5 c 128,-1,35
 1044 1326 1044 1326 1044 1350 c 0,36,37
 1044 1414 1044 1414 1075.5 1460.5 c 128,-1,38
 1107 1507 1107 1507 1158 1536 c 128,-1,39
 1209 1565 1209 1565 1274.5 1579 c 128,-1,40
 1340 1593 1340 1593 1408 1593 c 0,41,42
 1469 1593 1469 1593 1524.5 1581 c 128,-1,43
 1580 1569 1580 1569 1621 1544 c 128,-1,44
 1662 1519 1662 1519 1686.5 1479 c 128,-1,45
 1711 1439 1711 1439 1711 1384 c 0,46,47
 1711 1349 1711 1349 1695.5 1330 c 128,-1,48
 1680 1311 1680 1311 1654 1300 c 128,-1,49
 1628 1289 1628 1289 1593 1281.5 c 128,-1,50
 1558 1274 1558 1274 1520 1262.5 c 128,-1,51
 1482 1251 1482 1251 1442 1231 c 128,-1,52
 1402 1211 1402 1211 1365 1174 c 2,53,-1
 1124 932 l 1,54,-1
 1552 424 l 2,55,56
 1584 385 1584 385 1615 363.5 c 128,-1,57
 1646 342 1646 342 1673.5 329 c 128,-1,58
 1701 316 1701 316 1723.5 308.5 c 128,-1,59
 1746 301 1746 301 1762.5 290 c 128,-1,60
 1779 279 1779 279 1788 261.5 c 128,-1,61
 1797 244 1797 244 1797 211 c 0,62,63
 1797 100 1797 100 1674.5 50 c 128,-1,64
 1552 0 1552 0 1320 0 c 0,65,66
 1204 0 1204 0 1105.5 14 c 128,-1,67
 1007 28 1007 28 935 57.5 c 128,-1,68
 863 87 863 87 822 132.5 c 128,-1,69
 781 178 781 178 781 242 c 0,70,71
 781 267 781 267 798.5 280 c 128,-1,72
 816 293 816 293 837.5 302.5 c 128,-1,73
 859 312 859 312 876.5 322 c 128,-1,74
 894 332 894 332 894 352 c 0,75,76
 894 365 894 365 886.5 380.5 c 128,-1,77
 879 396 879 396 859 420 c 2,78,-1
 747 557 l 1,79,-1
 607 420 l 2,80,81
 586 400 586 400 577 384.5 c 128,-1,82
 568 369 568 369 568 358 c 0,83,84
 568 339 568 339 585.5 328 c 128,-1,85
 603 317 603 317 624.5 306.5 c 128,-1,86
 646 296 646 296 663.5 282 c 128,-1,87
 681 268 681 268 681 242 c 0,88,89
 681 178 681 178 647 132.5 c 128,-1,90
 613 87 613 87 557 57.5 c 128,-1,91
 501 28 501 28 430 14 c 128,-1,92
 359 0 359 0 286 0 c 0,93,94
 238 0 238 0 189.5 12 c 128,-1,95
 141 24 141 24 102 49 c 128,-1,96
 63 74 63 74 38 113.5 c 128,-1,97
 13 153 13 153 13 209 c 0,98,99
 13 243 13 243 25.5 261.5 c 128,-1,100
 38 280 38 280 59.5 291.5 c 128,-1,101
 81 303 81 303 110.5 311.5 c 128,-1,102
 140 320 140 320 174.5 332.5 c 128,-1,103
 209 345 209 345 246 366 c 128,-1,104
 283 387 283 387 321 424 c 2,105,-1
 618 715 l 1,0,-1
EndSplineSet
Validated: 1
EndChar

StartChar: Y
Encoding: 89 89 60
Width: 1744
Flags: W
HStem: 0 976<802.5 1127.64> 1573 20G<387 568 1406.5 1480>
VStem: 530 672<314.111 780> 1146 596<1321.89 1490.69>
LayerCount: 2
Fore
SplineSet
862 0 m 0,0,1
 743 0 743 0 651 13.5 c 128,-1,2
 559 27 559 27 496 55.5 c 128,-1,3
 433 84 433 84 400.5 129 c 128,-1,4
 368 174 368 174 368 236 c 0,5,6
 368 260 368 260 380 270.5 c 128,-1,7
 392 281 392 281 410 286.5 c 128,-1,8
 428 292 428 292 449 297 c 128,-1,9
 470 302 470 302 488 314.5 c 128,-1,10
 506 327 506 327 518 351 c 128,-1,11
 530 375 530 375 530 420 c 2,12,-1
 530 780 l 1,13,-1
 249 1169 l 2,14,15
 222 1207 222 1207 193 1229 c 128,-1,16
 164 1251 164 1251 137.5 1264 c 128,-1,17
 111 1277 111 1277 87.5 1284.5 c 128,-1,18
 64 1292 64 1292 46 1300 c 128,-1,19
 28 1308 28 1308 18 1321 c 128,-1,20
 8 1334 8 1334 8 1358 c 0,21,22
 8 1482 8 1482 136.5 1537.5 c 128,-1,23
 265 1593 265 1593 509 1593 c 0,24,25
 627 1593 627 1593 719 1579.5 c 128,-1,26
 811 1566 811 1566 873.5 1537.5 c 128,-1,27
 936 1509 936 1509 968.5 1464.5 c 128,-1,28
 1001 1420 1001 1420 1001 1358 c 0,29,30
 1001 1330 1001 1330 983 1317 c 128,-1,31
 965 1304 965 1304 943.5 1295 c 128,-1,32
 922 1286 922 1286 904 1276.5 c 128,-1,33
 886 1267 886 1267 886 1246 c 0,34,35
 886 1234 886 1234 894 1216.5 c 128,-1,36
 902 1199 902 1199 921 1174 c 1,37,-1
 1027 1004 l 1,38,39
 1051 976 1051 976 1072 976 c 0,40,41
 1087 976 1087 976 1100 987 c 128,-1,42
 1113 998 1113 998 1124 1014 c 2,43,-1
 1238 1174 l 2,44,45
 1255 1198 1255 1198 1261 1215.5 c 128,-1,46
 1267 1233 1267 1233 1267 1246 c 0,47,48
 1267 1262 1267 1262 1258 1271 c 128,-1,49
 1249 1280 1249 1280 1235.5 1286 c 128,-1,50
 1222 1292 1222 1292 1206.5 1297 c 128,-1,51
 1191 1302 1191 1302 1177.5 1309 c 128,-1,52
 1164 1316 1164 1316 1155 1327.5 c 128,-1,53
 1146 1339 1146 1339 1146 1358 c 0,54,55
 1146 1406 1146 1406 1165 1448.5 c 128,-1,56
 1184 1491 1184 1491 1221.5 1523 c 128,-1,57
 1259 1555 1259 1555 1314.5 1574 c 128,-1,58
 1370 1593 1370 1593 1443 1593 c 0,59,60
 1517 1593 1517 1593 1573 1574 c 128,-1,61
 1629 1555 1629 1555 1666.5 1523 c 128,-1,62
 1704 1491 1704 1491 1723 1448.5 c 128,-1,63
 1742 1406 1742 1406 1742 1358 c 0,64,65
 1742 1334 1742 1334 1730 1321.5 c 128,-1,66
 1718 1309 1718 1309 1697 1301.5 c 128,-1,67
 1676 1294 1676 1294 1649 1287 c 128,-1,68
 1622 1280 1622 1280 1592.5 1267 c 128,-1,69
 1563 1254 1563 1254 1532 1231 c 128,-1,70
 1501 1208 1501 1208 1474 1169 c 2,71,-1
 1202 780 l 1,72,-1
 1202 424 l 2,73,74
 1202 379 1202 379 1214 354 c 128,-1,75
 1226 329 1226 329 1244 316 c 128,-1,76
 1262 303 1262 303 1282.5 298 c 128,-1,77
 1303 293 1303 293 1321 287 c 128,-1,78
 1339 281 1339 281 1351 270.5 c 128,-1,79
 1363 260 1363 260 1363 236 c 0,80,81
 1363 174 1363 174 1330.5 129 c 128,-1,82
 1298 84 1298 84 1234.5 55.5 c 128,-1,83
 1171 27 1171 27 1077.5 13.5 c 128,-1,84
 984 0 984 0 862 0 c 0,0,1
EndSplineSet
Validated: 1
EndChar

StartChar: Z
Encoding: 90 90 61
Width: 1597
Flags: W
HStem: 0 225<901.108 1145.37> 1374 219<442 695.998>
LayerCount: 2
Fore
SplineSet
694 1335 m 2,0,1
 696 1341 696 1341 696 1344 c 0,2,3
 696 1355 696 1355 688 1364.5 c 128,-1,4
 680 1374 680 1374 669 1374 c 2,5,-1
 442 1374 l 1,6,-1
 403 1214 l 1,7,8
 387 1160 387 1160 364 1123 c 128,-1,9
 341 1086 341 1086 314 1062.5 c 128,-1,10
 287 1039 287 1039 257 1028.5 c 128,-1,11
 227 1018 227 1018 196 1018 c 0,12,13
 161 1018 161 1018 130.5 1030 c 128,-1,14
 100 1042 100 1042 77.5 1064 c 128,-1,15
 55 1086 55 1086 42.5 1118 c 128,-1,16
 30 1150 30 1150 30 1190 c 0,17,18
 30 1250 30 1250 47.5 1320.5 c 128,-1,19
 65 1391 65 1391 100.5 1451.5 c 128,-1,20
 136 1512 136 1512 190 1552.5 c 128,-1,21
 244 1593 244 1593 317 1593 c 2,22,-1
 1388 1593 l 2,23,24
 1446 1593 1446 1593 1470 1570.5 c 128,-1,25
 1494 1548 1494 1548 1494 1514 c 0,26,27
 1494 1491 1494 1491 1484.5 1464.5 c 128,-1,28
 1475 1438 1475 1438 1458 1413 c 1,29,-1
 921 326 l 1,30,31
 901 295 901 295 901 273 c 0,32,33
 901 258 901 258 910 248.5 c 128,-1,34
 919 239 919 239 932.5 233.5 c 128,-1,35
 946 228 946 228 963 226.5 c 128,-1,36
 980 225 980 225 995 225 c 0,37,38
 1057 225 1057 225 1095.5 240.5 c 128,-1,39
 1134 256 1134 256 1157 281 c 128,-1,40
 1180 306 1180 306 1192.5 338 c 128,-1,41
 1205 370 1205 370 1214 403.5 c 128,-1,42
 1223 437 1223 437 1233.5 469 c 128,-1,43
 1244 501 1244 501 1264 526 c 128,-1,44
 1284 551 1284 551 1317 566.5 c 128,-1,45
 1350 582 1350 582 1405 582 c 0,46,47
 1440 582 1440 582 1470.5 570 c 128,-1,48
 1501 558 1501 558 1523 535.5 c 128,-1,49
 1545 513 1545 513 1557.5 481.5 c 128,-1,50
 1570 450 1570 450 1570 410 c 0,51,52
 1570 350 1570 350 1552.5 278.5 c 128,-1,53
 1535 207 1535 207 1499.5 145 c 128,-1,54
 1464 83 1464 83 1410.5 41.5 c 128,-1,55
 1357 0 1357 0 1284 0 c 2,56,-1
 182 0 l 2,57,58
 163 0 163 0 144 4 c 128,-1,59
 125 8 125 8 110 17.5 c 128,-1,60
 95 27 95 27 85.5 42.5 c 128,-1,61
 76 58 76 58 76 82 c 0,62,63
 76 105 76 105 86.5 134.5 c 128,-1,64
 97 164 97 164 120 203 c 1,65,-1
 694 1335 l 2,0,1
EndSplineSet
Validated: 1
EndChar

StartChar: bracketleft
Encoding: 91 91 62
Width: 863
Flags: W
HStem: -297 467<527 771.547> 1624 467<527 771.547>
VStem: 146 750<-189.59 97.585 1696.42 1983.59> 146 381<170 1624>
LayerCount: 2
Fore
SplineSet
146 1700 m 2,0,1
 146 1749 146 1749 147.5 1797.5 c 128,-1,2
 149 1846 149 1846 157 1889.5 c 128,-1,3
 165 1933 165 1933 183 1970 c 128,-1,4
 201 2007 201 2007 234.5 2034 c 128,-1,5
 268 2061 268 2061 319 2076 c 128,-1,6
 370 2091 370 2091 445 2091 c 0,7,8
 560 2091 560 2091 645 2079 c 128,-1,9
 730 2067 730 2067 786 2039.5 c 128,-1,10
 842 2012 842 2012 869 1967.5 c 128,-1,11
 896 1923 896 1923 896 1858 c 0,12,13
 896 1792 896 1792 881.5 1747.5 c 128,-1,14
 867 1703 867 1703 827 1675.5 c 128,-1,15
 787 1648 787 1648 714.5 1636 c 128,-1,16
 642 1624 642 1624 527 1624 c 1,17,-1
 527 170 l 1,18,19
 642 170 642 170 714.5 158 c 128,-1,20
 787 146 787 146 827 118.5 c 128,-1,21
 867 91 867 91 881.5 46.5 c 128,-1,22
 896 2 896 2 896 -63 c 0,23,24
 896 -129 896 -129 869 -173.5 c 128,-1,25
 842 -218 842 -218 786 -245.5 c 128,-1,26
 730 -273 730 -273 645 -285 c 128,-1,27
 560 -297 560 -297 445 -297 c 0,28,29
 370 -297 370 -297 319 -282 c 128,-1,30
 268 -267 268 -267 234.5 -240 c 128,-1,31
 201 -213 201 -213 183 -176 c 128,-1,32
 165 -139 165 -139 157 -95.5 c 128,-1,33
 149 -52 149 -52 147.5 -4 c 128,-1,34
 146 44 146 44 146 94 c 2,35,-1
 146 1700 l 2,0,1
EndSplineSet
Validated: 1
EndChar

StartChar: backslash
Encoding: 92 92 63
Width: 1034
Flags: W
LayerCount: 2
Fore
SplineSet
831 -115 m 0,0,1
 814 -120 814 -120 797 -121.5 c 128,-1,2
 780 -123 780 -123 765 -123 c 0,3,4
 717 -123 717 -123 681 -107 c 128,-1,5
 645 -91 645 -91 619.5 -66 c 128,-1,6
 594 -41 594 -41 578 -11.5 c 128,-1,7
 562 18 562 18 554 45 c 2,8,-1
 51 1731 l 2,9,10
 46 1749 46 1749 42 1768.5 c 128,-1,11
 38 1788 38 1788 38 1808 c 0,12,13
 38 1837 38 1837 49 1870.5 c 128,-1,14
 60 1904 60 1904 87 1932 c 128,-1,15
 114 1960 114 1960 159.5 1978.5 c 128,-1,16
 205 1997 205 1997 273 1997 c 0,17,18
 321 1997 321 1997 356.5 1981.5 c 128,-1,19
 392 1966 392 1966 417 1942 c 128,-1,20
 442 1918 442 1918 458 1888 c 128,-1,21
 474 1858 474 1858 482 1829 c 0,22,23
 486 1815 486 1815 501.5 1762 c 128,-1,24
 517 1709 517 1709 541 1628 c 128,-1,25
 565 1547 565 1547 596 1444 c 128,-1,26
 627 1341 627 1341 661 1227 c 128,-1,27
 695 1113 695 1113 731 992.5 c 128,-1,28
 767 872 767 872 801 757 c 128,-1,29
 835 642 835 642 866 538 c 128,-1,30
 897 434 897 434 921.5 352 c 128,-1,31
 946 270 946 270 962.5 215 c 128,-1,32
 979 160 979 160 984 143 c 1,33,34
 996 110 996 110 996 70 c 0,35,36
 996 42 996 42 988.5 14 c 128,-1,37
 981 -14 981 -14 962 -38.5 c 128,-1,38
 943 -63 943 -63 911 -83 c 128,-1,39
 879 -103 879 -103 831 -115 c 0,0,1
EndSplineSet
Validated: 1
EndChar

StartChar: bracketright
Encoding: 93 93 64
Width: 863
Flags: W
HStem: -297 467<91.4453 336> 1624 467<91.4453 336>
VStem: -33 750<-189.59 97.585 1696.42 1983.59> 336 381<170 1624>
LayerCount: 2
Fore
SplineSet
717 94 m 2,0,1
 717 45 717 45 715.5 -3.5 c 128,-1,2
 714 -52 714 -52 706 -95.5 c 128,-1,3
 698 -139 698 -139 680 -176 c 128,-1,4
 662 -213 662 -213 628.5 -240 c 128,-1,5
 595 -267 595 -267 544 -282 c 128,-1,6
 493 -297 493 -297 418 -297 c 0,7,8
 302 -297 302 -297 217.5 -285 c 128,-1,9
 133 -273 133 -273 77 -245.5 c 128,-1,10
 21 -218 21 -218 -6 -173.5 c 128,-1,11
 -33 -129 -33 -129 -33 -63 c 0,12,13
 -33 2 -33 2 -18.5 46.5 c 128,-1,14
 -4 91 -4 91 36 118.5 c 128,-1,15
 76 146 76 146 148 158 c 128,-1,16
 220 170 220 170 336 170 c 1,17,-1
 336 1624 l 1,18,19
 220 1624 220 1624 148 1636 c 128,-1,20
 76 1648 76 1648 36 1675.5 c 128,-1,21
 -4 1703 -4 1703 -18.5 1747.5 c 128,-1,22
 -33 1792 -33 1792 -33 1858 c 0,23,24
 -33 1923 -33 1923 -6 1967.5 c 128,-1,25
 21 2012 21 2012 77 2039.5 c 128,-1,26
 133 2067 133 2067 217.5 2079 c 128,-1,27
 302 2091 302 2091 418 2091 c 0,28,29
 493 2091 493 2091 544 2076 c 128,-1,30
 595 2061 595 2061 628.5 2034 c 128,-1,31
 662 2007 662 2007 680 1970 c 128,-1,32
 698 1933 698 1933 706 1889.5 c 128,-1,33
 714 1846 714 1846 715.5 1797.5 c 128,-1,34
 717 1749 717 1749 717 1700 c 2,35,-1
 717 94 l 2,0,1
EndSplineSet
Validated: 1
EndChar

StartChar: asciicircum
Encoding: 94 94 65
Width: 1046
Flags: W
HStem: 1571 20G<491.5 554.5>
LayerCount: 2
Fore
SplineSet
523 1591 m 256,0,1
 586 1591 586 1591 629 1570 c 128,-1,2
 672 1549 672 1549 708.5 1499 c 128,-1,3
 745 1449 745 1449 782.5 1366 c 128,-1,4
 820 1283 820 1283 872 1160 c 2,5,-1
 1009 834 l 2,6,7
 1016 818 1016 818 1018.5 804 c 128,-1,8
 1021 790 1021 790 1021 777 c 0,9,10
 1021 753 1021 753 1012.5 734.5 c 128,-1,11
 1004 716 1004 716 989.5 704 c 128,-1,12
 975 692 975 692 957 685.5 c 128,-1,13
 939 679 939 679 920 679 c 0,14,15
 895 679 895 679 876.5 685 c 128,-1,16
 858 691 858 691 837.5 709 c 128,-1,17
 817 727 817 727 791.5 759 c 128,-1,18
 766 791 766 791 727 843 c 1,19,-1
 523 1163 l 1,20,-1
 319 843 l 1,21,22
 280 791 280 791 254 759 c 128,-1,23
 228 727 228 727 208 709 c 128,-1,24
 188 691 188 691 169.5 685 c 128,-1,25
 151 679 151 679 126 679 c 0,26,27
 107 679 107 679 89 685.5 c 128,-1,28
 71 692 71 692 56.5 704 c 128,-1,29
 42 716 42 716 33.5 734.5 c 128,-1,30
 25 753 25 753 25 777 c 0,31,32
 25 790 25 790 27.5 804 c 128,-1,33
 30 818 30 818 37 834 c 2,34,-1
 174 1160 l 2,35,36
 226 1283 226 1283 263.5 1366 c 128,-1,37
 301 1449 301 1449 337.5 1499 c 128,-1,38
 374 1549 374 1549 417 1570 c 128,-1,39
 460 1591 460 1591 523 1591 c 256,0,1
EndSplineSet
Validated: 1
EndChar

StartChar: grave
Encoding: 96 96 67
Width: 806
Flags: W
LayerCount: 2
Fore
SplineSet
788 158 m 0,0,1
 788 142 788 142 780 125 c 128,-1,2
 772 108 772 108 758.5 93.5 c 128,-1,3
 745 79 745 79 727.5 70 c 128,-1,4
 710 61 710 61 692 61 c 0,5,6
 656 61 656 61 592.5 94 c 128,-1,7
 529 127 529 127 427 203 c 0,8,9
 388 232 388 232 342.5 264.5 c 128,-1,10
 297 297 297 297 251.5 333 c 128,-1,11
 206 369 206 369 163.5 407.5 c 128,-1,12
 121 446 121 446 88 487.5 c 128,-1,13
 55 529 55 529 35.5 572.5 c 128,-1,14
 16 616 16 616 16 662 c 0,15,16
 16 703 16 703 33 744 c 128,-1,17
 50 785 50 785 81 817.5 c 128,-1,18
 112 850 112 850 155.5 870.5 c 128,-1,19
 199 891 199 891 253 891 c 0,20,21
 321 891 321 891 374.5 850 c 128,-1,22
 428 809 428 809 474.5 744.5 c 128,-1,23
 521 680 521 680 564.5 601 c 128,-1,24
 608 522 608 522 656 446 c 0,25,26
 695 385 695 385 720.5 340 c 128,-1,27
 746 295 746 295 761 261.5 c 128,-1,28
 776 228 776 228 782 203.5 c 128,-1,29
 788 179 788 179 788 158 c 0,0,1
EndSplineSet
Validated: 1
EndChar

StartChar: a
Encoding: 97 97 68
Width: 1556
Flags: W
HStem: -25 230<398.5 733.5> 0 21G<1173.5 1285.5> 648 112<650.472 813.563> 1137 188<605.268 754.866>
VStem: 40 544<230.576 518.081> 138 416<885.514 1082.61> 820 579<282.293 647.625 760 1013.04>
LayerCount: 2
Fore
SplineSet
717 205 m 0,0,1
 750 205 750 205 770.5 215.5 c 128,-1,2
 791 226 791 226 802 245.5 c 128,-1,3
 813 265 813 265 816.5 293.5 c 128,-1,4
 820 322 820 322 820 358 c 0,5,6
 820 389 820 389 819 437 c 128,-1,7
 818 485 818 485 817 531 c 0,8,9
 815 585 815 585 814 643 c 1,10,11
 800 645 800 645 787.5 646.5 c 128,-1,12
 775 648 775 648 763 648 c 0,13,14
 712 648 712 648 677.5 627.5 c 128,-1,15
 643 607 643 607 622 570.5 c 128,-1,16
 601 534 601 534 592.5 484.5 c 128,-1,17
 584 435 584 435 584 377 c 0,18,19
 584 342 584 342 588 310.5 c 128,-1,20
 592 279 592 279 606 255.5 c 128,-1,21
 620 232 620 232 646.5 218.5 c 128,-1,22
 673 205 673 205 717 205 c 0,0,1
1199 0 m 0,23,24
 1148 0 1148 0 1097.5 5.5 c 128,-1,25
 1047 11 1047 11 1001.5 28 c 128,-1,26
 956 45 956 45 918 77 c 128,-1,27
 880 109 880 109 853 162 c 1,28,29
 833 115 833 115 788.5 80 c 128,-1,30
 744 45 744 45 687.5 21.5 c 128,-1,31
 631 -2 631 -2 568.5 -13.5 c 128,-1,32
 506 -25 506 -25 449 -25 c 0,33,34
 348 -25 348 -25 272 -1 c 128,-1,35
 196 23 196 23 144 67.5 c 128,-1,36
 92 112 92 112 66 174 c 128,-1,37
 40 236 40 236 40 313 c 0,38,39
 40 404 40 404 70.5 485.5 c 128,-1,40
 101 567 101 567 174.5 628 c 128,-1,41
 248 689 248 689 371 724.5 c 128,-1,42
 494 760 494 760 679 760 c 2,43,-1
 816 760 l 1,44,45
 816 871 816 871 808.5 944 c 128,-1,46
 801 1017 801 1017 785 1060 c 128,-1,47
 769 1103 769 1103 745 1120 c 128,-1,48
 721 1137 721 1137 687 1137 c 0,49,50
 649 1137 649 1137 623.5 1114 c 128,-1,51
 598 1091 598 1091 582.5 1047.5 c 128,-1,52
 567 1004 567 1004 560.5 942.5 c 128,-1,53
 554 881 554 881 554 803 c 1,54,55
 511 803 511 803 463.5 804.5 c 128,-1,56
 416 806 416 806 369.5 812 c 128,-1,57
 323 818 323 818 281.5 830.5 c 128,-1,58
 240 843 240 843 208 864.5 c 128,-1,59
 176 886 176 886 157 919 c 128,-1,60
 138 952 138 952 138 999 c 0,61,62
 138 1065 138 1065 172.5 1124 c 128,-1,63
 207 1183 207 1183 278.5 1227.5 c 128,-1,64
 350 1272 350 1272 460 1298.5 c 128,-1,65
 570 1325 570 1325 722 1325 c 0,66,67
 899 1325 899 1325 1027 1289 c 128,-1,68
 1155 1253 1155 1253 1237.5 1181 c 128,-1,69
 1320 1109 1320 1109 1359.5 999.5 c 128,-1,70
 1399 890 1399 890 1399 743 c 2,71,-1
 1399 389 l 2,72,73
 1399 346 1399 346 1410.5 322 c 128,-1,74
 1422 298 1422 298 1438.5 285.5 c 128,-1,75
 1455 273 1455 273 1475 268 c 128,-1,76
 1495 263 1495 263 1511.5 257.5 c 128,-1,77
 1528 252 1528 252 1539.5 242.5 c 128,-1,78
 1551 233 1551 233 1551 211 c 0,79,80
 1551 111 1551 111 1461.5 55.5 c 128,-1,81
 1372 0 1372 0 1199 0 c 0,23,24
EndSplineSet
Validated: 1
Substitution2: "'smcp' Lowercase to Small Capitals in Latin lookup 1 subtable" a.sc
Substitution2: "'aalt' Access All Alternates in Latin lookup 0 subtable" a.sc
EndChar

StartChar: b
Encoding: 98 98 69
Width: 1787
Flags: W
HStem: -25 254<946.654 1252> 0 21G<451 535.5> 1069 256<919.5 1270.5> 1866 20G<451 559>
VStem: 204 612<281.352 1052.32 1196 1604.86> 1105 631<347.451 962.741>
LayerCount: 2
Fore
SplineSet
818 1196 m 1,0,1
 846 1219 846 1219 883.5 1242 c 128,-1,2
 921 1265 921 1265 970 1283.5 c 128,-1,3
 1019 1302 1019 1302 1081 1313.5 c 128,-1,4
 1143 1325 1143 1325 1220 1325 c 0,5,6
 1321 1325 1321 1325 1398.5 1296 c 128,-1,7
 1476 1267 1476 1267 1533.5 1217.5 c 128,-1,8
 1591 1168 1591 1168 1630 1101 c 128,-1,9
 1669 1034 1669 1034 1692.5 958 c 128,-1,10
 1716 882 1716 882 1726 801 c 128,-1,11
 1736 720 1736 720 1736 641 c 0,12,13
 1736 557 1736 557 1722.5 475 c 128,-1,14
 1709 393 1709 393 1681.5 319 c 128,-1,15
 1654 245 1654 245 1611 182 c 128,-1,16
 1568 119 1568 119 1509 73 c 128,-1,17
 1450 27 1450 27 1374.5 1 c 128,-1,18
 1299 -25 1299 -25 1205 -25 c 0,19,20
 1118 -25 1118 -25 1050.5 -10.5 c 128,-1,21
 983 4 983 4 931.5 26 c 128,-1,22
 880 48 880 48 843.5 74.5 c 128,-1,23
 807 101 807 101 783 125 c 1,24,25
 769 96 769 96 747 72.5 c 128,-1,26
 725 49 725 49 692 33 c 128,-1,27
 659 17 659 17 612.5 8.5 c 128,-1,28
 566 0 566 0 505 0 c 0,29,30
 397 0 397 0 314 12 c 128,-1,31
 231 24 231 24 174 50.5 c 128,-1,32
 117 77 117 77 87.5 117.5 c 128,-1,33
 58 158 58 158 58 215 c 0,34,35
 58 237 58 237 69 246.5 c 128,-1,36
 80 256 80 256 96 261 c 128,-1,37
 112 266 112 266 131 270 c 128,-1,38
 150 274 150 274 166 285.5 c 128,-1,39
 182 297 182 297 193 318.5 c 128,-1,40
 204 340 204 340 204 381 c 2,41,-1
 204 1505 l 2,42,43
 204 1546 204 1546 193 1567.5 c 128,-1,44
 182 1589 182 1589 166 1600.5 c 128,-1,45
 150 1612 150 1612 131 1616 c 128,-1,46
 112 1620 112 1620 96 1625 c 128,-1,47
 80 1630 80 1630 69 1639.5 c 128,-1,48
 58 1649 58 1649 58 1671 c 0,49,50
 58 1728 58 1728 87.5 1768.5 c 128,-1,51
 117 1809 117 1809 174 1835.5 c 128,-1,52
 231 1862 231 1862 314 1874 c 128,-1,53
 397 1886 397 1886 505 1886 c 256,54,55
 613 1886 613 1886 675.5 1875 c 128,-1,56
 738 1864 738 1864 770 1837.5 c 128,-1,57
 802 1811 802 1811 811 1766 c 128,-1,58
 820 1721 820 1721 820 1653 c 2,59,-1
 818 1196 l 1,0,1
937 1069 m 0,60,61
 902 1069 902 1069 871.5 1057 c 128,-1,62
 841 1045 841 1045 816 1028 c 1,63,-1
 816 385 l 2,64,65
 816 356 816 356 816 328 c 128,-1,66
 816 300 816 300 814 274 c 1,67,68
 842 257 842 257 877 243 c 128,-1,69
 912 229 912 229 955 229 c 0,70,71
 1011 229 1011 229 1041.5 248.5 c 128,-1,72
 1072 268 1072 268 1086 315 c 128,-1,73
 1100 362 1100 362 1102.5 440.5 c 128,-1,74
 1105 519 1105 519 1105 637 c 0,75,76
 1105 761 1105 761 1096 844.5 c 128,-1,77
 1087 928 1087 928 1067 977.5 c 128,-1,78
 1047 1027 1047 1027 1015 1048 c 128,-1,79
 983 1069 983 1069 937 1069 c 0,60,61
EndSplineSet
Validated: 1
Substitution2: "'smcp' Lowercase to Small Capitals in Latin lookup 1 subtable" b.sc
Substitution2: "'aalt' Access All Alternates in Latin lookup 0 subtable" b.sc
EndChar

StartChar: c
Encoding: 99 99 70
Width: 1329
Flags: W
HStem: -25 357<659 974.173> 1069 256<707.69 918.35>
VStem: 45 602<503.277 906.255>
LayerCount: 2
Fore
SplineSet
729 1325 m 0,0,1
 878 1325 878 1325 983.5 1292 c 128,-1,2
 1089 1259 1089 1259 1156.5 1203 c 128,-1,3
 1224 1147 1224 1147 1255 1072 c 128,-1,4
 1286 997 1286 997 1286 913 c 0,5,6
 1286 878 1286 878 1275 851 c 128,-1,7
 1264 824 1264 824 1245.5 805 c 128,-1,8
 1227 786 1227 786 1201 776 c 128,-1,9
 1175 766 1175 766 1145 766 c 0,10,11
 1119 766 1119 766 1092 775 c 128,-1,12
 1065 784 1065 784 1041 804 c 128,-1,13
 1017 824 1017 824 998 856 c 128,-1,14
 979 888 979 888 969 934 c 0,15,16
 961 967 961 967 945 992 c 128,-1,17
 929 1017 929 1017 908.5 1034.5 c 128,-1,18
 888 1052 888 1052 863.5 1060.5 c 128,-1,19
 839 1069 839 1069 815 1069 c 0,20,21
 772 1069 772 1069 740.5 1051 c 128,-1,22
 709 1033 709 1033 688 998.5 c 128,-1,23
 667 964 667 964 657 914.5 c 128,-1,24
 647 865 647 865 647 803 c 0,25,26
 647 563 647 563 719.5 447.5 c 128,-1,27
 792 332 792 332 952 332 c 0,28,29
 998 332 998 332 1046 344.5 c 128,-1,30
 1094 357 1094 357 1135 372 c 128,-1,31
 1176 387 1176 387 1206 399.5 c 128,-1,32
 1236 412 1236 412 1247 412 c 0,33,34
 1270 412 1270 412 1283 392.5 c 128,-1,35
 1296 373 1296 373 1296 348 c 0,36,37
 1296 340 1296 340 1295.5 333 c 128,-1,38
 1295 326 1295 326 1292 319 c 0,39,40
 1263 245 1263 245 1210 182.5 c 128,-1,41
 1157 120 1157 120 1083.5 73.5 c 128,-1,42
 1010 27 1010 27 917 1 c 128,-1,43
 824 -25 824 -25 715 -25 c 0,44,45
 603 -25 603 -25 510 1.5 c 128,-1,46
 417 28 417 28 342.5 75.5 c 128,-1,47
 268 123 268 123 212.5 187 c 128,-1,48
 157 251 157 251 119.5 326.5 c 128,-1,49
 82 402 82 402 63.5 484.5 c 128,-1,50
 45 567 45 567 45 651 c 0,51,52
 45 736 45 736 64 819.5 c 128,-1,53
 83 903 83 903 121 978 c 128,-1,54
 159 1053 159 1053 216 1116.5 c 128,-1,55
 273 1180 273 1180 349 1226.5 c 128,-1,56
 425 1273 425 1273 520 1299 c 128,-1,57
 615 1325 615 1325 729 1325 c 0,0,1
EndSplineSet
Validated: 1
Substitution2: "'smcp' Lowercase to Small Capitals in Latin lookup 1 subtable" c.sc
Substitution2: "'aalt' Access All Alternates in Latin lookup 0 subtable" c.sc
EndChar

StartChar: d
Encoding: 100 100 71
Width: 1783
Flags: W
HStem: -25 254<510.5 823.498> 0 21G<1237 1378.5> 1069 256<538.5 839.92> 1866 20G<1213.5 1321>
VStem: 51 604<323.08 943.242> 966 613<282.137 1037.45 1204 1605.17>
LayerCount: 2
Fore
SplineSet
1579 385 m 2,0,1
 1579 344 1579 344 1590 321 c 128,-1,2
 1601 298 1601 298 1617 286.5 c 128,-1,3
 1633 275 1633 275 1652.5 270.5 c 128,-1,4
 1672 266 1672 266 1688 261 c 128,-1,5
 1704 256 1704 256 1715 246.5 c 128,-1,6
 1726 237 1726 237 1726 215 c 0,7,8
 1726 101 1726 101 1608 50.5 c 128,-1,9
 1490 0 1490 0 1267 0 c 0,10,11
 1207 0 1207 0 1162 9 c 128,-1,12
 1117 18 1117 18 1084.5 34.5 c 128,-1,13
 1052 51 1052 51 1031 74.5 c 128,-1,14
 1010 98 1010 98 997 127 c 1,15,16
 971 103 971 103 933.5 76 c 128,-1,17
 896 49 896 49 842.5 26.5 c 128,-1,18
 789 4 789 4 719.5 -10.5 c 128,-1,19
 650 -25 650 -25 561 -25 c 0,20,21
 460 -25 460 -25 382.5 3 c 128,-1,22
 305 31 305 31 248.5 79.5 c 128,-1,23
 192 128 192 128 154 193 c 128,-1,24
 116 258 116 258 93 332 c 128,-1,25
 70 406 70 406 60.5 485 c 128,-1,26
 51 564 51 564 51 641 c 0,27,28
 51 720 51 720 62.5 801 c 128,-1,29
 74 882 74 882 100.5 958 c 128,-1,30
 127 1034 127 1034 168.5 1101 c 128,-1,31
 210 1168 210 1168 269.5 1217.5 c 128,-1,32
 329 1267 329 1267 408.5 1296 c 128,-1,33
 488 1325 488 1325 589 1325 c 0,34,35
 660 1325 660 1325 718 1314.5 c 128,-1,36
 776 1304 776 1304 822.5 1287 c 128,-1,37
 869 1270 869 1270 904.5 1248 c 128,-1,38
 940 1226 940 1226 966 1204 c 1,39,-1
 966 1505 l 2,40,41
 966 1546 966 1546 955.5 1567.5 c 128,-1,42
 945 1589 945 1589 928.5 1600.5 c 128,-1,43
 912 1612 912 1612 893.5 1616 c 128,-1,44
 875 1620 875 1620 858.5 1625 c 128,-1,45
 842 1630 842 1630 831.5 1639.5 c 128,-1,46
 821 1649 821 1649 821 1671 c 0,47,48
 821 1728 821 1728 850.5 1768.5 c 128,-1,49
 880 1809 880 1809 937 1835.5 c 128,-1,50
 994 1862 994 1862 1077 1874 c 128,-1,51
 1160 1886 1160 1886 1267 1886 c 0,52,53
 1375 1886 1375 1886 1437.5 1875 c 128,-1,54
 1500 1864 1500 1864 1532.5 1837.5 c 128,-1,55
 1565 1811 1565 1811 1574 1766 c 128,-1,56
 1583 1721 1583 1721 1583 1653 c 2,57,-1
 1579 385 l 2,0,1
821 229 m 0,58,59
 861 229 861 229 900 243 c 128,-1,60
 939 257 939 257 968 274 c 1,61,62
 966 300 966 300 966 326.5 c 128,-1,63
 966 353 966 353 966 381 c 2,64,-1
 966 1014 l 1,65,66
 932 1034 932 1034 891 1051.5 c 128,-1,67
 850 1069 850 1069 807 1069 c 0,68,69
 761 1069 761 1069 731.5 1048 c 128,-1,70
 702 1027 702 1027 685 977.5 c 128,-1,71
 668 928 668 928 661.5 844.5 c 128,-1,72
 655 761 655 761 655 637 c 0,73,74
 655 562 655 562 660 489 c 128,-1,75
 665 416 665 416 682 358.5 c 128,-1,76
 699 301 699 301 732 265 c 128,-1,77
 765 229 765 229 821 229 c 0,58,59
EndSplineSet
Validated: 1
Substitution2: "'smcp' Lowercase to Small Capitals in Latin lookup 1 subtable" d.sc
Substitution2: "'aalt' Access All Alternates in Latin lookup 0 subtable" d.sc
EndChar

StartChar: e
Encoding: 101 101 72
Width: 1345
Flags: W
HStem: -25 357<658 982.186> 682 141<651 970> 1069 256<706.505 919.77>
VStem: 45 602<451.273 680.174> 970 340<823 1016.38>
LayerCount: 2
Fore
SplineSet
803 1069 m 0,0,1
 771 1069 771 1069 743 1054.5 c 128,-1,2
 715 1040 715 1040 694.5 1010 c 128,-1,3
 674 980 674 980 662.5 933.5 c 128,-1,4
 651 887 651 887 651 823 c 1,5,-1
 970 823 l 1,6,7
 970 893 970 893 959 940.5 c 128,-1,8
 948 988 948 988 927 1016.5 c 128,-1,9
 906 1045 906 1045 874.5 1057 c 128,-1,10
 843 1069 843 1069 803 1069 c 0,0,1
729 1325 m 0,11,12
 863 1325 863 1325 970.5 1285 c 128,-1,13
 1078 1245 1078 1245 1153.5 1175 c 128,-1,14
 1229 1105 1229 1105 1269.5 1010.5 c 128,-1,15
 1310 916 1310 916 1310 807 c 0,16,17
 1310 762 1310 762 1297.5 737 c 128,-1,18
 1285 712 1285 712 1262 700 c 128,-1,19
 1239 688 1239 688 1205 685 c 128,-1,20
 1171 682 1171 682 1128 682 c 2,21,-1
 647 682 l 1,22,23
 647 572 647 572 669.5 503.5 c 128,-1,24
 692 435 692 435 732 397 c 128,-1,25
 772 359 772 359 828 345.5 c 128,-1,26
 884 332 884 332 952 332 c 0,27,28
 988 332 988 332 1026.5 339 c 128,-1,29
 1065 346 1065 346 1100.5 357 c 128,-1,30
 1136 368 1136 368 1166 380 c 128,-1,31
 1196 392 1196 392 1216 403 c 0,32,33
 1232 412 1232 412 1247 412 c 0,34,35
 1270 412 1270 412 1283 392.5 c 128,-1,36
 1296 373 1296 373 1296 349 c 0,37,38
 1296 341 1296 341 1295 334 c 128,-1,39
 1294 327 1294 327 1291 320 c 0,40,41
 1262 246 1262 246 1212 183 c 128,-1,42
 1162 120 1162 120 1090.5 73.5 c 128,-1,43
 1019 27 1019 27 925 1 c 128,-1,44
 831 -25 831 -25 714 -25 c 0,45,46
 602 -25 602 -25 509.5 1.5 c 128,-1,47
 417 28 417 28 342.5 75.5 c 128,-1,48
 268 123 268 123 212 187 c 128,-1,49
 156 251 156 251 119 326.5 c 128,-1,50
 82 402 82 402 63.5 484.5 c 128,-1,51
 45 567 45 567 45 651 c 0,52,53
 45 736 45 736 64 819.5 c 128,-1,54
 83 903 83 903 121 978 c 128,-1,55
 159 1053 159 1053 216 1116.5 c 128,-1,56
 273 1180 273 1180 349 1226.5 c 128,-1,57
 425 1273 425 1273 520 1299 c 128,-1,58
 615 1325 615 1325 729 1325 c 0,11,12
EndSplineSet
Validated: 1
Substitution2: "'smcp' Lowercase to Small Capitals in Latin lookup 1 subtable" e.sc
Substitution2: "'aalt' Access All Alternates in Latin lookup 0 subtable" e.sc
EndChar

StartChar: f
Encoding: 102 102 73
Width: 1056
Flags: W
HStem: 0 21G<463 628.5> 1098 198<78.9235 216 828 1013.77> 1638 222<766.898 903.703>
VStem: 216 612<280.117 1096 1296 1484.45> 883 451<1417.35 1635.99>
LayerCount: 2
Fore
SplineSet
222 1296 m 1,0,1
 222 1368 222 1368 236 1437.5 c 128,-1,2
 250 1507 250 1507 280 1569.5 c 128,-1,3
 310 1632 310 1632 357.5 1685.5 c 128,-1,4
 405 1739 405 1739 472.5 1777.5 c 128,-1,5
 540 1816 540 1816 628 1838 c 128,-1,6
 716 1860 716 1860 828 1860 c 0,7,8
 931 1860 931 1860 1023 1843.5 c 128,-1,9
 1115 1827 1115 1827 1184 1789.5 c 128,-1,10
 1253 1752 1253 1752 1293.5 1690.5 c 128,-1,11
 1334 1629 1334 1629 1334 1540 c 0,12,13
 1334 1512 1334 1512 1323.5 1478.5 c 128,-1,14
 1313 1445 1313 1445 1288 1415.5 c 128,-1,15
 1263 1386 1263 1386 1221.5 1366 c 128,-1,16
 1180 1346 1180 1346 1119 1346 c 0,17,18
 1054 1346 1054 1346 1009.5 1363 c 128,-1,19
 965 1380 965 1380 936.5 1407 c 128,-1,20
 908 1434 908 1434 895.5 1467.5 c 128,-1,21
 883 1501 883 1501 883 1534 c 0,22,23
 883 1553 883 1553 887.5 1580 c 128,-1,24
 892 1607 892 1607 906 1638 c 1,25,26
 864 1638 864 1638 836.5 1634 c 128,-1,27
 809 1630 809 1630 792.5 1621.5 c 128,-1,28
 776 1613 776 1613 769 1601 c 128,-1,29
 762 1589 762 1589 762 1573 c 0,30,31
 762 1552 762 1552 771 1523.5 c 128,-1,32
 780 1495 780 1495 791 1460 c 128,-1,33
 802 1425 802 1425 811 1384 c 128,-1,34
 820 1343 820 1343 820 1296 c 1,35,-1
 926 1296 l 2,36,37
 938 1296 938 1296 955 1294.5 c 128,-1,38
 972 1293 972 1293 987 1284 c 128,-1,39
 1002 1275 1002 1275 1012.5 1255.5 c 128,-1,40
 1023 1236 1023 1236 1023 1200 c 0,41,42
 1023 1166 1023 1166 1015 1145.5 c 128,-1,43
 1007 1125 1007 1125 994.5 1114.5 c 128,-1,44
 982 1104 982 1104 967.5 1101 c 128,-1,45
 953 1098 953 1098 940 1098 c 2,46,-1
 828 1098 l 1,47,-1
 828 383 l 2,48,49
 828 342 828 342 839 319 c 128,-1,50
 850 296 850 296 866 284.5 c 128,-1,51
 882 273 882 273 901.5 268.5 c 128,-1,52
 921 264 921 264 937 259 c 128,-1,53
 953 254 953 254 964 244.5 c 128,-1,54
 975 235 975 235 975 213 c 0,55,56
 975 99 975 99 857.5 49.5 c 128,-1,57
 740 0 740 0 517 0 c 0,58,59
 409 0 409 0 326 12 c 128,-1,60
 243 24 243 24 186 49.5 c 128,-1,61
 129 75 129 75 99.5 115.5 c 128,-1,62
 70 156 70 156 70 213 c 0,63,64
 70 235 70 235 81 244.5 c 128,-1,65
 92 254 92 254 108 259 c 128,-1,66
 124 264 124 264 143 268 c 128,-1,67
 162 272 162 272 178 283.5 c 128,-1,68
 194 295 194 295 205 316.5 c 128,-1,69
 216 338 216 338 216 379 c 2,70,-1
 216 1096 l 1,71,-1
 167 1096 l 2,72,73
 154 1096 154 1096 137 1097.5 c 128,-1,74
 120 1099 120 1099 105 1109 c 128,-1,75
 90 1119 90 1119 80 1140 c 128,-1,76
 70 1161 70 1161 70 1200 c 0,77,78
 70 1236 70 1236 80.5 1255.5 c 128,-1,79
 91 1275 91 1275 106 1284 c 128,-1,80
 121 1293 121 1293 138 1294.5 c 128,-1,81
 155 1296 155 1296 167 1296 c 2,82,-1
 222 1296 l 1,0,1
EndSplineSet
Validated: 1
Substitution2: "'smcp' Lowercase to Small Capitals in Latin lookup 1 subtable" f.sc
Substitution2: "'aalt' Access All Alternates in Latin lookup 0 subtable" f.sc
EndChar

StartChar: g
Encoding: 103 103 74
Width: 1644
Flags: W
HStem: -598 281<535.281 977.667> 414 272<712.669 887.455> 1069 256<682.18 877.548> 1147 178<1316.21 1392.09>
VStem: 104 545<756.327 1038.59> 129 327<-246.809 -90.0239> 931 474<729.238 1014.35> 1013 504<-278.735 -50.5>
LayerCount: 2
Fore
SplineSet
845 1325 m 0,0,1
 960 1325 960 1325 1050 1302 c 128,-1,2
 1140 1279 1140 1279 1206 1237 c 1,3,4
 1234 1255 1234 1255 1268.5 1271 c 128,-1,5
 1303 1287 1303 1287 1340.5 1299 c 128,-1,6
 1378 1311 1378 1311 1417 1318 c 128,-1,7
 1456 1325 1456 1325 1493 1325 c 0,8,9
 1534 1325 1534 1325 1570.5 1315.5 c 128,-1,10
 1607 1306 1607 1306 1634 1285.5 c 128,-1,11
 1661 1265 1661 1265 1677 1232 c 128,-1,12
 1693 1199 1693 1199 1693 1151 c 0,13,14
 1693 1120 1693 1120 1682.5 1090.5 c 128,-1,15
 1672 1061 1672 1061 1651 1037.5 c 128,-1,16
 1630 1014 1630 1014 1598.5 999.5 c 128,-1,17
 1567 985 1567 985 1525 985 c 256,18,19
 1483 985 1483 985 1459.5 997 c 128,-1,20
 1436 1009 1436 1009 1423 1027 c 128,-1,21
 1410 1045 1410 1045 1404 1066 c 128,-1,22
 1398 1087 1398 1087 1391 1105 c 128,-1,23
 1384 1123 1384 1123 1373.5 1135 c 128,-1,24
 1363 1147 1363 1147 1341 1147 c 0,25,26
 1336 1147 1336 1147 1330 1146 c 128,-1,27
 1324 1145 1324 1145 1316 1143 c 1,28,29
 1361 1090 1361 1090 1383 1029 c 128,-1,30
 1405 968 1405 968 1405 905 c 0,31,32
 1405 815 1405 815 1363.5 727.5 c 128,-1,33
 1322 640 1322 640 1240.5 570 c 128,-1,34
 1159 500 1159 500 1038.5 457 c 128,-1,35
 918 414 918 414 761 414 c 0,36,37
 681 414 681 414 602 426 c 1,38,-1
 602 401 l 2,39,40
 602 376 602 376 641.5 364.5 c 128,-1,41
 681 353 681 353 745 346 c 128,-1,42
 809 339 809 339 891.5 332.5 c 128,-1,43
 974 326 974 326 1059.5 312 c 128,-1,44
 1145 298 1145 298 1227.5 271 c 128,-1,45
 1310 244 1310 244 1374 196.5 c 128,-1,46
 1438 149 1438 149 1477.5 76 c 128,-1,47
 1517 3 1517 3 1517 -104 c 0,48,49
 1517 -191 1517 -191 1491 -261 c 128,-1,50
 1465 -331 1465 -331 1419 -386 c 128,-1,51
 1373 -441 1373 -441 1310 -481 c 128,-1,52
 1247 -521 1247 -521 1173 -547 c 128,-1,53
 1099 -573 1099 -573 1016.5 -585.5 c 128,-1,54
 934 -598 934 -598 850 -598 c 0,55,56
 761 -598 761 -598 673 -589.5 c 128,-1,57
 585 -581 585 -581 505 -560.5 c 128,-1,58
 425 -540 425 -540 356.5 -507.5 c 128,-1,59
 288 -475 288 -475 237.5 -426.5 c 128,-1,60
 187 -378 187 -378 158 -312.5 c 128,-1,61
 129 -247 129 -247 129 -162 c 0,62,63
 129 -106 129 -106 147 -66.5 c 128,-1,64
 165 -27 165 -27 194 -2 c 1,65,66
 143 35 143 35 113.5 90.5 c 128,-1,67
 84 146 84 146 84 227 c 0,68,69
 84 282 84 282 103 326 c 128,-1,70
 122 370 122 370 157 404 c 128,-1,71
 192 438 192 438 241.5 462.5 c 128,-1,72
 291 487 291 487 352 504 c 1,73,74
 296 532 296 532 250.5 570 c 128,-1,75
 205 608 205 608 172.5 655 c 128,-1,76
 140 702 140 702 122 758.5 c 128,-1,77
 104 815 104 815 104 881 c 0,78,79
 104 964 104 964 149 1043.5 c 128,-1,80
 194 1123 194 1123 285.5 1185.5 c 128,-1,81
 377 1248 377 1248 516.5 1286.5 c 128,-1,82
 656 1325 656 1325 845 1325 c 0,0,1
1013 -190 m 0,83,84
 1013 -164 1013 -164 989.5 -149 c 128,-1,85
 966 -134 966 -134 925.5 -126 c 128,-1,86
 885 -118 885 -118 830.5 -115 c 128,-1,87
 776 -112 776 -112 713.5 -109.5 c 128,-1,88
 651 -107 651 -107 584.5 -103 c 128,-1,89
 518 -99 518 -99 454 -90 c 1,90,91
 455 -116 455 -116 456 -142.5 c 128,-1,92
 457 -169 457 -169 466 -194.5 c 128,-1,93
 475 -220 475 -220 494.5 -242 c 128,-1,94
 514 -264 514 -264 551.5 -281 c 128,-1,95
 589 -298 589 -298 646.5 -307.5 c 128,-1,96
 704 -317 704 -317 790 -317 c 0,97,98
 864 -317 864 -317 908 -305 c 128,-1,99
 952 -293 952 -293 975.5 -274 c 128,-1,100
 999 -255 999 -255 1006 -232.5 c 128,-1,101
 1013 -210 1013 -210 1013 -190 c 0,83,84
782 1069 m 0,102,103
 746 1069 746 1069 720.5 1056.5 c 128,-1,104
 695 1044 695 1044 679.5 1023 c 128,-1,105
 664 1002 664 1002 656.5 974 c 128,-1,106
 649 946 649 946 649 915 c 0,107,108
 649 875 649 875 660 834.5 c 128,-1,109
 671 794 671 794 690.5 761 c 128,-1,110
 710 728 710 728 736.5 707 c 128,-1,111
 763 686 763 686 794 686 c 0,112,113
 828 686 828 686 854 701.5 c 128,-1,114
 880 717 880 717 897 742.5 c 128,-1,115
 914 768 914 768 922.5 800.5 c 128,-1,116
 931 833 931 833 931 868 c 0,117,118
 931 905 931 905 921.5 941 c 128,-1,119
 912 977 912 977 893 1005.5 c 128,-1,120
 874 1034 874 1034 846.5 1051.5 c 128,-1,121
 819 1069 819 1069 782 1069 c 0,102,103
EndSplineSet
Validated: 1
Substitution2: "'smcp' Lowercase to Small Capitals in Latin lookup 1 subtable" g.sc
Substitution2: "'aalt' Access All Alternates in Latin lookup 0 subtable" g.sc
EndChar

StartChar: h
Encoding: 104 104 75
Width: 1940
Flags: W
HStem: 0 21G<388.5 607.5 1403 1568.5> 1069 256<952.5 1322> 1866 20G<388.5 550>
VStem: 195 612<282.434 1030.77 1151 1605.17> 1160 604<285.465 1003.98>
LayerCount: 2
Fore
SplineSet
809 1151 m 1,0,1
 832 1176 832 1176 870 1206 c 128,-1,2
 908 1236 908 1236 964 1262.5 c 128,-1,3
 1020 1289 1020 1289 1094.5 1307 c 128,-1,4
 1169 1325 1169 1325 1266 1325 c 0,5,6
 1378 1325 1378 1325 1458 1296.5 c 128,-1,7
 1538 1268 1538 1268 1593.5 1220 c 128,-1,8
 1649 1172 1649 1172 1682.5 1109.5 c 128,-1,9
 1716 1047 1716 1047 1734 978.5 c 128,-1,10
 1752 910 1752 910 1758 840.5 c 128,-1,11
 1764 771 1764 771 1764 709 c 2,12,-1
 1764 393 l 2,13,14
 1764 350 1764 350 1775 326 c 128,-1,15
 1786 302 1786 302 1803 289.5 c 128,-1,16
 1820 277 1820 277 1839.5 272 c 128,-1,17
 1859 267 1859 267 1876 261.5 c 128,-1,18
 1893 256 1893 256 1904 246.5 c 128,-1,19
 1915 237 1915 237 1915 215 c 0,20,21
 1915 101 1915 101 1797.5 50.5 c 128,-1,22
 1680 0 1680 0 1457 0 c 0,23,24
 1349 0 1349 0 1266 12 c 128,-1,25
 1183 24 1183 24 1126 50.5 c 128,-1,26
 1069 77 1069 77 1039.5 117.5 c 128,-1,27
 1010 158 1010 158 1010 215 c 0,28,29
 1010 237 1010 237 1021 246.5 c 128,-1,30
 1032 256 1032 256 1049 261.5 c 128,-1,31
 1066 267 1066 267 1085 271.5 c 128,-1,32
 1104 276 1104 276 1121 288 c 128,-1,33
 1138 300 1138 300 1149 323 c 128,-1,34
 1160 346 1160 346 1160 389 c 2,35,-1
 1160 797 l 2,36,37
 1160 861 1160 861 1151 912 c 128,-1,38
 1142 963 1142 963 1120 997.5 c 128,-1,39
 1098 1032 1098 1032 1060.5 1050.5 c 128,-1,40
 1023 1069 1023 1069 967 1069 c 0,41,42
 938 1069 938 1069 914 1061 c 128,-1,43
 890 1053 890 1053 869.5 1041.5 c 128,-1,44
 849 1030 849 1030 833.5 1017 c 128,-1,45
 818 1004 818 1004 807 993 c 1,46,-1
 807 385 l 2,47,48
 807 344 807 344 818 321 c 128,-1,49
 829 298 829 298 845.5 286.5 c 128,-1,50
 862 275 862 275 881 270.5 c 128,-1,51
 900 266 900 266 916.5 261 c 128,-1,52
 933 256 933 256 944 246.5 c 128,-1,53
 955 237 955 237 955 215 c 0,54,55
 955 101 955 101 837 50.5 c 128,-1,56
 719 0 719 0 496 0 c 0,57,58
 281 0 281 0 165.5 50.5 c 128,-1,59
 50 101 50 101 50 215 c 0,60,61
 50 237 50 237 60.5 246.5 c 128,-1,62
 71 256 71 256 87.5 261 c 128,-1,63
 104 266 104 266 122.5 270 c 128,-1,64
 141 274 141 274 157.5 285.5 c 128,-1,65
 174 297 174 297 184.5 318.5 c 128,-1,66
 195 340 195 340 195 381 c 2,67,-1
 195 1505 l 2,68,69
 195 1546 195 1546 184.5 1567.5 c 128,-1,70
 174 1589 174 1589 157.5 1600.5 c 128,-1,71
 141 1612 141 1612 122.5 1616 c 128,-1,72
 104 1620 104 1620 87.5 1625 c 128,-1,73
 71 1630 71 1630 60.5 1639.5 c 128,-1,74
 50 1649 50 1649 50 1671 c 0,75,76
 50 1785 50 1785 165.5 1835.5 c 128,-1,77
 281 1886 281 1886 496 1886 c 0,78,79
 604 1886 604 1886 666.5 1875 c 128,-1,80
 729 1864 729 1864 761 1837.5 c 128,-1,81
 793 1811 793 1811 802 1766 c 128,-1,82
 811 1721 811 1721 811 1653 c 2,83,-1
 809 1151 l 1,0,1
EndSplineSet
Validated: 1
Substitution2: "'smcp' Lowercase to Small Capitals in Latin lookup 1 subtable" h.sc
Substitution2: "'aalt' Access All Alternates in Latin lookup 0 subtable" h.sc
EndChar

StartChar: i
Encoding: 105 105 76
Width: 1024
Flags: W
HStem: 0 21G<459 624.5> 1276 20G<459 567> 1393 495<338.383 723.234>
VStem: 204 651<1507.86 1772.41> 212 612<281.451 1014.86>
LayerCount: 2
Fore
SplineSet
204 1640 m 256,0,1
 204 1690 204 1690 221.5 1727.5 c 128,-1,2
 239 1765 239 1765 266.5 1792.5 c 128,-1,3
 294 1820 294 1820 329.5 1838.5 c 128,-1,4
 365 1857 365 1857 401 1868 c 128,-1,5
 437 1879 437 1879 470.5 1883.5 c 128,-1,6
 504 1888 504 1888 529 1888 c 0,7,8
 556 1888 556 1888 590.5 1883.5 c 128,-1,9
 625 1879 625 1879 661 1868 c 128,-1,10
 697 1857 697 1857 732 1838.5 c 128,-1,11
 767 1820 767 1820 794.5 1792.5 c 128,-1,12
 822 1765 822 1765 838.5 1727.5 c 128,-1,13
 855 1690 855 1690 855 1640 c 0,14,15
 855 1591 855 1591 838.5 1553 c 128,-1,16
 822 1515 822 1515 794.5 1488 c 128,-1,17
 767 1461 767 1461 732 1442.5 c 128,-1,18
 697 1424 697 1424 661 1413 c 128,-1,19
 625 1402 625 1402 590.5 1397.5 c 128,-1,20
 556 1393 556 1393 529 1393 c 0,21,22
 504 1393 504 1393 470.5 1397.5 c 128,-1,23
 437 1402 437 1402 401 1413 c 128,-1,24
 365 1424 365 1424 329.5 1442.5 c 128,-1,25
 294 1461 294 1461 266.5 1488 c 128,-1,26
 239 1515 239 1515 221.5 1552.5 c 128,-1,27
 204 1590 204 1590 204 1640 c 256,0,1
824 381 m 2,28,29
 824 341 824 341 835 319 c 128,-1,30
 846 297 846 297 862.5 285.5 c 128,-1,31
 879 274 879 274 898 270 c 128,-1,32
 917 266 917 266 933.5 261 c 128,-1,33
 950 256 950 256 961 246.5 c 128,-1,34
 972 237 972 237 972 215 c 0,35,36
 972 101 972 101 854 50.5 c 128,-1,37
 736 0 736 0 513 0 c 0,38,39
 405 0 405 0 322 12 c 128,-1,40
 239 24 239 24 182 50.5 c 128,-1,41
 125 77 125 77 95.5 117.5 c 128,-1,42
 66 158 66 158 66 215 c 0,43,44
 66 237 66 237 77 246.5 c 128,-1,45
 88 256 88 256 104 261 c 128,-1,46
 120 266 120 266 139 270 c 128,-1,47
 158 274 158 274 174 285.5 c 128,-1,48
 190 297 190 297 201 318.5 c 128,-1,49
 212 340 212 340 212 381 c 2,50,-1
 212 915 l 2,51,52
 212 955 212 955 201 977 c 128,-1,53
 190 999 190 999 174 1010.5 c 128,-1,54
 158 1022 158 1022 139 1026 c 128,-1,55
 120 1030 120 1030 104 1035 c 128,-1,56
 88 1040 88 1040 77 1049.5 c 128,-1,57
 66 1059 66 1059 66 1081 c 0,58,59
 66 1138 66 1138 95.5 1178.5 c 128,-1,60
 125 1219 125 1219 182 1245.5 c 128,-1,61
 239 1272 239 1272 322 1284 c 128,-1,62
 405 1296 405 1296 513 1296 c 256,63,64
 621 1296 621 1296 683 1285 c 128,-1,65
 745 1274 745 1274 776.5 1247.5 c 128,-1,66
 808 1221 808 1221 816 1176 c 128,-1,67
 824 1131 824 1131 824 1063 c 2,68,-1
 824 381 l 2,28,29
EndSplineSet
Validated: 1
Substitution2: "'smcp' Lowercase to Small Capitals in Latin lookup 1 subtable" i.sc
Substitution2: "'aalt' Access All Alternates in Latin lookup 0 subtable" i.sc
EndChar

StartChar: j
Encoding: 106 106 77
Width: 957
Flags: W
HStem: -340 221<42.3159 257.737> 1276 20G<448 555.5> 1393 495<310.391 695.234>
VStem: 176 651<1507.86 1772.41> 201 614<15.9917 1014.86>
LayerCount: 2
Fore
SplineSet
176 1640 m 256,0,1
 176 1690 176 1690 193.5 1727.5 c 128,-1,2
 211 1765 211 1765 238.5 1792.5 c 128,-1,3
 266 1820 266 1820 301.5 1838.5 c 128,-1,4
 337 1857 337 1857 373.5 1868 c 128,-1,5
 410 1879 410 1879 443.5 1883.5 c 128,-1,6
 477 1888 477 1888 502 1888 c 0,7,8
 528 1888 528 1888 562.5 1883.5 c 128,-1,9
 597 1879 597 1879 633 1868 c 128,-1,10
 669 1857 669 1857 704 1838.5 c 128,-1,11
 739 1820 739 1820 766.5 1792.5 c 128,-1,12
 794 1765 794 1765 810.5 1727.5 c 128,-1,13
 827 1690 827 1690 827 1640 c 0,14,15
 827 1591 827 1591 810.5 1553 c 128,-1,16
 794 1515 794 1515 766.5 1488 c 128,-1,17
 739 1461 739 1461 704 1442.5 c 128,-1,18
 669 1424 669 1424 633 1413 c 128,-1,19
 597 1402 597 1402 562.5 1397.5 c 128,-1,20
 528 1393 528 1393 502 1393 c 0,21,22
 477 1393 477 1393 443.5 1397.5 c 128,-1,23
 410 1402 410 1402 373.5 1413 c 128,-1,24
 337 1424 337 1424 301.5 1442.5 c 128,-1,25
 266 1461 266 1461 238.5 1488 c 128,-1,26
 211 1515 211 1515 193.5 1552.5 c 128,-1,27
 176 1590 176 1590 176 1640 c 256,0,1
815 221 m 2,28,29
 815 149 815 149 800 79.5 c 128,-1,30
 785 10 785 10 753.5 -52 c 128,-1,31
 722 -114 722 -114 673 -167 c 128,-1,32
 624 -220 624 -220 555.5 -258.5 c 128,-1,33
 487 -297 487 -297 397.5 -318.5 c 128,-1,34
 308 -340 308 -340 197 -340 c 0,35,36
 146 -340 146 -340 110.5 -330 c 128,-1,37
 75 -320 75 -320 53.5 -304.5 c 128,-1,38
 32 -289 32 -289 22 -268.5 c 128,-1,39
 12 -248 12 -248 12 -227 c 256,40,41
 12 -206 12 -206 20.5 -186.5 c 128,-1,42
 29 -167 29 -167 43 -152 c 128,-1,43
 57 -137 57 -137 76.5 -128 c 128,-1,44
 96 -119 96 -119 119 -119 c 0,45,46
 160 -119 160 -119 187.5 -114.5 c 128,-1,47
 215 -110 215 -110 231.5 -102 c 128,-1,48
 248 -94 248 -94 255 -81.5 c 128,-1,49
 262 -69 262 -69 262 -53 c 0,50,51
 262 -32 262 -32 252.5 -4 c 128,-1,52
 243 24 243 24 231.5 58.5 c 128,-1,53
 220 93 220 93 210.5 133.5 c 128,-1,54
 201 174 201 174 201 221 c 2,55,-1
 201 915 l 2,56,57
 201 955 201 955 190 977 c 128,-1,58
 179 999 179 999 163 1010.5 c 128,-1,59
 147 1022 147 1022 128 1026 c 128,-1,60
 109 1030 109 1030 93 1035 c 128,-1,61
 77 1040 77 1040 66 1049.5 c 128,-1,62
 55 1059 55 1059 55 1081 c 0,63,64
 55 1138 55 1138 84.5 1178.5 c 128,-1,65
 114 1219 114 1219 171 1245.5 c 128,-1,66
 228 1272 228 1272 311 1284 c 128,-1,67
 394 1296 394 1296 502 1296 c 0,68,69
 609 1296 609 1296 671.5 1285 c 128,-1,70
 734 1274 734 1274 766 1247.5 c 128,-1,71
 798 1221 798 1221 806.5 1176 c 128,-1,72
 815 1131 815 1131 815 1063 c 2,73,-1
 815 221 l 2,28,29
EndSplineSet
Validated: 1
Substitution2: "'smcp' Lowercase to Small Capitals in Latin lookup 1 subtable" j.sc
Substitution2: "'aalt' Access All Alternates in Latin lookup 0 subtable" j.sc
EndChar

StartChar: k
Encoding: 107 107 78
Width: 1855
Flags: W
HStem: 0 21G<452 617.5 1420 1522.5> 567 162<817 922.812> 1276 20G<1401 1471.5> 1866 20G<452 557>
VStem: 205 612<282.434 567 729 1604.86>
LayerCount: 2
Fore
SplineSet
1165 954 m 2,0,1
 1187 971 1187 971 1194.5 985 c 128,-1,2
 1202 999 1202 999 1202 1010 c 0,3,4
 1202 1024 1202 1024 1185 1037 c 128,-1,5
 1168 1050 1168 1050 1147 1064 c 128,-1,6
 1126 1078 1126 1078 1109 1093.5 c 128,-1,7
 1092 1109 1092 1109 1092 1128 c 0,8,9
 1092 1181 1092 1181 1123.5 1214 c 128,-1,10
 1155 1247 1155 1247 1204.5 1265 c 128,-1,11
 1254 1283 1254 1283 1313.5 1289.5 c 128,-1,12
 1373 1296 1373 1296 1429 1296 c 0,13,14
 1514 1296 1514 1296 1573.5 1287 c 128,-1,15
 1633 1278 1633 1278 1670.5 1257.5 c 128,-1,16
 1708 1237 1708 1237 1724.5 1205 c 128,-1,17
 1741 1173 1741 1173 1741 1128 c 0,18,19
 1741 1099 1741 1099 1729 1083 c 128,-1,20
 1717 1067 1717 1067 1696 1057 c 128,-1,21
 1675 1047 1675 1047 1647.5 1040 c 128,-1,22
 1620 1033 1620 1033 1588 1023 c 128,-1,23
 1556 1013 1556 1013 1522.5 997.5 c 128,-1,24
 1489 982 1489 982 1456 954 c 2,25,-1
 1307 827 l 1,26,-1
 1620 367 l 2,27,28
 1644 332 1644 332 1671 315.5 c 128,-1,29
 1698 299 1698 299 1725 291.5 c 128,-1,30
 1752 284 1752 284 1777 281.5 c 128,-1,31
 1802 279 1802 279 1821.5 274 c 128,-1,32
 1841 269 1841 269 1852.5 257.5 c 128,-1,33
 1864 246 1864 246 1864 219 c 0,34,35
 1864 160 1864 160 1839 118 c 128,-1,36
 1814 76 1814 76 1765 50 c 128,-1,37
 1716 24 1716 24 1643 12 c 128,-1,38
 1570 0 1570 0 1475 0 c 0,39,40
 1365 0 1365 0 1299 11.5 c 128,-1,41
 1233 23 1233 23 1196 43.5 c 128,-1,42
 1159 64 1159 64 1143.5 92 c 128,-1,43
 1128 120 1128 120 1118.5 154.5 c 128,-1,44
 1109 189 1109 189 1099 227.5 c 128,-1,45
 1089 266 1089 266 1063 307 c 2,46,-1
 915 539 l 2,47,48
 912 543 912 543 907.5 548 c 128,-1,49
 903 553 903 553 892.5 557.5 c 128,-1,50
 882 562 882 562 864 564.5 c 128,-1,51
 846 567 846 567 817 567 c 1,52,-1
 817 385 l 2,53,54
 817 344 817 344 828 321 c 128,-1,55
 839 298 839 298 855.5 286.5 c 128,-1,56
 872 275 872 275 891 270.5 c 128,-1,57
 910 266 910 266 926.5 261 c 128,-1,58
 943 256 943 256 954 246.5 c 128,-1,59
 965 237 965 237 965 215 c 0,60,61
 965 101 965 101 847 50.5 c 128,-1,62
 729 0 729 0 506 0 c 0,63,64
 398 0 398 0 315 12 c 128,-1,65
 232 24 232 24 175 50.5 c 128,-1,66
 118 77 118 77 88.5 117.5 c 128,-1,67
 59 158 59 158 59 215 c 0,68,69
 59 237 59 237 70 246.5 c 128,-1,70
 81 256 81 256 97 261 c 128,-1,71
 113 266 113 266 132 270 c 128,-1,72
 151 274 151 274 167 285.5 c 128,-1,73
 183 297 183 297 194 318.5 c 128,-1,74
 205 340 205 340 205 381 c 2,75,-1
 205 1505 l 2,76,77
 205 1546 205 1546 194 1567.5 c 128,-1,78
 183 1589 183 1589 167 1600.5 c 128,-1,79
 151 1612 151 1612 132 1616 c 128,-1,80
 113 1620 113 1620 97 1625 c 128,-1,81
 81 1630 81 1630 70 1639.5 c 128,-1,82
 59 1649 59 1649 59 1671 c 0,83,84
 59 1728 59 1728 88.5 1768.5 c 128,-1,85
 118 1809 118 1809 175 1835.5 c 128,-1,86
 232 1862 232 1862 315 1874 c 128,-1,87
 398 1886 398 1886 506 1886 c 0,88,89
 608 1886 608 1886 669.5 1876.5 c 128,-1,90
 731 1867 731 1867 763.5 1843.5 c 128,-1,91
 796 1820 796 1820 806.5 1780.5 c 128,-1,92
 817 1741 817 1741 817 1681 c 2,93,-1
 817 729 l 1,94,95
 841 729 841 729 854.5 730.5 c 128,-1,96
 868 732 868 732 877 735.5 c 128,-1,97
 886 739 886 739 894 745.5 c 128,-1,98
 902 752 902 752 915 762 c 2,99,-1
 1165 954 l 2,0,1
EndSplineSet
Validated: 1
Substitution2: "'smcp' Lowercase to Small Capitals in Latin lookup 1 subtable" k.sc
Substitution2: "'aalt' Access All Alternates in Latin lookup 0 subtable" k.sc
EndChar

StartChar: l
Encoding: 108 108 79
Width: 1023
Flags: W
HStem: 0 21G<452.5 617.5> 1866 20G<452.5 560>
VStem: 205 613<282.117 1605.17>
LayerCount: 2
Fore
SplineSet
818 385 m 2,0,1
 818 344 818 344 829 321 c 128,-1,2
 840 298 840 298 856 286.5 c 128,-1,3
 872 275 872 275 891.5 270.5 c 128,-1,4
 911 266 911 266 927 261 c 128,-1,5
 943 256 943 256 954 246.5 c 128,-1,6
 965 237 965 237 965 215 c 0,7,8
 965 101 965 101 847 50.5 c 128,-1,9
 729 0 729 0 506 0 c 0,10,11
 399 0 399 0 316 12 c 128,-1,12
 233 24 233 24 176 50.5 c 128,-1,13
 119 77 119 77 89.5 117.5 c 128,-1,14
 60 158 60 158 60 215 c 0,15,16
 60 237 60 237 70.5 246.5 c 128,-1,17
 81 256 81 256 97.5 261 c 128,-1,18
 114 266 114 266 132.5 270 c 128,-1,19
 151 274 151 274 167.5 285.5 c 128,-1,20
 184 297 184 297 194.5 318.5 c 128,-1,21
 205 340 205 340 205 381 c 2,22,-1
 205 1505 l 2,23,24
 205 1546 205 1546 194.5 1567.5 c 128,-1,25
 184 1589 184 1589 167.5 1600.5 c 128,-1,26
 151 1612 151 1612 132.5 1616 c 128,-1,27
 114 1620 114 1620 97.5 1625 c 128,-1,28
 81 1630 81 1630 70.5 1639.5 c 128,-1,29
 60 1649 60 1649 60 1671 c 0,30,31
 60 1728 60 1728 89.5 1768.5 c 128,-1,32
 119 1809 119 1809 176 1835.5 c 128,-1,33
 233 1862 233 1862 316 1874 c 128,-1,34
 399 1886 399 1886 506 1886 c 0,35,36
 614 1886 614 1886 676 1875 c 128,-1,37
 738 1864 738 1864 769.5 1837.5 c 128,-1,38
 801 1811 801 1811 809.5 1766 c 128,-1,39
 818 1721 818 1721 818 1653 c 2,40,-1
 818 385 l 2,0,1
EndSplineSet
Validated: 1
Substitution2: "'smcp' Lowercase to Small Capitals in Latin lookup 1 subtable" l.sc
Substitution2: "'aalt' Access All Alternates in Latin lookup 0 subtable" l.sc
EndChar

StartChar: m
Encoding: 109 109 80
Width: 2759
Flags: W
HStem: 0 21G<441.5 599.5 1371.5 1474.5 2250.5 2353> 1067 258<949.694 1291 1733.51 2136.5> 1276 20G<437.5 511>
VStem: 204 612<281.138 1014.48> 1101 604<276.873 1026.11> 1979 605<285.861 1021.23>
LayerCount: 2
Fore
SplineSet
1586 1202 m 1,0,1
 1603 1213 1603 1213 1630.5 1233.5 c 128,-1,2
 1658 1254 1658 1254 1712 1274.5 c 128,-1,3
 1766 1295 1766 1295 1855 1310 c 128,-1,4
 1944 1325 1944 1325 2084 1325 c 0,5,6
 2189 1325 2189 1325 2267 1300 c 128,-1,7
 2345 1275 2345 1275 2400.5 1232 c 128,-1,8
 2456 1189 2456 1189 2492 1130.5 c 128,-1,9
 2528 1072 2528 1072 2549 1004.5 c 128,-1,10
 2570 937 2570 937 2578 864 c 128,-1,11
 2586 791 2586 791 2586 719 c 2,12,-1
 2586 709 l 1,13,14
 2585 590 2585 590 2584.5 525.5 c 128,-1,15
 2584 461 2584 461 2584 431 c 128,-1,16
 2584 401 2584 401 2584 395.5 c 128,-1,17
 2584 390 2584 390 2584 390 c 2,18,19
 2584 348 2584 348 2595 324.5 c 128,-1,20
 2606 301 2606 301 2622.5 288.5 c 128,-1,21
 2639 276 2639 276 2658.5 271.5 c 128,-1,22
 2678 267 2678 267 2694.5 261.5 c 128,-1,23
 2711 256 2711 256 2722 246.5 c 128,-1,24
 2733 237 2733 237 2733 215 c 0,25,26
 2733 158 2733 158 2704.5 117.5 c 128,-1,27
 2676 77 2676 77 2621 50.5 c 128,-1,28
 2566 24 2566 24 2485.5 12 c 128,-1,29
 2405 0 2405 0 2301 0 c 0,30,31
 2200 0 2200 0 2121.5 12 c 128,-1,32
 2043 24 2043 24 1989 50.5 c 128,-1,33
 1935 77 1935 77 1907 117.5 c 128,-1,34
 1879 158 1879 158 1879 215 c 0,35,36
 1879 237 1879 237 1886.5 246.5 c 128,-1,37
 1894 256 1894 256 1905 261 c 128,-1,38
 1916 266 1916 266 1929 270 c 128,-1,39
 1942 274 1942 274 1953 285.5 c 128,-1,40
 1964 297 1964 297 1971.5 318.5 c 128,-1,41
 1979 340 1979 340 1979 381 c 2,42,-1
 1979 811 l 2,43,44
 1979 872 1979 872 1971.5 920 c 128,-1,45
 1964 968 1964 968 1947 1001 c 128,-1,46
 1930 1034 1930 1034 1901.5 1051.5 c 128,-1,47
 1873 1069 1873 1069 1830 1069 c 0,48,49
 1764 1069 1764 1069 1734.5 1027.5 c 128,-1,50
 1705 986 1705 986 1705 920 c 2,51,-1
 1705 393 l 2,52,53
 1705 350 1705 350 1713 326 c 128,-1,54
 1721 302 1721 302 1733.5 289.5 c 128,-1,55
 1746 277 1746 277 1760.5 272 c 128,-1,56
 1775 267 1775 267 1787.5 261.5 c 128,-1,57
 1800 256 1800 256 1808 246.5 c 128,-1,58
 1816 237 1816 237 1816 215 c 0,59,60
 1816 158 1816 158 1793.5 117.5 c 128,-1,61
 1771 77 1771 77 1723.5 50.5 c 128,-1,62
 1676 24 1676 24 1601.5 12 c 128,-1,63
 1527 0 1527 0 1422 0 c 0,64,65
 1321 0 1321 0 1242.5 12 c 128,-1,66
 1164 24 1164 24 1110 50.5 c 128,-1,67
 1056 77 1056 77 1028 117.5 c 128,-1,68
 1000 158 1000 158 1000 215 c 0,69,70
 1000 237 1000 237 1007.5 246.5 c 128,-1,71
 1015 256 1015 256 1026 261 c 128,-1,72
 1037 266 1037 266 1050.5 270 c 128,-1,73
 1064 274 1064 274 1075 285.5 c 128,-1,74
 1086 297 1086 297 1093.5 318.5 c 128,-1,75
 1101 340 1101 340 1101 381 c 2,76,-1
 1101 811 l 2,77,78
 1101 933 1101 933 1071.5 1000 c 128,-1,79
 1042 1067 1042 1067 966 1067 c 0,80,81
 936 1067 936 1067 909 1056 c 128,-1,82
 882 1045 882 1045 861 1024.5 c 128,-1,83
 840 1004 840 1004 828 976 c 128,-1,84
 816 948 816 948 816 915 c 2,85,-1
 816 385 l 2,86,87
 816 344 816 344 824.5 321 c 128,-1,88
 833 298 833 298 846 286.5 c 128,-1,89
 859 275 859 275 874.5 270.5 c 128,-1,90
 890 266 890 266 903 261 c 128,-1,91
 916 256 916 256 924.5 246.5 c 128,-1,92
 933 237 933 237 933 215 c 0,93,94
 933 101 933 101 819.5 50.5 c 128,-1,95
 706 0 706 0 493 0 c 0,96,97
 390 0 390 0 309 12 c 128,-1,98
 228 24 228 24 172.5 50.5 c 128,-1,99
 117 77 117 77 87.5 117.5 c 128,-1,100
 58 158 58 158 58 215 c 0,101,102
 58 237 58 237 69 246.5 c 128,-1,103
 80 256 80 256 96 261 c 128,-1,104
 112 266 112 266 131 270 c 128,-1,105
 150 274 150 274 166 285.5 c 128,-1,106
 182 297 182 297 193 318.5 c 128,-1,107
 204 340 204 340 204 381 c 2,108,-1
 204 915 l 2,109,110
 204 955 204 955 193 977 c 128,-1,111
 182 999 182 999 166 1010.5 c 128,-1,112
 150 1022 150 1022 131 1026 c 128,-1,113
 112 1030 112 1030 96 1035 c 128,-1,114
 80 1040 80 1040 69 1049.5 c 128,-1,115
 58 1059 58 1059 58 1081 c 0,116,117
 58 1138 58 1138 87 1178.5 c 128,-1,118
 116 1219 116 1219 171.5 1245.5 c 128,-1,119
 227 1272 227 1272 307 1284 c 128,-1,120
 387 1296 387 1296 488 1296 c 0,121,122
 534 1296 534 1296 571 1291.5 c 128,-1,123
 608 1287 608 1287 636.5 1279.5 c 128,-1,124
 665 1272 665 1272 686 1262.5 c 128,-1,125
 707 1253 707 1253 722 1243 c 0,126,127
 757 1219 757 1219 771 1190 c 1,128,129
 820 1227 820 1227 889 1257 c 0,130,131
 948 1283 948 1283 1033 1304 c 128,-1,132
 1118 1325 1118 1325 1232 1325 c 0,133,134
 1350 1325 1350 1325 1441 1291.5 c 128,-1,135
 1532 1258 1532 1258 1586 1202 c 1,0,1
EndSplineSet
Validated: 1
Substitution2: "'smcp' Lowercase to Small Capitals in Latin lookup 1 subtable" m.sc
Substitution2: "'aalt' Access All Alternates in Latin lookup 0 subtable" m.sc
EndChar

StartChar: n
Encoding: 110 110 81
Width: 1967
Flags: W
HStem: 0 21G<457 622.5 1430 1595.5> 1069 256<976.5 1348> 1276 20G<457 560>
VStem: 210 612<282.434 1014.75> 1187 604<285.861 1003.66>
LayerCount: 2
Fore
SplineSet
822 385 m 2,0,1
 822 344 822 344 833 321 c 128,-1,2
 844 298 844 298 860.5 286.5 c 128,-1,3
 877 275 877 275 896 270.5 c 128,-1,4
 915 266 915 266 931.5 261 c 128,-1,5
 948 256 948 256 959 246.5 c 128,-1,6
 970 237 970 237 970 215 c 0,7,8
 970 101 970 101 852 50.5 c 128,-1,9
 734 0 734 0 511 0 c 0,10,11
 403 0 403 0 320 12 c 128,-1,12
 237 24 237 24 180 50.5 c 128,-1,13
 123 77 123 77 93.5 117.5 c 128,-1,14
 64 158 64 158 64 215 c 0,15,16
 64 237 64 237 75 246.5 c 128,-1,17
 86 256 86 256 102 261 c 128,-1,18
 118 266 118 266 137 270 c 128,-1,19
 156 274 156 274 172 285.5 c 128,-1,20
 188 297 188 297 199 318.5 c 128,-1,21
 210 340 210 340 210 381 c 2,22,-1
 210 915 l 2,23,24
 210 955 210 955 199 977 c 128,-1,25
 188 999 188 999 172 1010.5 c 128,-1,26
 156 1022 156 1022 137 1026 c 128,-1,27
 118 1030 118 1030 102 1035 c 128,-1,28
 86 1040 86 1040 75 1049.5 c 128,-1,29
 64 1059 64 1059 64 1081 c 0,30,31
 64 1138 64 1138 93.5 1178.5 c 128,-1,32
 123 1219 123 1219 180 1245.5 c 128,-1,33
 237 1272 237 1272 320 1284 c 128,-1,34
 403 1296 403 1296 511 1296 c 0,35,36
 609 1296 609 1296 667 1279.5 c 128,-1,37
 725 1263 725 1263 757 1243 c 0,38,39
 794 1219 794 1219 808 1190 c 1,40,41
 860 1227 860 1227 932 1257 c 0,42,43
 994 1283 994 1283 1083.5 1304 c 128,-1,44
 1173 1325 1173 1325 1293 1325 c 0,45,46
 1403 1325 1403 1325 1482.5 1297.5 c 128,-1,47
 1562 1270 1562 1270 1617.5 1223.5 c 128,-1,48
 1673 1177 1673 1177 1707 1115.5 c 128,-1,49
 1741 1054 1741 1054 1759.5 987 c 128,-1,50
 1778 920 1778 920 1784.5 851.5 c 128,-1,51
 1791 783 1791 783 1791 721 c 2,52,-1
 1791 390 l 2,53,54
 1791 348 1791 348 1802 324.5 c 128,-1,55
 1813 301 1813 301 1830 288.5 c 128,-1,56
 1847 276 1847 276 1866.5 271.5 c 128,-1,57
 1886 267 1886 267 1903 261.5 c 128,-1,58
 1920 256 1920 256 1931 246.5 c 128,-1,59
 1942 237 1942 237 1942 215 c 0,60,61
 1942 101 1942 101 1824.5 50.5 c 128,-1,62
 1707 0 1707 0 1484 0 c 0,63,64
 1376 0 1376 0 1293 12 c 128,-1,65
 1210 24 1210 24 1153 50.5 c 128,-1,66
 1096 77 1096 77 1066.5 117.5 c 128,-1,67
 1037 158 1037 158 1037 215 c 0,68,69
 1037 237 1037 237 1048 246.5 c 128,-1,70
 1059 256 1059 256 1076 261 c 128,-1,71
 1093 266 1093 266 1112 270 c 128,-1,72
 1131 274 1131 274 1148 285.5 c 128,-1,73
 1165 297 1165 297 1176 318.5 c 128,-1,74
 1187 340 1187 340 1187 381 c 2,75,-1
 1187 808 l 2,76,77
 1187 870 1187 870 1177.5 918.5 c 128,-1,78
 1168 967 1168 967 1145.5 1000.5 c 128,-1,79
 1123 1034 1123 1034 1086 1051.5 c 128,-1,80
 1049 1069 1049 1069 994 1069 c 0,81,82
 959 1069 959 1069 928 1057.5 c 128,-1,83
 897 1046 897 1046 874 1025.5 c 128,-1,84
 851 1005 851 1005 837.5 976.5 c 128,-1,85
 824 948 824 948 824 915 c 2,86,-1
 822 385 l 2,0,1
EndSplineSet
Validated: 1
Substitution2: "'smcp' Lowercase to Small Capitals in Latin lookup 1 subtable" n.sc
Substitution2: "'aalt' Access All Alternates in Latin lookup 0 subtable" n.sc
EndChar

StartChar: o
Encoding: 111 111 82
Width: 1572
Flags: W
HStem: -25 256<730.31 880.258> 1069 256<693.984 851.881>
VStem: 43 602<415.904 900.061> 923 605<422.611 912.35>
LayerCount: 2
Fore
SplineSet
760 -25 m 0,0,1
 641 -25 641 -25 541.5 3 c 128,-1,2
 442 31 442 31 362.5 79.5 c 128,-1,3
 283 128 283 128 223 194 c 128,-1,4
 163 260 163 260 123 336.5 c 128,-1,5
 83 413 83 413 63 496 c 128,-1,6
 43 579 43 579 43 662 c 0,7,8
 43 747 43 747 64.5 829.5 c 128,-1,9
 86 912 86 912 129.5 986 c 128,-1,10
 173 1060 173 1060 238 1122 c 128,-1,11
 303 1184 303 1184 390.5 1229 c 128,-1,12
 478 1274 478 1274 587.5 1299.5 c 128,-1,13
 697 1325 697 1325 829 1325 c 0,14,15
 945 1325 945 1325 1041.5 1299 c 128,-1,16
 1138 1273 1138 1273 1216 1227.5 c 128,-1,17
 1294 1182 1294 1182 1352.5 1120 c 128,-1,18
 1411 1058 1411 1058 1450 985 c 128,-1,19
 1489 912 1489 912 1508.5 831 c 128,-1,20
 1528 750 1528 750 1528 668 c 0,21,22
 1528 583 1528 583 1507 498 c 128,-1,23
 1486 413 1486 413 1443.5 336 c 128,-1,24
 1401 259 1401 259 1337 193 c 128,-1,25
 1273 127 1273 127 1187.5 78.5 c 128,-1,26
 1102 30 1102 30 995 2.5 c 128,-1,27
 888 -25 888 -25 760 -25 c 0,0,1
805 231 m 0,28,29
 838 231 838 231 860.5 250.5 c 128,-1,30
 883 270 883 270 897 307 c 128,-1,31
 911 344 911 344 917 396.5 c 128,-1,32
 923 449 923 449 923 514 c 0,33,34
 923 571 923 571 922 634.5 c 128,-1,35
 921 698 921 698 917 759.5 c 128,-1,36
 913 821 913 821 904 877 c 128,-1,37
 895 933 895 933 878.5 976 c 128,-1,38
 862 1019 862 1019 837 1044 c 128,-1,39
 812 1069 812 1069 776 1069 c 0,40,41
 741 1069 741 1069 716.5 1049.5 c 128,-1,42
 692 1030 692 1030 676 995 c 128,-1,43
 660 960 660 960 652.5 911 c 128,-1,44
 645 862 645 862 645 803 c 0,45,46
 645 748 645 748 647 684 c 128,-1,47
 649 620 649 620 655 556.5 c 128,-1,48
 661 493 661 493 672.5 434 c 128,-1,49
 684 375 684 375 701.5 330 c 128,-1,50
 719 285 719 285 744.5 258 c 128,-1,51
 770 231 770 231 805 231 c 0,28,29
EndSplineSet
Validated: 1
Substitution2: "'smcp' Lowercase to Small Capitals in Latin lookup 1 subtable" o.sc
Substitution2: "'aalt' Access All Alternates in Latin lookup 0 subtable" o.sc
EndChar

